<svg width="1762" height="1065" viewBox="0 0 1762 1065" fill="none" xmlns="http://www.w3.org/2000/svg">
<mask id="mask0" mask-type="alpha" maskUnits="userSpaceOnUse" x="0" y="0" width="1762" height="1065">
<rect width="1762" height="1065" fill="#C4C4C4"/>
</mask>
<g mask="url(#mask0)">
<rect x="-66" y="-142" width="1886" height="1345" fill="#FFFBF4"/>
<path d="M1358.8 538.046C948.023 625.592 552.005 853.771 406.894 974.552C359.669 1007.79 205.129 1109.04 -47.6546 1107.1C-363.634 1104.66 -233.121 538.046 -7.29854 538.046C218.524 538.046 574.157 454.805 668.451 433.477C750.88 414.833 1158.45 375.654 1358.8 364.575C1529.95 385.922 1769.57 450.5 1358.8 538.046Z" stroke="#FFBF75"/>
<path d="M1705.5 -16.4442C1635.43 -11.2563 239.131 384.03 -7.29854 433.477V11.9797C353.616 9.8181 1775.56 -21.6321 1705.5 -16.4442Z" stroke="#FFBF75"/>
<path d="M986.147 838.431C836.4 886.419 473.957 1075.64 360.617 1167.24H986.147C1048.54 1016.2 1135.89 790.443 986.147 838.431Z" stroke="#FFBF75"/>
<path d="M1420.5 494.104C983.935 582.376 615.361 803.073 454.251 922.57C404.061 956.081 194.401 1069.83 -74.2517 1067.87C-410.068 1065.42 -271.361 494.104 -31.3621 494.104C208.637 494.104 586.598 410.172 686.811 388.667C774.415 369.869 1207.58 307.877 1420.5 319.194C1605 329 1857.06 405.831 1420.5 494.104Z" fill="#7AD7FF"/>
<path d="M1547 -9.3752C1472.54 -4.14425 230.538 358.143 -31.3621 408V-36.3269C352.211 -38.5064 1621.46 -14.6061 1547 -9.3752Z" fill="#7AD7FF"/>
<path d="M1397 610C1237.85 658.386 480.107 1036.16 359.651 1128.52H1463.5C1529.81 976.223 1556.15 561.614 1397 610Z" fill="#7AD7FF"/>
<path d="M1521 425C1056.19 524.059 412.698 869.836 248.5 1006.5C195.063 1044.11 235.872 1135.14 -50.1619 1132.94C-407.705 1130.19 -260.024 489.061 -4.49744 489.061C251.029 489.061 653.443 394.873 760.139 370.741C853.412 349.645 1314.59 305.313 1541.29 292.778C1734.96 316.931 1985.81 325.941 1521 425Z" stroke="#FFF6E7"/>
<path d="M1320.49 -138.347C1241.21 -132.477 274.347 250.586 -4.49744 306.536V-106.185C403.892 -108.631 1399.78 -144.217 1320.49 -138.347Z" stroke="#FFF6E7"/>
<path d="M1427.5 669C1258.06 723.299 540.063 1097.36 411.814 1201L1440.5 1073.5C1511.1 902.593 1596.94 614.701 1427.5 669Z" stroke="#FFF6E7"/>
<path d="M122.053 735.058C131.245 612.018 -103.932 683.791 -222.67 735.058V1014.37H-152.842C-65.0405 972.534 112.86 858.097 122.053 735.058Z" fill="#FFFBF4"/>
<circle cx="254.474" cy="421.858" r="7.97862" transform="rotate(-135 254.474 421.858)" fill="#A8D4FD"/>
<circle cx="201.283" cy="267.604" r="7.97862" transform="rotate(-135 201.283 267.604)" fill="#FF9B04"/>
<path d="M383.71 254.857C386.826 251.741 391.878 251.741 394.994 254.857C398.11 257.973 398.11 263.025 394.994 266.141C391.878 269.257 386.826 269.257 383.71 266.141C380.595 263.025 380.595 257.973 383.71 254.857Z" fill="#FF7979"/>
<circle cx="1402.07" cy="712.889" r="7.97862" transform="rotate(-75 1402.07 712.889)" fill="#C4C4C4"/>
<circle cx="1140.48" cy="116.772" r="7.72862" transform="rotate(-75 1140.48 116.772)" fill="white" stroke="black" stroke-width="0.5"/>
<circle cx="457.747" cy="640.122" r="7.97862" transform="rotate(-75 457.747 640.122)" fill="#DBDBDB"/>
<circle cx="1537.89" cy="189.714" r="7.97862" transform="rotate(-75 1537.89 189.714)" fill="#A56831"/>
<circle cx="1059.99" cy="851.228" r="7.97862" transform="rotate(-75 1059.99 851.228)" fill="#FFC28A"/>
</g>
</svg>
