<svg width="1440" height="900" viewBox="0 0 1440 900" fill="none" xmlns="http://www.w3.org/2000/svg">
<path d="M1446.26 474.104C1009.7 562.376 641.127 783.073 480.017 902.57C429.827 936.081 220.167 1049.83 -48.4857 1047.87C-384.302 1045.42 -245.595 474.104 -5.59607 474.104C234.403 474.104 612.364 390.172 712.577 368.668C800.181 349.869 1233.34 310.364 1446.26 299.194C1628.16 320.717 1882.82 385.832 1446.26 474.104Z" fill="#7AD7FF"/>
<path d="M1572.77 -29.3751C1498.3 -24.1441 256.304 338.143 -5.59607 388V-56.3267C377.977 -58.5063 1647.23 -34.606 1572.77 -29.3751Z" fill="#7AD7FF"/>
<path d="M1422.77 590C1263.62 638.386 505.873 1016.16 385.417 1108.52H1489.27C1555.58 956.223 1581.91 541.614 1422.77 590Z" fill="#7AD7FF"/>
<path d="M1479.77 420C1014.96 519.059 371.464 864.836 207.266 1001.5C153.829 1039.11 194.639 1130.14 -91.3958 1127.94C-448.939 1125.19 -301.258 484.061 -45.7314 484.061C209.795 484.061 612.209 389.873 718.905 365.741C812.178 344.645 1273.36 300.313 1500.06 287.778C1693.73 311.931 1944.57 320.941 1479.77 420Z" stroke="#FFF6E7"/>
<path d="M1279.26 -143.347C1199.98 -137.477 233.113 245.586 -45.7314 301.536V-111.185C362.658 -113.631 1358.54 -149.217 1279.26 -143.347Z" stroke="#FFF6E7"/>
<path d="M1386.27 664C1216.82 718.299 498.829 1092.36 370.58 1196L1399.27 1068.5C1469.87 897.593 1555.71 609.701 1386.27 664Z" stroke="#FFF6E7"/>
<path d="M1342.8 541.068C932.023 628.614 536.004 856.792 390.894 977.573C343.669 1010.81 189.129 1112.06 -63.6546 1110.12C-379.634 1107.69 -249.121 541.068 -23.2986 541.068C202.523 541.068 658.207 457.826 752.5 436.499C834.929 417.854 1242.5 378.675 1442.85 367.597C1614 388.943 1753.57 453.521 1342.8 541.068Z" stroke="#FFBF75"/>
<path d="M1689.5 -13.4231C1619.43 -8.23517 223.131 387.051 -23.2986 436.499V15.0008C337.616 12.8392 1759.56 -18.611 1689.5 -13.4231Z" stroke="#FFBF75"/>
<path d="M970.147 841.452C820.4 889.44 457.957 1078.67 344.617 1170.26H970.147C1032.54 1019.22 1119.89 793.464 970.147 841.452Z" stroke="#FFBF75"/>
</svg>
