<svg width="30" height="25" viewBox="0 0 30 25" fill="none" xmlns="http://www.w3.org/2000/svg">
<mask id="path-1-outside-1" maskUnits="userSpaceOnUse" x="-0.5" y="-2.44784e-06" width="31" height="25" fill="black">
<rect fill="white" x="-0.5" y="-2.44784e-06" width="31" height="25"/>
<path fill-rule="evenodd" clip-rule="evenodd" d="M12.5 22L3 12.5L12.5 3L14.5 5L8.5 11L27.5 11L27.5 14L8.5 14L14.5 20L12.5 22Z"/>
</mask>
<path fill-rule="evenodd" clip-rule="evenodd" d="M12.5 22L3 12.5L12.5 3L14.5 5L8.5 11L27.5 11L27.5 14L8.5 14L14.5 20L12.5 22Z" fill="#FCFCFC"/>
<path d="M3 12.5L1.58579 11.0858L0.171574 12.5L1.58579 13.9142L3 12.5ZM12.5 22L11.0858 23.4142L12.5 24.8284L13.9142 23.4142L12.5 22ZM12.5 3L13.9142 1.58579L12.5 0.171572L11.0858 1.58579L12.5 3ZM14.5 5L15.9142 6.41421L17.3284 5L15.9142 3.58579L14.5 5ZM8.5 11L7.08579 9.58579L3.67157 13L8.5 13L8.5 11ZM27.5 11L29.5 11L29.5 9L27.5 9L27.5 11ZM27.5 14L27.5 16L29.5 16L29.5 14L27.5 14ZM8.5 14L8.5 12L3.67157 12L7.08579 15.4142L8.5 14ZM14.5 20L15.9142 21.4142L17.3284 20L15.9142 18.5858L14.5 20ZM1.58579 13.9142L11.0858 23.4142L13.9142 20.5858L4.41421 11.0858L1.58579 13.9142ZM11.0858 1.58579L1.58579 11.0858L4.41421 13.9142L13.9142 4.41421L11.0858 1.58579ZM15.9142 3.58579L13.9142 1.58579L11.0858 4.41421L13.0858 6.41421L15.9142 3.58579ZM9.91421 12.4142L15.9142 6.41421L13.0858 3.58579L7.08579 9.58579L9.91421 12.4142ZM8.5 13L27.5 13L27.5 9L8.5 9L8.5 13ZM25.5 11L25.5 14L29.5 14L29.5 11L25.5 11ZM27.5 12L8.5 12L8.5 16L27.5 16L27.5 12ZM15.9142 18.5858L9.91421 12.5858L7.08579 15.4142L13.0858 21.4142L15.9142 18.5858ZM13.9142 23.4142L15.9142 21.4142L13.0858 18.5858L11.0858 20.5858L13.9142 23.4142Z" fill="#333333" mask="url(#path-1-outside-1)"/>
</svg>
