<svg width="180" height="48" viewBox="0 0 180 48" fill="none" xmlns="http://www.w3.org/2000/svg">
<path d="M25.0932 5.79853L9.25831 31.7984C5.19976 38.4623 9.99649 47 17.799 47H146.366C149.855 47 153.092 45.1815 154.907 42.2016L170.742 16.2017C174.8 9.53781 170.004 1.00012 162.201 1.00012H33.6339C30.1448 1.00012 26.908 2.81864 25.0932 5.79853Z" fill="#FCFCFC" stroke="#333333" stroke-width="2"/>
<circle cx="124.5" cy="24.5" r="8.5" fill="#6FE35C"/>
<path d="M48.5859 29.2617C48.4336 30.2344 48.9023 31.125 48.9961 31.2773L49.0078 31.3008C49.1953 31.6875 49.4766 31.8984 49.6172 32.0273C49.9805 32.3906 50.2969 32.5898 50.3555 32.625L50.4258 32.6602C51.1523 33.0234 51.8906 33.2344 52.6875 33.2344C53.4727 33.2344 54.2109 33.0469 54.9023 32.6836C55.2656 32.4961 56.4961 31.793 56.8711 30.7031C56.918 30.5508 57.0352 30.2578 57.0938 29.8945C57.1641 29.5078 57.1523 29.1445 57.1172 28.9102V28.8633L57.0469 28.5469C57.0586 28.6289 57.0234 28.5 57.0234 28.5117L57.0117 28.4648C56.9062 28.043 56.707 27.6094 56.4492 27.2461C56.1914 26.8828 55.5234 26.2266 55.0664 26.0742L55.043 26.0625C55.0312 26.0625 54.0938 25.7461 53.2266 25.4883L52.6641 25.3242C52.3945 25.2422 52.0547 25.1484 51.9492 25.1016C51.9609 25.1133 51.9727 25.125 51.9727 25.125L51.8203 25.043L51.8555 25.0664C51.8672 25.0781 51.8672 25.0781 51.8789 25.0781C51.8438 25.043 51.6797 24.9492 51.6211 24.6797C51.4922 24.1523 51.6797 23.7539 51.7148 23.6602C51.7969 23.5664 51.7969 23.543 51.8438 23.5078C51.9141 23.4141 52.0078 23.3672 52.0664 23.332C52.6172 23.0625 53.2148 23.0625 53.7656 23.332C53.8008 23.3438 53.9414 23.4727 54.0234 23.6133L54.3164 23.4609L56.2852 22.3711C55.8516 21.5625 55.1367 21.1289 55.0078 21.0703L54.9727 21.0586C54.3398 20.7188 53.6484 20.543 52.9102 20.543C52.1719 20.543 51.4922 20.7422 50.8125 21.082L50.7422 21.1172C50.6836 21.1523 50.3555 21.3516 50.0625 21.6328C49.8398 21.832 49.7227 21.9961 49.5352 22.2773L49.5117 22.3125C49.4414 22.418 49.0664 23.1094 48.9961 24.1289C48.9844 24.1992 48.9844 24.2695 48.9844 24.3398C48.9844 24.6211 49.0312 24.9258 49.1016 25.2422C49.4297 26.6133 50.4141 27.2227 50.7422 27.3867C51.0703 27.5508 51.4453 27.668 51.9727 27.8086C52.1484 27.8555 52.3125 27.9023 52.4883 27.9609C53.1094 28.1484 53.7539 28.3594 54.0469 28.4531C54.1523 28.5352 54.293 28.6758 54.3516 28.7344C54.3867 28.7812 54.4219 28.9102 54.5508 29.2266C54.5508 29.3203 54.5625 29.4375 54.5508 29.4961C54.5391 29.5898 54.4922 29.6953 54.4805 29.7305L54.4336 29.8477C54.3398 29.9766 54 30.2578 53.7188 30.3984C53.0625 30.7383 52.3477 30.7266 51.6914 30.4102C51.6445 30.375 51.5391 30.3047 51.4102 30.1758C51.3516 30.1172 51.2695 30.0469 51.2227 29.9648C51.1875 29.9062 51.1289 29.7422 51.1289 29.6602L48.5859 29.2617ZM61.5352 23.4844V28.8047C61.5352 29.8477 62.0391 30.7734 62.1914 31.0195C62.5078 31.5234 63.1758 32.1094 63.75 32.4258L63.9375 32.5312C64.4414 32.8125 65.0039 32.8828 65.5781 32.8828H66.9375V30.3047H65.5781C65.4141 30.3047 65.25 30.2695 65.0742 30.2109C64.8047 30.0234 64.5117 29.7891 64.3828 29.6602C64.2539 29.4141 64.1133 29.0742 64.1133 28.8047V23.4844H68.2148V20.9062H64.1133V13.6992H61.5352V20.9062H59.543V23.4844H61.5352ZM72.5508 26.8711C72.5508 26.4023 72.9023 25.4648 72.9961 25.1367C73.0078 25.125 73.0078 25.1133 73.0078 25.0898C73.3828 24.6328 74.2383 23.8945 74.8242 23.4258C75.2695 23.2383 75.7383 23.1445 76.2188 23.1445C76.6992 23.1445 77.168 23.2383 77.6133 23.4258C78.3281 23.9062 79.0781 24.5039 79.2188 24.7266C79.5469 25.2305 79.875 26.0156 79.875 26.6719V27.0703C79.875 27.7266 79.5234 28.5117 79.2188 29.0039C79.0664 29.25 78.3281 29.8359 77.6133 30.3164C77.168 30.5039 76.6992 30.5977 76.2188 30.5977C75.7383 30.5977 75.2695 30.5039 74.8242 30.3164C74.2383 29.8477 73.3828 29.1094 73.0078 28.6523C73.0078 28.6289 73.0078 28.6172 72.9961 28.6055C72.9023 28.2773 72.5508 27.3398 72.5508 26.8711ZM69.9609 26.8828C69.9609 27.6797 70.2891 28.6172 70.5703 29.4727C70.582 29.5312 70.6055 29.5781 70.6172 29.6133C70.6172 29.6016 70.5938 29.5547 70.582 29.4961L70.793 29.9883C71.4492 30.9609 73.0312 32.25 73.3594 32.4492L73.6172 32.6016C74.4258 32.9883 75.293 33.1758 76.2188 33.1758C77.1094 33.1758 77.9648 33.0469 78.7617 32.625L78.9375 32.5312C79.1719 32.4023 79.5117 32.1445 79.875 31.875V32.8008H82.4531V27.1758C82.4531 27.082 82.4648 26.9766 82.4648 26.8828V26.8711V26.8594C82.4648 26.7656 82.4531 26.6602 82.4531 26.5664V20.9062H79.875V21.8672C79.5117 21.5977 79.1719 21.3398 78.9375 21.2109L78.7617 21.1172C77.9648 20.6953 77.1094 20.5664 76.2188 20.5664C75.293 20.5664 74.4258 20.7539 73.6172 21.1406L73.3594 21.293C73.0547 21.5391 71.4609 22.7695 70.793 23.7539L70.582 24.2461C70.5938 24.1875 70.6172 24.1406 70.6172 24.1289C70.6055 24.1641 70.582 24.2109 70.5703 24.2695C70.2891 25.125 69.9609 26.0625 69.9609 26.8594V26.8828ZM85.6406 26.8828V32.8359H88.2188V26.6719C88.2188 26.0156 88.5703 25.2305 88.875 24.7383C89.0039 24.5273 89.8125 23.8594 90.5156 23.4023C90.6445 23.3438 90.7266 23.2734 90.8203 23.2148L90.8672 23.25C90.9844 23.3438 91.1016 23.3789 91.2305 23.4609C91.5234 23.707 91.9219 24.0469 92.2031 24.3281L94.5117 23.0391C93.9844 22.3477 92.9414 21.4922 92.7188 21.3516L92.4727 21.1992C92.4375 21.1875 92.332 21.1172 92.25 21.0703C91.8867 20.8477 91.4062 20.5312 90.7852 20.5312C90.1289 20.5312 89.6602 20.8594 89.4141 21.0469L89.3086 21.1289L89.332 21.1172L89.1562 21.2109C88.9219 21.3398 88.582 21.5977 88.2188 21.8672V20.918H85.6406V26.5664C85.6406 26.6719 85.6289 26.7773 85.6289 26.8828H85.6406ZM98.0508 23.4844V28.8047C98.0508 29.8477 98.5547 30.7734 98.707 31.0195C99.0234 31.5234 99.6914 32.1094 100.266 32.4258L100.453 32.5312C100.957 32.8125 101.52 32.8828 102.094 32.8828H103.453V30.3047H102.094C101.93 30.3047 101.766 30.2695 101.59 30.2109C101.32 30.0234 101.027 29.7891 100.898 29.6602C100.77 29.4141 100.629 29.0742 100.629 28.8047V23.4844H104.73V20.9062H100.629V13.6992H98.0508V20.9062H96.0586V23.4844H98.0508Z" fill="black"/>
</svg>
