<svg width="80" height="80" viewBox="0 0 80 80" fill="none" xmlns="http://www.w3.org/2000/svg">
<mask id="mask0" mask-type="alpha" maskUnits="userSpaceOnUse" x="0" y="0" width="80" height="80">
<rect width="80" height="80" fill="#C4C4C4"/>
</mask>
<g mask="url(#mask0)">
<path d="M48.263 20.1863C47.8994 17.6616 46.6666 10.184 54.9237 10.1358C55.5136 12.9689 56.9145 18.7627 48.263 20.1863Z" fill="#252525" stroke="#FCFCFC"/>
<path d="M49.1663 29.8403C48.5763 27.0071 46.6645 18.6038 55.3742 19.1727C56.2282 22.3658 58.1799 28.9104 49.1663 29.8403Z" fill="#252525" stroke="#FCFCFC"/>
<path d="M49.8714 38.6283C49.5078 36.1036 48.275 28.626 56.532 28.5777C57.1219 31.4109 58.5228 37.2047 49.8714 38.6283Z" fill="#252525" stroke="#FCFCFC"/>
<path d="M51.1774 47.257C50.708 44.6821 49.1644 37.0494 57.2842 37.3377C57.9898 40.2347 59.6242 46.1668 51.1774 47.257Z" fill="#252525" stroke="#FCFCFC"/>
<path d="M52.3278 56.6521C51.9642 54.1275 50.7314 46.6498 58.9885 46.6016C59.5784 49.4347 60.9793 55.2285 52.3278 56.6521Z" fill="#252525" stroke="#FCFCFC"/>
<path d="M42.8876 43.6067C43.2129 46.1366 44.0262 53.6714 51.995 51.5082C51.8052 48.6205 51.6045 42.6632 42.8876 43.6067Z" fill="#252525" stroke="#FCFCFC"/>
<path d="M41.1744 34.063C41.3641 36.9508 41.7708 45.5593 50.0107 42.6803C49.979 39.3751 50.1081 32.5469 41.1744 34.063Z" fill="#252525" stroke="#FCFCFC"/>
<path d="M39.5021 25.4069C39.8274 27.9367 40.6407 35.4716 48.6094 33.3084C48.4197 30.4207 48.219 24.4634 39.5021 25.4069Z" fill="#252525" stroke="#FCFCFC"/>
<path d="M38.7179 16.0392C38.9077 18.927 39.3144 27.5354 47.5542 24.6565C47.5225 21.3512 47.6516 14.5231 38.7179 16.0392Z" fill="#252525" stroke="#FCFCFC"/>
<path d="M37.0456 7.38303C37.3709 9.9129 38.1842 17.4478 46.153 15.2846C45.9632 12.3968 45.7625 6.43952 37.0456 7.38303Z" fill="#252525" stroke="#FCFCFC"/>
<path d="M52 52L53.6576 70.1335" stroke="#252525" stroke-width="2"/>
<path d="M69.8063 20.9343C70.4478 18.4656 72.204 11.0932 79.8367 14.2433C79.2846 17.0841 78.3349 22.9687 69.8063 20.9343Z" fill="#252525" stroke="#FCFCFC"/>
<path d="M66.9042 30.186C67.4563 27.3451 68.9445 18.8565 76.7559 22.7508C76.308 26.0257 75.5757 32.8157 66.9042 30.186Z" fill="#252525" stroke="#FCFCFC"/>
<path d="M64.1545 38.5625C64.796 36.0937 66.5522 28.7214 74.1849 31.8715C73.6327 34.7123 72.683 40.5968 64.1545 38.5625Z" fill="#252525" stroke="#FCFCFC"/>
<path d="M62.0205 47.0244C62.5838 44.4684 64.1135 36.8329 71.4894 40.2402C71.0193 43.1846 70.2313 49.287 62.0205 47.0244Z" fill="#252525" stroke="#FCFCFC"/>
<path d="M59.4466 56.133C60.088 53.6643 61.8443 46.292 69.477 49.4421C68.9248 52.2829 67.9751 58.1674 59.4466 56.133Z" fill="#252525" stroke="#FCFCFC"/>
<path d="M55.7885 40.4512C55.1096 42.9099 52.9444 50.1726 61.1296 51.2609C62.0718 48.5247 64.1916 42.9536 55.7885 40.4512Z" fill="#252525" stroke="#FCFCFC"/>
<path d="M57.9009 30.9879C56.9587 33.7242 54.0032 41.8196 62.7152 42.3528C63.9647 39.2927 66.7255 33.0462 57.9009 30.9879Z" fill="#252525" stroke="#FCFCFC"/>
<path d="M59.7079 22.3588C59.029 24.8175 56.8638 32.0802 65.049 33.1685C65.9912 30.4323 68.111 24.8612 59.7079 22.3588Z" fill="#252525" stroke="#FCFCFC"/>
<path d="M62.6091 13.4173C61.6668 16.1536 58.7113 24.249 67.4233 24.7821C68.6729 21.722 71.4337 15.4756 62.6091 13.4173Z" fill="#252525" stroke="#FCFCFC"/>
<path d="M64.4159 4.78813C63.7371 7.24685 61.5719 14.5096 69.757 15.5979C70.6993 12.8616 72.819 7.29056 64.4159 4.78813Z" fill="#252525" stroke="#FCFCFC"/>
<path d="M60 53L55.4568 69.0791" stroke="#252525" stroke-width="2"/>
<path d="M0 70.6436L64.1331 70.6436" stroke="#252525" stroke-width="3"/>
<path d="M2.10272 68.5409C11.7572 44.4984 37.0487 11.5835 60.979 68.5409L2.10272 68.5409Z" fill="#FCFCFC" stroke="#252525" stroke-width="2"/>
<path d="M24.6204 55.2177H27.2241V58.0334H24.6204V55.2177Z" fill="#252525"/>
<path d="M14.2054 58.0334H16.8091V60.8492H14.2054V58.0334Z" fill="#252525"/>
<path d="M31.443 45.0242H34.0467V47.8399H31.443V45.0242Z" fill="#252525"/>
<path d="M35.8924 56.786H38.4961V59.6017H35.8924V56.786Z" fill="#252525"/>
<path d="M46.3074 61.0096H48.9111V63.8253H46.3074V61.0096Z" fill="#252525"/>
</g>
</svg>
