<svg width="37" height="31" viewBox="0 0 37 31" xmlns="http://www.w3.org/2000/svg">
<path fill-rule="evenodd" clip-rule="evenodd" d="M23.6407 5.15694C23.6609 5.13982 23.6597 5.14292 23.6384 5.15883C23.6392 5.15817 23.64 5.15754 23.6407 5.15694ZM20.1642 3.28824C20.1643 3.28811 20.164 3.29238 20.1631 3.30146C20.1636 3.2929 20.164 3.28837 20.1642 3.28824ZM17.5436 11.7316C16.4551 12.8726 15.3446 14.0011 14.205 15.0981C12.6243 16.6195 10.9695 18.0253 9.36616 19.3737C9.21112 19.5041 9.05665 19.6339 8.90276 19.7631C7.44681 20.9863 6.04246 22.1662 4.69422 23.4087C3.6789 24.3444 2.09731 24.2798 1.16162 23.2645C0.225941 22.2492 0.290496 20.6676 1.30581 19.7319C2.74359 18.4069 4.23717 17.1523 5.67985 15.9404C5.83655 15.8088 5.99265 15.6777 6.14802 15.547C7.75227 14.1979 9.29072 12.8884 10.7375 11.4957C13.2996 9.02965 15.6972 6.40748 18.1548 3.71973C18.6614 3.16576 19.1705 2.60901 19.6841 2.05026C19.9214 1.79205 20.1657 1.54729 20.4135 1.33789C20.6294 1.15537 20.9953 0.871474 21.4741 0.688295C21.9632 0.501137 23.076 0.256528 24.1045 1.05705C24.9551 1.71919 25.0993 2.63456 25.1346 2.91184C25.217 3.55921 25.0855 4.22377 25.0211 4.53836C24.9365 4.95175 24.8193 5.40099 24.723 5.76861C23.9823 8.59518 23.1234 11.5756 21.8197 14.4216C21.4758 15.1724 21.1143 15.9178 20.731 16.6549C21.1684 16.4464 21.5905 16.2409 22.0051 16.0275C23.3734 15.323 24.5084 14.6053 25.4257 13.688C25.5188 13.5949 25.6881 13.4331 25.9135 13.2817C26.0269 13.2056 26.2238 13.0847 26.4879 12.9881C26.7357 12.8975 27.2245 12.7611 27.8326 12.8742C28.5347 13.0049 29.108 13.415 29.4665 13.9465C29.7741 14.4025 29.8568 14.843 29.8844 15.0687C29.9379 15.5055 29.8659 15.8619 29.8428 15.9739C29.7437 16.4561 29.4998 17.0073 29.3629 17.3118C29.0124 18.0914 28.5118 19.0583 28.2506 19.5417C27.6425 20.6667 27.1256 21.7521 26.5805 22.8968C26.4106 23.2537 26.2378 23.6165 26.0588 23.9879C26.447 23.7791 26.8428 23.58 27.217 23.4207C27.4608 23.3169 27.6951 23.2182 27.9207 23.1232C29.6474 22.3958 30.8661 21.8824 31.9403 20.9424C32.9794 20.0332 34.5588 20.1385 35.468 21.1776C36.3772 22.2167 36.2719 23.7961 35.2328 24.7053C33.5044 26.2177 31.4886 27.0565 29.8327 27.7457C29.6064 27.8398 29.3868 27.9312 29.1756 28.0211C28.7064 28.2209 28.2454 28.486 27.6422 28.8329C27.3739 28.9872 27.0773 29.1578 26.7394 29.3459C25.8061 29.8656 24.5265 30.5313 23.1453 30.7523C22.6781 30.8271 22.0963 30.7994 21.514 30.5202C20.9385 30.2443 20.5668 29.8209 20.3437 29.4496C19.9538 28.8008 19.9067 28.1347 19.8951 27.8399C19.868 27.1521 19.9998 26.3997 20.116 25.8531C20.2437 25.2524 20.4083 24.6531 20.5502 24.1854C20.6622 23.8164 20.8323 23.2844 20.9878 22.9733C21.1754 22.5982 21.3682 22.2015 21.5657 21.7909C20.9671 22.0748 20.399 22.35 19.8486 22.64C19.2119 22.9754 18.5629 23.2891 17.9596 23.5806C17.8689 23.6244 17.7792 23.6678 17.6908 23.7106C16.9955 24.0473 16.3578 24.3618 15.7511 24.7004C15.7344 24.7097 15.7199 24.718 15.6738 24.7442C15.6357 24.7658 15.5848 24.7945 15.5285 24.8252C15.4272 24.8806 15.2561 24.9715 15.0627 25.0529C15.0597 25.0541 15.0559 25.0558 15.0513 25.0577C14.9465 25.1027 14.4286 25.325 13.7911 25.2968C13.4008 25.2795 12.5554 25.1446 11.9139 24.3615C11.2808 23.5885 11.3081 22.7448 11.3597 22.3708C11.479 21.5057 11.8715 20.871 12.1665 20.476C12.312 20.2813 12.4579 20.1138 12.5567 20.0018C12.5912 19.9626 12.6195 19.9307 12.6436 19.9035C12.7028 19.8367 12.7363 19.7988 12.7732 19.7543C14.5963 17.5496 16.027 15.0615 17.2739 12.3393C17.3661 12.1381 17.4559 11.9355 17.5436 11.7316ZM16.1674 23.4751C16.1674 23.4751 16.1681 23.4741 16.1695 23.4721C16.1682 23.4741 16.1675 23.4751 16.1674 23.4751Z"/>
</svg>
