<svg width="31" height="31" viewBox="0 0 31 31" fill="none" xmlns="http://www.w3.org/2000/svg">
<mask id="path-1-outside-1" maskUnits="userSpaceOnUse" x="0.264801" y="0.264893" width="31" height="31" fill="black">
<rect fill="white" x="0.264801" y="0.264893" width="31" height="31"/>
<path fill-rule="evenodd" clip-rule="evenodd" d="M27.9683 5.56691L25.6663 3.26489L15.6165 13.3146L5.59853 3.29666L3.29651 5.59867L13.3145 15.6167L3.2648 25.6663L5.56682 27.9684L15.6165 17.9187L25.698 28.0001L28 25.6981L17.9185 15.6167L27.9683 5.56691Z"/>
</mask>
<path fill-rule="evenodd" clip-rule="evenodd" d="M27.9683 5.56691L25.6663 3.26489L15.6165 13.3146L5.59853 3.29666L3.29651 5.59867L13.3145 15.6167L3.2648 25.6663L5.56682 27.9684L15.6165 17.9187L25.698 28.0001L28 25.6981L17.9185 15.6167L27.9683 5.56691Z" fill="#F2F2F2"/>
<path d="M25.6663 3.26489L27.0805 1.85068L25.6663 0.436466L24.252 1.85068L25.6663 3.26489ZM27.9683 5.56691L29.3825 6.98112L30.7967 5.56691L29.3825 4.1527L27.9683 5.56691ZM15.6165 13.3146L14.2023 14.7288L15.6165 16.1431L17.0307 14.7288L15.6165 13.3146ZM5.59853 3.29666L7.01274 1.88244L5.59853 0.46823L4.18432 1.88244L5.59853 3.29666ZM3.29651 5.59867L1.8823 4.18446L0.468086 5.59867L1.8823 7.01289L3.29651 5.59867ZM13.3145 15.6167L14.7287 17.0309L16.1429 15.6167L14.7287 14.2024L13.3145 15.6167ZM3.2648 25.6663L1.85059 24.2521L0.436373 25.6663L1.85059 27.0806L3.2648 25.6663ZM5.56682 27.9684L4.15261 29.3826L5.56682 30.7968L6.98103 29.3826L5.56682 27.9684ZM15.6165 17.9187L17.0307 16.5045L15.6165 15.0902L14.2023 16.5045L15.6165 17.9187ZM25.698 28.0001L24.2838 29.4143L25.698 30.8286L27.1122 29.4143L25.698 28.0001ZM28 25.6981L29.4142 27.1123L30.8284 25.6981L29.4142 24.2839L28 25.6981ZM17.9185 15.6167L16.5043 14.2024L15.0901 15.6167L16.5043 17.0309L17.9185 15.6167ZM24.252 4.67911L26.5541 6.98112L29.3825 4.1527L27.0805 1.85068L24.252 4.67911ZM17.0307 14.7288L27.0805 4.67911L24.252 1.85068L14.2023 11.9004L17.0307 14.7288ZM4.18432 4.71087L14.2023 14.7288L17.0307 11.9004L7.01274 1.88244L4.18432 4.71087ZM4.71073 7.01289L7.01274 4.71087L4.18432 1.88244L1.8823 4.18446L4.71073 7.01289ZM14.7287 14.2024L4.71073 4.18446L1.8823 7.01289L11.9003 17.0309L14.7287 14.2024ZM4.67901 27.0806L14.7287 17.0309L11.9003 14.2024L1.85059 24.2521L4.67901 27.0806ZM6.98103 26.5541L4.67901 24.2521L1.85059 27.0806L4.15261 29.3826L6.98103 26.5541ZM14.2023 16.5045L4.15261 26.5541L6.98103 29.3826L17.0307 19.3329L14.2023 16.5045ZM27.1122 26.5859L17.0307 16.5045L14.2023 19.3329L24.2838 29.4143L27.1122 26.5859ZM26.5858 24.2839L24.2838 26.5859L27.1122 29.4143L29.4142 27.1123L26.5858 24.2839ZM16.5043 17.0309L26.5858 27.1123L29.4142 24.2839L19.3327 14.2024L16.5043 17.0309ZM26.5541 4.1527L16.5043 14.2024L19.3327 17.0309L29.3825 6.98112L26.5541 4.1527Z" fill="#333333" mask="url(#path-1-outside-1)"/>
</svg>
