<svg width="45" height="44" viewBox="0 0 45 44" fill="none" xmlns="http://www.w3.org/2000/svg">
<path d="M38.421 21.938C43.6175 15.6254 45.6841 4.10812 42.4561 3.29767C35.7668 1.61825 27.1265 7.37867 23.0877 12.2126C18.3443 17.8898 17.5879 26.0845 16.883 30.9235C16.7774 31.6483 17.4454 32.2628 18.1518 32.0694C26.2468 29.8527 34.6636 26.5024 38.421 21.938Z" fill="black" stroke="black" stroke-width="2"/>
<path d="M10.0716 29.0128C7.24871 29.2339 5.34475 30.9132 4.10913 31.9341C4.0559 31.9781 4.06176 32.0613 4.12113 32.0965C6.21986 33.343 8.93345 34.3724 11.0445 34.1591C13.7379 33.8869 15.7335 32.0924 17.0774 31.1961C17.1387 31.1553 17.1377 31.0644 17.0746 31.0264C14.8127 29.6653 12.0892 28.8547 10.0716 29.0128Z" fill="black" stroke="black" stroke-width="2"/>
<path d="M11.515 36.2903C9.7192 38.4795 9.61159 41.0159 9.49202 42.6143C9.48687 42.6831 9.55093 42.7365 9.61748 42.7181C11.9703 42.0679 14.5923 40.8237 15.9008 39.1533C17.5701 37.0222 17.6581 34.3398 17.9425 32.7498C17.9555 32.6773 17.8893 32.615 17.8182 32.6342C15.2698 33.3228 12.7986 34.7257 11.515 36.2903Z" fill="black" stroke="black" stroke-width="2"/>
<path d="M40.2995 20.0144L35.4495 24.9422C35.4078 24.9846 35.412 25.0537 35.4586 25.0907L40.4901 29.0827C40.5163 29.1035 40.5293 29.1361 40.53 29.1696C40.5353 29.3938 40.7624 29.1267 41.6688 26.4602C42.6123 23.6848 41.287 21.0683 40.4456 20.0205C40.4088 19.9746 40.3407 19.9725 40.2995 20.0144Z" fill="black" stroke="black" stroke-width="2"/>
<path d="M15.0809 10.6049L20.9672 14.6879C21.0108 14.7181 21.0704 14.709 21.103 14.6672L25.0114 9.6549C25.0302 9.63077 25.0594 9.61718 25.09 9.61492C25.3541 9.59537 25.0715 9.41069 22.0141 8.78614C18.8881 8.14758 16.1533 9.57952 15.0742 10.4483C15.0231 10.4894 15.0271 10.5676 15.0809 10.6049Z" fill="black" stroke="black" stroke-width="2"/>
<path d="M28.2105 8.26315C28.8655 11.7508 32.7228 18.6669 41.3684 17.7368" stroke="black" stroke-width="2"/>
<path d="M37.6025 7.4418C35.6294 8.69514 37.2167 6.60619 37.5665 7.39312C37.8923 8.12609 37.5125 8.4316 36.7912 8.17194" stroke="black" stroke-linecap="round" stroke-linejoin="round"/>
<path d="M36.421 19.938C41.6175 13.6254 43.6841 2.10812 40.4561 1.29767C33.7668 -0.381751 25.1265 5.37867 21.0877 10.2126C16.3443 15.8898 15.5879 24.0845 14.883 28.9235C14.7774 29.6483 15.4454 30.2628 16.1518 30.0694C24.2468 27.8527 32.6636 24.5024 36.421 19.938Z" fill="#FCFCFC" stroke="black" stroke-width="2"/>
<path d="M8.07156 27.0128C5.24871 27.2339 3.34475 28.9132 2.10913 29.9341C2.0559 29.9781 2.06176 30.0613 2.12113 30.0965C4.21986 31.343 6.93345 32.3724 9.04454 32.1591C11.7379 31.8869 13.7335 30.0924 15.0774 29.1961C15.1387 29.1553 15.1377 29.0644 15.0746 29.0264C12.8127 27.6653 10.0892 26.8547 8.07156 27.0128Z" fill="#FCFCFC" stroke="black" stroke-width="2"/>
<path d="M9.51504 34.2903C7.7192 36.4795 7.61159 39.0159 7.49202 40.6143C7.48687 40.6831 7.55093 40.7365 7.61748 40.7181C9.97027 40.0679 12.5923 38.8237 13.9008 37.1533C15.5701 35.0222 15.6581 32.3398 15.9425 30.7498C15.9555 30.6773 15.8893 30.615 15.8182 30.6342C13.2698 31.3228 10.7986 32.7257 9.51504 34.2903Z" fill="#FCFCFC" stroke="black" stroke-width="2"/>
<path d="M38.2995 18.0144L33.4495 22.9422C33.4078 22.9846 33.412 23.0537 33.4586 23.0907L38.4901 27.0827C38.5163 27.1035 38.5293 27.1361 38.53 27.1696C38.5353 27.3938 38.7624 27.1267 39.6688 24.4602C40.6123 21.6848 39.287 19.0683 38.4456 18.0205C38.4088 17.9746 38.3407 17.9725 38.2995 18.0144Z" fill="#FCFCFC" stroke="black" stroke-width="2"/>
<path d="M13.0809 8.60492L18.9672 12.6879C19.0108 12.7181 19.0704 12.709 19.103 12.6672L23.0114 7.6549C23.0302 7.63077 23.0594 7.61718 23.09 7.61492C23.3541 7.59537 23.0715 7.41069 20.0141 6.78614C16.8881 6.14758 14.1533 7.57952 13.0742 8.44826C13.0231 8.48937 13.0271 8.56755 13.0809 8.60492Z" fill="#FCFCFC" stroke="black" stroke-width="2"/>
<path d="M26.2105 6.26315C26.8655 9.75079 30.7228 16.6669 39.3684 15.7368" stroke="black" stroke-width="2"/>
<path d="M35.6025 5.4418C33.6294 6.69514 35.2167 4.60619 35.5665 5.39312C35.8923 6.12609 35.5125 6.4316 34.7912 6.17194" stroke="black" stroke-linecap="round" stroke-linejoin="round"/>
</svg>
