<svg width="80" height="80" viewBox="0 0 80 80" fill="none" xmlns="http://www.w3.org/2000/svg">
<mask id="mask0" mask-type="alpha" maskUnits="userSpaceOnUse" x="0" y="0" width="80" height="80">
<rect width="80" height="80" fill="#C4C4C4"/>
</mask>
<g mask="url(#mask0)">
<path d="M63.0733 38.3008C71.3877 28.2007 74.6943 9.77299 69.5294 8.47628C58.8266 5.7892 45.0021 15.0059 38.5401 22.7401C30.6368 32.1992 29.6512 46.026 28.4726 53.6096C28.3601 54.3333 29.0238 54.9474 29.7313 54.7579C42.9581 51.215 56.9203 45.7754 63.0733 38.3008Z" fill="#252525" stroke="#252525" stroke-width="2"/>
<path d="M17.7145 49.6204C13.1472 49.9782 10.0834 52.7217 8.10842 54.3492C8.05513 54.3931 8.06157 54.4755 8.12083 54.511C11.4887 56.5249 15.869 58.1983 19.2712 57.8546C23.6346 57.4137 26.8535 54.4755 29.0041 53.0606C29.0657 53.0201 29.0639 52.9299 29.001 52.8916C25.366 50.6842 20.967 49.3657 17.7145 49.6204Z" fill="#FCFCFC" stroke="#252525" stroke-width="2"/>
<path d="M20.0238 61.2645C17.1182 64.8065 16.9748 68.9166 16.7805 71.4684C16.7753 71.5372 16.8392 71.5897 16.9058 71.5715C20.6912 70.5374 24.9323 68.5373 27.041 65.8453C29.7454 62.3928 29.8559 58.036 30.3251 55.5047C30.3385 55.4323 30.2722 55.3711 30.201 55.39C26.0911 56.4827 22.093 58.7422 20.0238 61.2645Z" fill="#FCFCFC" stroke="#252525" stroke-width="2"/>
<path d="M66.1252 35.1762L58.2723 43.1551C58.2306 43.1974 58.2348 43.2666 58.2814 43.3036L66.4093 49.7523C66.4354 49.773 66.449 49.806 66.4481 49.8394C66.437 50.251 66.7792 49.9219 68.2701 45.5363C69.7954 41.0491 67.6144 36.8216 66.2708 35.1809C66.2336 35.1354 66.1664 35.1343 66.1252 35.1762Z" fill="#FCFCFC" stroke="#252525" stroke-width="2"/>
<path d="M25.6656 20.1235L35.1941 26.733C35.2377 26.7632 35.2974 26.7541 35.33 26.7123L41.6361 18.6249C41.6549 18.6008 41.6838 18.5869 41.7144 18.5856C42.1845 18.5654 41.8236 18.2794 36.8225 17.2578C31.7601 16.2237 27.3389 18.5835 25.6569 19.9675C25.6063 20.0092 25.6117 20.0862 25.6656 20.1235Z" fill="#FCFCFC" stroke="#252525" stroke-width="2"/>
<path d="M47 16C47.9956 21.4729 53.8586 32.3257 67 30.8663" stroke="white" stroke-width="2"/>
<path d="M61.7641 15.1069C58.6072 17.1123 61.1468 13.7699 61.7064 15.029C62.2277 16.2018 61.6201 16.6906 60.4659 16.2751" stroke="white" stroke-linecap="round" stroke-linejoin="round"/>
</g>
</svg>
