<svg width="80" height="80" viewBox="0 0 80 80" fill="none" xmlns="http://www.w3.org/2000/svg">
<mask id="mask0" mask-type="alpha" maskUnits="userSpaceOnUse" x="0" y="0" width="80" height="80">
<rect width="80" height="80" fill="#C4C4C4"/>
</mask>
<g mask="url(#mask0)">
<path d="M38.1417 58.3852C46.168 61.3098 52.431 59.6038 54.5593 58.3852C82.2868 66.4278 79.1856 29.8703 67.3284 22.7418C62.768 20 60.9438 20 60.0317 20C52.735 20 51.823 21.8278 50.9109 22.7418C45.8032 19.8172 42.094 20 39.9658 20.9139C20.8119 27.3115 28.1087 54.7295 38.1417 58.3852Z" fill="#252525" stroke="#252525" stroke-width="2"/>
<path d="M50.3838 12.2678C49.5139 13.0464 50.3838 19.0803 50.9274 22L52.0148 13.241C51.8335 12.5922 51.2536 11.4892 50.3838 12.2678Z" fill="#252525" stroke="#252525"/>
<mask id="path-4-inside-1" fill="white">
<path d="M52.8119 60.8119C53.593 61.593 53.597 62.8647 52.7676 63.5941C50.1971 65.8547 47.2688 67.6802 44.0979 68.9936C40.3102 70.5626 36.2505 71.3701 32.1508 71.3701C28.051 71.3701 23.9913 70.5626 20.2036 68.9936C16.4159 67.4247 12.9744 65.1251 10.0754 62.2261C7.17639 59.3272 4.8768 55.8856 3.30788 52.0979C1.73896 48.3102 0.931452 44.2505 0.931452 40.1508C0.931453 36.051 1.73896 31.9914 3.30788 28.2037C4.62131 25.0327 6.44683 22.1044 8.7074 19.5339C9.43684 18.7045 10.7085 18.7085 11.4896 19.4896L32.1508 40.1508L52.8119 60.8119Z"/>
</mask>
<path d="M52.8119 60.8119C53.593 61.593 53.597 62.8647 52.7676 63.5941C50.1971 65.8547 47.2688 67.6802 44.0979 68.9936C40.3102 70.5626 36.2505 71.3701 32.1508 71.3701C28.051 71.3701 23.9913 70.5626 20.2036 68.9936C16.4159 67.4247 12.9744 65.1251 10.0754 62.2261C7.17639 59.3272 4.8768 55.8856 3.30788 52.0979C1.73896 48.3102 0.931452 44.2505 0.931452 40.1508C0.931453 36.051 1.73896 31.9914 3.30788 28.2037C4.62131 25.0327 6.44683 22.1044 8.7074 19.5339C9.43684 18.7045 10.7085 18.7085 11.4896 19.4896L32.1508 40.1508L52.8119 60.8119Z" fill="#FCFCFC" stroke="#252525" stroke-width="4" mask="url(#path-4-inside-1)"/>
<path d="M31.0148 40.7885L3.01477 39M31.0148 40.7885L7.8681 59.9706M31.0148 40.7885V70" stroke="#252525" stroke-width="2"/>
</g>
</svg>
