<svg width="933" height="866" viewBox="0 0 933 866" fill="none" xmlns="http://www.w3.org/2000/svg">
<circle cx="849.808" cy="466.125" r="7.7553" transform="rotate(-135 849.808 466.125)" fill="#C4C4C4"/>
<circle cx="822.389" cy="438.706" r="7.7553" transform="rotate(-135 822.389 438.706)" fill="#C4C4C4"/>
<circle cx="822.389" cy="493.544" r="7.7553" transform="rotate(-135 822.389 493.544)" fill="#C4C4C4"/>
<circle cx="794.97" cy="466.125" r="7.7553" transform="rotate(-135 794.97 466.125)" fill="#C4C4C4"/>
<circle cx="794.971" cy="520.962" r="7.7553" transform="rotate(-135 794.971 520.962)" fill="#C4C4C4"/>
<circle cx="767.552" cy="493.543" r="7.7553" transform="rotate(-135 767.552 493.543)" fill="#C4C4C4"/>
<circle cx="767.552" cy="548.381" r="7.7553" transform="rotate(-135 767.552 548.381)" fill="#C4C4C4"/>
<circle cx="740.133" cy="520.962" r="7.7553" transform="rotate(-135 740.133 520.962)" fill="#C4C4C4"/>
<circle cx="740.133" cy="575.8" r="7.7553" transform="rotate(-135 740.133 575.8)" fill="#C4C4C4"/>
<circle cx="712.714" cy="548.381" r="7.7553" transform="rotate(-135 712.714 548.381)" fill="#C4C4C4"/>
<circle cx="712.714" cy="603.219" r="7.7553" transform="rotate(-135 712.714 603.219)" fill="#C4C4C4"/>
<circle cx="685.295" cy="630.639" r="7.7553" transform="rotate(-135 685.295 630.639)" fill="#C4C4C4"/>
<circle cx="685.295" cy="575.8" r="7.7553" transform="rotate(-135 685.295 575.8)" fill="#C4C4C4"/>
<circle cx="778.518" cy="394.836" r="7.7553" transform="rotate(-135 778.518 394.836)" fill="#C4C4C4"/>
<circle cx="751.099" cy="367.416" r="7.7553" transform="rotate(-135 751.099 367.416)" fill="#C4C4C4"/>
<circle cx="751.1" cy="422.254" r="7.7553" transform="rotate(-135 751.1 422.254)" fill="#C4C4C4"/>
<circle cx="723.68" cy="394.835" r="7.7553" transform="rotate(-135 723.68 394.835)" fill="#C4C4C4"/>
<circle cx="723.681" cy="449.672" r="7.7553" transform="rotate(-135 723.681 449.672)" fill="#C4C4C4"/>
<circle cx="696.262" cy="422.253" r="7.7553" transform="rotate(-135 696.262 422.253)" fill="#C4C4C4"/>
<circle cx="696.262" cy="477.092" r="7.7553" transform="rotate(-135 696.262 477.092)" fill="#C4C4C4"/>
<circle cx="668.843" cy="449.672" r="7.7553" transform="rotate(-135 668.843 449.672)" fill="#C4C4C4"/>
<circle cx="668.843" cy="504.511" r="7.7553" transform="rotate(-135 668.843 504.511)" fill="#C4C4C4"/>
<circle cx="641.424" cy="477.091" r="7.7553" transform="rotate(-135 641.424 477.091)" fill="#C4C4C4"/>
<circle cx="641.424" cy="531.93" r="7.7553" transform="rotate(-135 641.424 531.93)" fill="#C4C4C4"/>
<circle cx="614.005" cy="559.349" r="7.7553" transform="rotate(-135 614.005 559.349)" fill="#C4C4C4"/>
<circle cx="614.005" cy="504.51" r="7.7553" transform="rotate(-135 614.005 504.51)" fill="#C4C4C4"/>
<circle cx="586.586" cy="586.768" r="7.7553" transform="rotate(-135 586.586 586.768)" fill="#C4C4C4"/>
<circle cx="559.167" cy="559.349" r="7.7553" transform="rotate(-135 559.167 559.349)" fill="#C4C4C4"/>
<circle cx="586.586" cy="531.93" r="7.7553" transform="rotate(-135 586.586 531.93)" fill="#C4C4C4"/>
<circle cx="559.166" cy="614.188" r="7.7553" transform="rotate(-135 559.166 614.188)" fill="#C4C4C4"/>
<circle cx="531.747" cy="586.769" r="7.7553" transform="rotate(-135 531.747 586.769)" fill="#C4C4C4"/>
<circle cx="531.747" cy="641.607" r="7.7553" transform="rotate(-135 531.747 641.607)" fill="#C4C4C4"/>
<circle cx="504.328" cy="614.188" r="7.7553" transform="rotate(-135 504.328 614.188)" fill="#C4C4C4"/>
<circle cx="504.328" cy="669.026" r="7.7553" transform="rotate(-135 504.328 669.026)" fill="#C4C4C4"/>
<circle cx="476.909" cy="641.607" r="7.7553" transform="rotate(-135 476.909 641.607)" fill="#C4C4C4"/>
<circle cx="707.228" cy="323.546" r="7.7553" transform="rotate(-135 707.228 323.546)" fill="#C4C4C4"/>
<circle cx="679.809" cy="296.127" r="7.7553" transform="rotate(-135 679.809 296.127)" fill="#C4C4C4"/>
<circle cx="679.81" cy="350.964" r="7.7553" transform="rotate(-135 679.81 350.964)" fill="#C4C4C4"/>
<circle cx="652.391" cy="323.545" r="7.7553" transform="rotate(-135 652.391 323.545)" fill="#C4C4C4"/>
<circle cx="652.392" cy="378.383" r="7.7553" transform="rotate(-135 652.392 378.383)" fill="#C4C4C4"/>
<circle cx="624.972" cy="350.964" r="7.7553" transform="rotate(-135 624.972 350.964)" fill="#C4C4C4"/>
<circle cx="624.972" cy="405.802" r="7.7553" transform="rotate(-135 624.972 405.802)" fill="#C4C4C4"/>
<circle cx="597.553" cy="378.383" r="7.7553" transform="rotate(-135 597.553 378.383)" fill="#C4C4C4"/>
<circle cx="597.554" cy="433.221" r="7.7553" transform="rotate(-135 597.554 433.221)" fill="#C4C4C4"/>
<circle cx="570.134" cy="405.802" r="7.7553" transform="rotate(-135 570.134 405.802)" fill="#C4C4C4"/>
<circle cx="570.134" cy="460.64" r="7.7553" transform="rotate(-135 570.134 460.64)" fill="#C4C4C4"/>
<circle cx="542.715" cy="488.059" r="7.7553" transform="rotate(-135 542.715 488.059)" fill="#C4C4C4"/>
<circle cx="542.715" cy="433.221" r="7.7553" transform="rotate(-135 542.715 433.221)" fill="#C4C4C4"/>
<circle cx="515.296" cy="515.479" r="7.7553" transform="rotate(-135 515.296 515.479)" fill="#C4C4C4"/>
<circle cx="487.877" cy="488.059" r="7.7553" transform="rotate(-135 487.877 488.059)" fill="#C4C4C4"/>
<circle cx="515.296" cy="460.64" r="7.7553" transform="rotate(-135 515.296 460.64)" fill="#C4C4C4"/>
<circle cx="487.876" cy="542.898" r="7.7553" transform="rotate(-135 487.876 542.898)" fill="#C4C4C4"/>
<circle cx="460.457" cy="515.479" r="7.7553" transform="rotate(-135 460.457 515.479)" fill="#C4C4C4"/>
<circle cx="460.457" cy="570.317" r="7.7553" transform="rotate(-135 460.457 570.317)" fill="#C4C4C4"/>
<circle cx="433.038" cy="542.898" r="7.7553" transform="rotate(-135 433.038 542.898)" fill="#C4C4C4"/>
<circle cx="433.038" cy="597.736" r="7.7553" transform="rotate(-135 433.038 597.736)" fill="#C4C4C4"/>
<circle cx="405.619" cy="570.317" r="7.7553" transform="rotate(-135 405.619 570.317)" fill="#C4C4C4"/>
<circle cx="405.619" cy="625.156" r="7.7553" transform="rotate(-135 405.619 625.156)" fill="#C4C4C4"/>
<circle cx="378.2" cy="597.736" r="7.7553" transform="rotate(-135 378.2 597.736)" fill="#C4C4C4"/>
<circle cx="378.616" cy="652.623" r="7.7553" transform="rotate(-135 378.616 652.623)" fill="#C4C4C4"/>
<circle cx="351.197" cy="625.203" r="7.7553" transform="rotate(-135 351.197 625.203)" fill="#C4C4C4"/>
<circle cx="351.197" cy="680.042" r="7.7553" transform="rotate(-135 351.197 680.042)" fill="#C4C4C4"/>
<circle cx="323.778" cy="652.623" r="7.7553" transform="rotate(-135 323.778 652.623)" fill="#C4C4C4"/>
<circle cx="296.359" cy="680.042" r="7.7553" transform="rotate(-135 296.359 680.042)" fill="#C4C4C4"/>
<circle cx="476.861" cy="696.214" r="7.7553" transform="rotate(-135 476.861 696.214)" fill="#C4C4C4"/>
<circle cx="449.441" cy="668.795" r="7.7553" transform="rotate(-135 449.441 668.795)" fill="#C4C4C4"/>
<circle cx="449.441" cy="723.634" r="7.7553" transform="rotate(-135 449.441 723.634)" fill="#C4C4C4"/>
<circle cx="422.022" cy="696.214" r="7.7553" transform="rotate(-135 422.022 696.214)" fill="#C4C4C4"/>
<circle cx="422.022" cy="751.053" r="7.7553" transform="rotate(-135 422.022 751.053)" fill="#C4C4C4"/>
<circle cx="394.603" cy="723.633" r="7.7553" transform="rotate(-135 394.603 723.633)" fill="#C4C4C4"/>
<circle cx="635.939" cy="252.256" r="7.7553" transform="rotate(-135 635.939 252.256)" fill="#C4C4C4"/>
<circle cx="608.52" cy="224.837" r="7.7553" transform="rotate(-135 608.52 224.837)" fill="#C4C4C4"/>
<circle cx="608.52" cy="279.675" r="7.7553" transform="rotate(-135 608.52 279.675)" fill="#C4C4C4"/>
<circle cx="581.101" cy="252.256" r="7.7553" transform="rotate(-135 581.101 252.256)" fill="#C4C4C4"/>
<circle cx="581.102" cy="307.093" r="7.7553" transform="rotate(-135 581.102 307.093)" fill="#C4C4C4"/>
<circle cx="553.683" cy="279.674" r="7.7553" transform="rotate(-135 553.683 279.674)" fill="#C4C4C4"/>
<circle cx="553.683" cy="334.512" r="7.7553" transform="rotate(-135 553.683 334.512)" fill="#C4C4C4"/>
<circle cx="526.264" cy="307.093" r="7.7553" transform="rotate(-135 526.264 307.093)" fill="#C4C4C4"/>
<circle cx="526.264" cy="361.931" r="7.7553" transform="rotate(-135 526.264 361.931)" fill="#C4C4C4"/>
<circle cx="498.845" cy="334.512" r="7.7553" transform="rotate(-135 498.845 334.512)" fill="#C4C4C4"/>
<circle cx="498.845" cy="389.35" r="7.7553" transform="rotate(-135 498.845 389.35)" fill="#C4C4C4"/>
<circle cx="471.426" cy="416.769" r="7.7553" transform="rotate(-135 471.426 416.769)" fill="#C4C4C4"/>
<circle cx="471.426" cy="361.931" r="7.7553" transform="rotate(-135 471.426 361.931)" fill="#C4C4C4"/>
<circle cx="444.006" cy="444.189" r="7.7553" transform="rotate(-135 444.006 444.189)" fill="#C4C4C4"/>
<circle cx="416.587" cy="416.77" r="7.7553" transform="rotate(-135 416.587 416.77)" fill="#C4C4C4"/>
<circle cx="444.006" cy="389.35" r="7.7553" transform="rotate(-135 444.006 389.35)" fill="#C4C4C4"/>
<circle cx="416.587" cy="471.608" r="7.7553" transform="rotate(-135 416.587 471.608)" fill="#C4C4C4"/>
<circle cx="389.167" cy="444.189" r="7.7553" transform="rotate(-135 389.167 444.189)" fill="#C4C4C4"/>
<circle cx="389.167" cy="499.027" r="7.7553" transform="rotate(-135 389.167 499.027)" fill="#C4C4C4"/>
<circle cx="361.748" cy="471.608" r="7.7553" transform="rotate(-135 361.748 471.608)" fill="#C4C4C4"/>
<circle cx="361.748" cy="526.447" r="7.7553" transform="rotate(-135 361.748 526.447)" fill="#C4C4C4"/>
<circle cx="566.294" cy="182.611" r="7.7553" transform="rotate(-135 566.294 182.611)" fill="#C4C4C4"/>
<circle cx="538.875" cy="155.192" r="7.7553" transform="rotate(-135 538.875 155.192)" fill="#C4C4C4"/>
<circle cx="538.875" cy="210.03" r="7.7553" transform="rotate(-135 538.875 210.03)" fill="#C4C4C4"/>
<circle cx="511.456" cy="182.611" r="7.7553" transform="rotate(-135 511.456 182.611)" fill="#C4C4C4"/>
<circle cx="511.457" cy="237.448" r="7.7553" transform="rotate(-135 511.457 237.448)" fill="#C4C4C4"/>
<circle cx="484.038" cy="210.029" r="7.7553" transform="rotate(-135 484.038 210.029)" fill="#C4C4C4"/>
<circle cx="484.038" cy="264.867" r="7.7553" transform="rotate(-135 484.038 264.867)" fill="#C4C4C4"/>
<circle cx="456.619" cy="237.448" r="7.7553" transform="rotate(-135 456.619 237.448)" fill="#C4C4C4"/>
<circle cx="456.619" cy="292.286" r="7.7553" transform="rotate(-135 456.619 292.286)" fill="#C4C4C4"/>
<circle cx="429.2" cy="264.867" r="7.7553" transform="rotate(-135 429.2 264.867)" fill="#C4C4C4"/>
<circle cx="429.2" cy="319.706" r="7.7553" transform="rotate(-135 429.2 319.706)" fill="#C4C4C4"/>
<circle cx="401.781" cy="347.125" r="7.7553" transform="rotate(-135 401.781 347.125)" fill="#C4C4C4"/>
<circle cx="401.781" cy="292.286" r="7.7553" transform="rotate(-135 401.781 292.286)" fill="#C4C4C4"/>
<circle cx="374.362" cy="374.544" r="7.7553" transform="rotate(-135 374.362 374.544)" fill="#C4C4C4"/>
<circle cx="346.942" cy="347.125" r="7.7553" transform="rotate(-135 346.942 347.125)" fill="#C4C4C4"/>
<circle cx="374.362" cy="319.706" r="7.7553" transform="rotate(-135 374.362 319.706)" fill="#C4C4C4"/>
<circle cx="346.942" cy="401.964" r="7.7553" transform="rotate(-135 346.942 401.964)" fill="#C4C4C4"/>
<circle cx="493.359" cy="109.677" r="7.7553" transform="rotate(-135 493.359 109.677)" fill="#C4C4C4"/>
<circle cx="465.94" cy="82.2574" r="7.7553" transform="rotate(-135 465.94 82.2574)" fill="#C4C4C4"/>
<circle cx="465.941" cy="137.095" r="7.7553" transform="rotate(-135 465.941 137.095)" fill="#C4C4C4"/>
<circle cx="438.522" cy="109.676" r="7.7553" transform="rotate(-135 438.522 109.676)" fill="#C4C4C4"/>
<circle cx="438.522" cy="164.514" r="7.7553" transform="rotate(-135 438.522 164.514)" fill="#C4C4C4"/>
<circle cx="411.103" cy="137.094" r="7.7553" transform="rotate(-135 411.103 137.094)" fill="#C4C4C4"/>
<circle cx="411.103" cy="191.933" r="7.7553" transform="rotate(-135 411.103 191.933)" fill="#C4C4C4"/>
<circle cx="383.684" cy="164.513" r="7.7553" transform="rotate(-135 383.684 164.513)" fill="#C4C4C4"/>
<circle cx="383.684" cy="219.352" r="7.7553" transform="rotate(-135 383.684 219.352)" fill="#C4C4C4"/>
<circle cx="356.265" cy="191.932" r="7.7553" transform="rotate(-135 356.265 191.932)" fill="#C4C4C4"/>
<circle cx="356.265" cy="246.771" r="7.7553" transform="rotate(-135 356.265 246.771)" fill="#C4C4C4"/>
<circle cx="328.846" cy="274.19" r="7.7553" transform="rotate(-135 328.846 274.19)" fill="#C4C4C4"/>
<circle cx="328.846" cy="219.352" r="7.7553" transform="rotate(-135 328.846 219.352)" fill="#C4C4C4"/>
<circle cx="301.427" cy="301.609" r="7.7553" transform="rotate(-135 301.427 301.609)" fill="#C4C4C4"/>
<circle cx="274.007" cy="274.19" r="7.7553" transform="rotate(-135 274.007 274.19)" fill="#C4C4C4"/>
<circle cx="301.427" cy="246.771" r="7.7553" transform="rotate(-135 301.427 246.771)" fill="#C4C4C4"/>
<circle cx="274.007" cy="329.029" r="7.7553" transform="rotate(-135 274.007 329.029)" fill="#C4C4C4"/>
<circle cx="246.588" cy="301.61" r="7.7553" transform="rotate(-135 246.588 301.61)" fill="#C4C4C4"/>
<circle cx="246.588" cy="356.448" r="7.7553" transform="rotate(-135 246.588 356.448)" fill="#C4C4C4"/>
<circle cx="219.169" cy="329.029" r="7.7553" transform="rotate(-135 219.169 329.029)" fill="#C4C4C4"/>
<circle cx="191.75" cy="356.448" r="7.7553" transform="rotate(-135 191.75 356.448)" fill="#C4C4C4"/>
<circle cx="422.069" cy="38.3868" r="7.7553" transform="rotate(-135 422.069 38.3868)" fill="#C4C4C4"/>
<circle cx="394.65" cy="10.9677" r="7.7553" transform="rotate(-135 394.65 10.9677)" fill="#C4C4C4"/>
<circle cx="394.651" cy="65.8054" r="7.7553" transform="rotate(-135 394.651 65.8054)" fill="#C4C4C4"/>
<circle cx="367.232" cy="38.3863" r="7.7553" transform="rotate(-135 367.232 38.3863)" fill="#C4C4C4"/>
<circle cx="367.232" cy="93.2238" r="7.7553" transform="rotate(-135 367.232 93.2238)" fill="#C4C4C4"/>
<circle cx="339.813" cy="65.8047" r="7.7553" transform="rotate(-135 339.813 65.8047)" fill="#C4C4C4"/>
<circle cx="339.814" cy="120.643" r="7.7553" transform="rotate(-135 339.814 120.643)" fill="#C4C4C4"/>
<circle cx="312.394" cy="93.2236" r="7.7553" transform="rotate(-135 312.394 93.2236)" fill="#C4C4C4"/>
<circle cx="312.395" cy="148.062" r="7.7553" transform="rotate(-135 312.395 148.062)" fill="#C4C4C4"/>
<circle cx="921.098" cy="537.415" r="7.7553" transform="rotate(-135 921.098 537.415)" fill="#C4C4C4"/>
<circle cx="893.679" cy="509.996" r="7.7553" transform="rotate(-135 893.679 509.996)" fill="#C4C4C4"/>
<circle cx="893.679" cy="564.834" r="7.7553" transform="rotate(-135 893.679 564.834)" fill="#C4C4C4"/>
<circle cx="866.26" cy="537.415" r="7.7553" transform="rotate(-135 866.26 537.415)" fill="#C4C4C4"/>
<circle cx="866.261" cy="592.252" r="7.7553" transform="rotate(-135 866.261 592.252)" fill="#C4C4C4"/>
<circle cx="838.842" cy="564.833" r="7.7553" transform="rotate(-135 838.842 564.833)" fill="#C4C4C4"/>
<circle cx="838.842" cy="619.671" r="7.7553" transform="rotate(-135 838.842 619.671)" fill="#C4C4C4"/>
<circle cx="811.423" cy="592.252" r="7.7553" transform="rotate(-135 811.423 592.252)" fill="#C4C4C4"/>
<circle cx="811.423" cy="647.09" r="7.7553" transform="rotate(-135 811.423 647.09)" fill="#C4C4C4"/>
<circle cx="784.004" cy="619.671" r="7.7553" transform="rotate(-135 784.004 619.671)" fill="#C4C4C4"/>
<circle cx="784.004" cy="674.509" r="7.7553" transform="rotate(-135 784.004 674.509)" fill="#C4C4C4"/>
<circle cx="756.585" cy="701.928" r="7.7553" transform="rotate(-135 756.585 701.928)" fill="#C4C4C4"/>
<circle cx="756.585" cy="647.09" r="7.7553" transform="rotate(-135 756.585 647.09)" fill="#C4C4C4"/>
<circle cx="729.165" cy="729.348" r="7.7553" transform="rotate(-135 729.165 729.348)" fill="#C4C4C4"/>
<circle cx="701.746" cy="701.929" r="7.7553" transform="rotate(-135 701.746 701.929)" fill="#C4C4C4"/>
<circle cx="729.165" cy="674.509" r="7.7553" transform="rotate(-135 729.165 674.509)" fill="#C4C4C4"/>
<circle cx="701.746" cy="756.767" r="7.7553" transform="rotate(-135 701.746 756.767)" fill="#C4C4C4"/>
</svg>
