<svg width="936" height="892" viewBox="0 0 936 892" fill="none" xmlns="http://www.w3.org/2000/svg">
<circle cx="84.049" cy="436.756" r="7.7553" transform="rotate(43.5385 84.049 436.756)" fill="#C4C4C4"/>
<circle cx="112.159" cy="463.467" r="7.7553" transform="rotate(43.5385 112.159 463.467)" fill="#C4C4C4"/>
<circle cx="110.759" cy="408.647" r="7.7553" transform="rotate(43.5385 110.759 408.647)" fill="#C4C4C4"/>
<circle cx="138.869" cy="435.358" r="7.7553" transform="rotate(43.5385 138.869 435.358)" fill="#C4C4C4"/>
<circle cx="137.469" cy="380.538" r="7.7553" transform="rotate(43.5385 137.469 380.538)" fill="#C4C4C4"/>
<circle cx="165.579" cy="407.249" r="7.7553" transform="rotate(43.5385 165.579 407.249)" fill="#C4C4C4"/>
<circle cx="164.18" cy="352.429" r="7.7553" transform="rotate(43.5385 164.18 352.429)" fill="#C4C4C4"/>
<circle cx="192.29" cy="379.14" r="7.7553" transform="rotate(43.5385 192.29 379.14)" fill="#C4C4C4"/>
<circle cx="190.891" cy="324.32" r="7.7553" transform="rotate(43.5385 190.891 324.32)" fill="#C4C4C4"/>
<circle cx="219.001" cy="351.031" r="7.7553" transform="rotate(43.5385 219.001 351.031)" fill="#C4C4C4"/>
<circle cx="217.602" cy="296.21" r="7.7553" transform="rotate(43.5385 217.602 296.21)" fill="#C4C4C4"/>
<circle cx="244.313" cy="268.101" r="7.7553" transform="rotate(43.5385 244.313 268.101)" fill="#C4C4C4"/>
<circle cx="245.711" cy="322.921" r="7.7553" transform="rotate(43.5385 245.711 322.921)" fill="#C4C4C4"/>
<circle cx="157.134" cy="506.205" r="7.7553" transform="rotate(43.5385 157.134 506.205)" fill="#C4C4C4"/>
<circle cx="185.243" cy="532.915" r="7.7553" transform="rotate(43.5385 185.243 532.915)" fill="#C4C4C4"/>
<circle cx="183.844" cy="478.095" r="7.7553" transform="rotate(43.5385 183.844 478.095)" fill="#C4C4C4"/>
<circle cx="211.954" cy="504.806" r="7.7553" transform="rotate(43.5385 211.954 504.806)" fill="#C4C4C4"/>
<circle cx="210.554" cy="449.987" r="7.7553" transform="rotate(43.5385 210.554 449.987)" fill="#C4C4C4"/>
<circle cx="238.664" cy="476.698" r="7.7553" transform="rotate(43.5385 238.664 476.698)" fill="#C4C4C4"/>
<circle cx="237.265" cy="421.877" r="7.7553" transform="rotate(43.5385 237.265 421.877)" fill="#C4C4C4"/>
<circle cx="265.375" cy="448.588" r="7.7553" transform="rotate(43.5385 265.375 448.588)" fill="#C4C4C4"/>
<circle cx="263.976" cy="393.768" r="7.7553" transform="rotate(43.5385 263.976 393.768)" fill="#C4C4C4"/>
<circle cx="292.085" cy="420.479" r="7.7553" transform="rotate(43.5385 292.085 420.479)" fill="#C4C4C4"/>
<circle cx="290.687" cy="365.658" r="7.7553" transform="rotate(43.5385 290.687 365.658)" fill="#C4C4C4"/>
<circle cx="317.398" cy="337.549" r="7.7553" transform="rotate(43.5385 317.398 337.549)" fill="#C4C4C4"/>
<circle cx="318.796" cy="392.369" r="7.7553" transform="rotate(43.5385 318.796 392.369)" fill="#C4C4C4"/>
<circle cx="344.109" cy="309.439" r="7.7553" transform="rotate(43.5385 344.109 309.439)" fill="#C4C4C4"/>
<circle cx="372.218" cy="336.15" r="7.7553" transform="rotate(43.5385 372.218 336.15)" fill="#C4C4C4"/>
<circle cx="345.507" cy="364.26" r="7.7553" transform="rotate(43.5385 345.507 364.26)" fill="#C4C4C4"/>
<circle cx="370.82" cy="281.329" r="7.7553" transform="rotate(43.5385 370.82 281.329)" fill="#C4C4C4"/>
<circle cx="398.93" cy="308.04" r="7.7553" transform="rotate(43.5385 398.93 308.04)" fill="#C4C4C4"/>
<circle cx="397.531" cy="253.22" r="7.7553" transform="rotate(43.5385 397.531 253.22)" fill="#C4C4C4"/>
<circle cx="425.64" cy="279.93" r="7.7553" transform="rotate(43.5385 425.64 279.93)" fill="#C4C4C4"/>
<circle cx="424.242" cy="225.11" r="7.7553" transform="rotate(43.5385 424.242 225.11)" fill="#C4C4C4"/>
<circle cx="452.351" cy="251.821" r="7.7553" transform="rotate(43.5385 452.351 251.821)" fill="#C4C4C4"/>
<circle cx="230.219" cy="575.653" r="7.7553" transform="rotate(43.5385 230.219 575.653)" fill="#C4C4C4"/>
<circle cx="258.328" cy="602.364" r="7.7553" transform="rotate(43.5385 258.328 602.364)" fill="#C4C4C4"/>
<circle cx="256.929" cy="547.544" r="7.7553" transform="rotate(43.5385 256.929 547.544)" fill="#C4C4C4"/>
<circle cx="285.039" cy="574.255" r="7.7553" transform="rotate(43.5385 285.039 574.255)" fill="#C4C4C4"/>
<circle cx="283.639" cy="519.435" r="7.7553" transform="rotate(43.5385 283.639 519.435)" fill="#C4C4C4"/>
<circle cx="311.749" cy="546.146" r="7.7553" transform="rotate(43.5385 311.749 546.146)" fill="#C4C4C4"/>
<circle cx="310.35" cy="491.326" r="7.7553" transform="rotate(43.5385 310.35 491.326)" fill="#C4C4C4"/>
<circle cx="338.459" cy="518.037" r="7.7553" transform="rotate(43.5385 338.459 518.037)" fill="#C4C4C4"/>
<circle cx="337.061" cy="463.216" r="7.7553" transform="rotate(43.5385 337.061 463.216)" fill="#C4C4C4"/>
<circle cx="365.17" cy="489.927" r="7.7553" transform="rotate(43.5385 365.17 489.927)" fill="#C4C4C4"/>
<circle cx="363.771" cy="435.107" r="7.7553" transform="rotate(43.5385 363.771 435.107)" fill="#C4C4C4"/>
<circle cx="390.482" cy="406.997" r="7.7553" transform="rotate(43.5385 390.482 406.997)" fill="#C4C4C4"/>
<circle cx="391.881" cy="461.818" r="7.7553" transform="rotate(43.5385 391.881 461.818)" fill="#C4C4C4"/>
<circle cx="417.194" cy="378.887" r="7.7553" transform="rotate(43.5385 417.194 378.887)" fill="#C4C4C4"/>
<circle cx="445.303" cy="405.598" r="7.7553" transform="rotate(43.5385 445.303 405.598)" fill="#C4C4C4"/>
<circle cx="418.592" cy="433.708" r="7.7553" transform="rotate(43.5385 418.592 433.708)" fill="#C4C4C4"/>
<circle cx="443.905" cy="350.777" r="7.7553" transform="rotate(43.5385 443.905 350.777)" fill="#C4C4C4"/>
<circle cx="472.014" cy="377.488" r="7.7553" transform="rotate(43.5385 472.014 377.488)" fill="#C4C4C4"/>
<circle cx="470.616" cy="322.668" r="7.7553" transform="rotate(43.5385 470.616 322.668)" fill="#C4C4C4"/>
<circle cx="498.725" cy="349.379" r="7.7553" transform="rotate(43.5385 498.725 349.379)" fill="#C4C4C4"/>
<circle cx="497.327" cy="294.558" r="7.7553" transform="rotate(43.5385 497.327 294.558)" fill="#C4C4C4"/>
<circle cx="525.436" cy="321.269" r="7.7553" transform="rotate(43.5385 525.436 321.269)" fill="#C4C4C4"/>
<circle cx="524.037" cy="266.449" r="7.7553" transform="rotate(43.5385 524.037 266.449)" fill="#C4C4C4"/>
<circle cx="552.147" cy="293.16" r="7.7553" transform="rotate(43.5385 552.147 293.16)" fill="#C4C4C4"/>
<circle cx="550.331" cy="238.302" r="7.7553" transform="rotate(43.5385 550.331 238.302)" fill="#C4C4C4"/>
<circle cx="578.44" cy="265.013" r="7.7553" transform="rotate(43.5385 578.44 265.013)" fill="#C4C4C4"/>
<circle cx="577.042" cy="210.192" r="7.7553" transform="rotate(43.5385 577.042 210.192)" fill="#C4C4C4"/>
<circle cx="605.151" cy="236.903" r="7.7553" transform="rotate(43.5385 605.151 236.903)" fill="#C4C4C4"/>
<circle cx="631.862" cy="208.794" r="7.7553" transform="rotate(43.5385 631.862 208.794)" fill="#C4C4C4"/>
<circle cx="451.007" cy="197.23" r="7.7553" transform="rotate(43.5385 451.007 197.23)" fill="#C4C4C4"/>
<circle cx="479.116" cy="223.941" r="7.7553" transform="rotate(43.5385 479.116 223.941)" fill="#C4C4C4"/>
<circle cx="477.718" cy="169.12" r="7.7553" transform="rotate(43.5385 477.718 169.12)" fill="#C4C4C4"/>
<circle cx="505.827" cy="195.831" r="7.7553" transform="rotate(43.5385 505.827 195.831)" fill="#C4C4C4"/>
<circle cx="504.428" cy="141.011" r="7.7553" transform="rotate(43.5385 504.428 141.011)" fill="#C4C4C4"/>
<circle cx="532.538" cy="167.722" r="7.7553" transform="rotate(43.5385 532.538 167.722)" fill="#C4C4C4"/>
<circle cx="303.303" cy="645.101" r="7.7553" transform="rotate(43.5385 303.303 645.101)" fill="#C4C4C4"/>
<circle cx="331.413" cy="671.812" r="7.7553" transform="rotate(43.5385 331.413 671.812)" fill="#C4C4C4"/>
<circle cx="330.014" cy="616.992" r="7.7553" transform="rotate(43.5385 330.014 616.992)" fill="#C4C4C4"/>
<circle cx="358.123" cy="643.703" r="7.7553" transform="rotate(43.5385 358.123 643.703)" fill="#C4C4C4"/>
<circle cx="356.724" cy="588.883" r="7.7553" transform="rotate(43.5385 356.724 588.883)" fill="#C4C4C4"/>
<circle cx="384.833" cy="615.594" r="7.7553" transform="rotate(43.5385 384.833 615.594)" fill="#C4C4C4"/>
<circle cx="383.435" cy="560.774" r="7.7553" transform="rotate(43.5385 383.435 560.774)" fill="#C4C4C4"/>
<circle cx="411.544" cy="587.485" r="7.7553" transform="rotate(43.5385 411.544 587.485)" fill="#C4C4C4"/>
<circle cx="410.145" cy="532.665" r="7.7553" transform="rotate(43.5385 410.145 532.665)" fill="#C4C4C4"/>
<circle cx="438.255" cy="559.375" r="7.7553" transform="rotate(43.5385 438.255 559.375)" fill="#C4C4C4"/>
<circle cx="436.856" cy="504.555" r="7.7553" transform="rotate(43.5385 436.856 504.555)" fill="#C4C4C4"/>
<circle cx="463.567" cy="476.445" r="7.7553" transform="rotate(43.5385 463.567 476.445)" fill="#C4C4C4"/>
<circle cx="464.966" cy="531.266" r="7.7553" transform="rotate(43.5385 464.966 531.266)" fill="#C4C4C4"/>
<circle cx="490.278" cy="448.336" r="7.7553" transform="rotate(43.5385 490.278 448.336)" fill="#C4C4C4"/>
<circle cx="518.388" cy="475.047" r="7.7553" transform="rotate(43.5385 518.388 475.047)" fill="#C4C4C4"/>
<circle cx="491.677" cy="503.156" r="7.7553" transform="rotate(43.5385 491.677 503.156)" fill="#C4C4C4"/>
<circle cx="516.99" cy="420.226" r="7.7553" transform="rotate(43.5385 516.99 420.226)" fill="#C4C4C4"/>
<circle cx="545.099" cy="446.937" r="7.7553" transform="rotate(43.5385 545.099 446.937)" fill="#C4C4C4"/>
<circle cx="543.701" cy="392.116" r="7.7553" transform="rotate(43.5385 543.701 392.116)" fill="#C4C4C4"/>
<circle cx="571.81" cy="418.827" r="7.7553" transform="rotate(43.5385 571.81 418.827)" fill="#C4C4C4"/>
<circle cx="570.411" cy="364.006" r="7.7553" transform="rotate(43.5385 570.411 364.006)" fill="#C4C4C4"/>
<circle cx="374.702" cy="712.947" r="7.7553" transform="rotate(43.5385 374.702 712.947)" fill="#C4C4C4"/>
<circle cx="402.811" cy="739.658" r="7.7553" transform="rotate(43.5385 402.811 739.658)" fill="#C4C4C4"/>
<circle cx="401.412" cy="684.838" r="7.7553" transform="rotate(43.5385 401.412 684.838)" fill="#C4C4C4"/>
<circle cx="429.522" cy="711.549" r="7.7553" transform="rotate(43.5385 429.522 711.549)" fill="#C4C4C4"/>
<circle cx="428.122" cy="656.729" r="7.7553" transform="rotate(43.5385 428.122 656.729)" fill="#C4C4C4"/>
<circle cx="456.232" cy="683.44" r="7.7553" transform="rotate(43.5385 456.232 683.44)" fill="#C4C4C4"/>
<circle cx="454.833" cy="628.62" r="7.7553" transform="rotate(43.5385 454.833 628.62)" fill="#C4C4C4"/>
<circle cx="482.943" cy="655.33" r="7.7553" transform="rotate(43.5385 482.943 655.33)" fill="#C4C4C4"/>
<circle cx="481.544" cy="600.51" r="7.7553" transform="rotate(43.5385 481.544 600.51)" fill="#C4C4C4"/>
<circle cx="509.653" cy="627.221" r="7.7553" transform="rotate(43.5385 509.653 627.221)" fill="#C4C4C4"/>
<circle cx="508.255" cy="572.401" r="7.7553" transform="rotate(43.5385 508.255 572.401)" fill="#C4C4C4"/>
<circle cx="534.965" cy="544.291" r="7.7553" transform="rotate(43.5385 534.965 544.291)" fill="#C4C4C4"/>
<circle cx="536.364" cy="599.112" r="7.7553" transform="rotate(43.5385 536.364 599.112)" fill="#C4C4C4"/>
<circle cx="561.677" cy="516.181" r="7.7553" transform="rotate(43.5385 561.677 516.181)" fill="#C4C4C4"/>
<circle cx="589.786" cy="542.892" r="7.7553" transform="rotate(43.5385 589.786 542.892)" fill="#C4C4C4"/>
<circle cx="563.075" cy="571.002" r="7.7553" transform="rotate(43.5385 563.075 571.002)" fill="#C4C4C4"/>
<circle cx="588.388" cy="488.071" r="7.7553" transform="rotate(43.5385 588.388 488.071)" fill="#C4C4C4"/>
<circle cx="449.473" cy="783.998" r="7.7553" transform="rotate(43.5385 449.473 783.998)" fill="#C4C4C4"/>
<circle cx="477.583" cy="810.709" r="7.7553" transform="rotate(43.5385 477.583 810.709)" fill="#C4C4C4"/>
<circle cx="476.184" cy="755.889" r="7.7553" transform="rotate(43.5385 476.184 755.889)" fill="#C4C4C4"/>
<circle cx="504.293" cy="782.6" r="7.7553" transform="rotate(43.5385 504.293 782.6)" fill="#C4C4C4"/>
<circle cx="502.894" cy="727.78" r="7.7553" transform="rotate(43.5385 502.894 727.78)" fill="#C4C4C4"/>
<circle cx="531.003" cy="754.491" r="7.7553" transform="rotate(43.5385 531.003 754.491)" fill="#C4C4C4"/>
<circle cx="529.604" cy="699.671" r="7.7553" transform="rotate(43.5385 529.604 699.671)" fill="#C4C4C4"/>
<circle cx="557.714" cy="726.381" r="7.7553" transform="rotate(43.5385 557.714 726.381)" fill="#C4C4C4"/>
<circle cx="556.315" cy="671.561" r="7.7553" transform="rotate(43.5385 556.315 671.561)" fill="#C4C4C4"/>
<circle cx="584.425" cy="698.272" r="7.7553" transform="rotate(43.5385 584.425 698.272)" fill="#C4C4C4"/>
<circle cx="583.026" cy="643.452" r="7.7553" transform="rotate(43.5385 583.026 643.452)" fill="#C4C4C4"/>
<circle cx="609.737" cy="615.342" r="7.7553" transform="rotate(43.5385 609.737 615.342)" fill="#C4C4C4"/>
<circle cx="611.135" cy="670.163" r="7.7553" transform="rotate(43.5385 611.135 670.163)" fill="#C4C4C4"/>
<circle cx="636.448" cy="587.232" r="7.7553" transform="rotate(43.5385 636.448 587.232)" fill="#C4C4C4"/>
<circle cx="664.558" cy="613.943" r="7.7553" transform="rotate(43.5385 664.558 613.943)" fill="#C4C4C4"/>
<circle cx="637.846" cy="642.053" r="7.7553" transform="rotate(43.5385 637.846 642.053)" fill="#C4C4C4"/>
<circle cx="663.159" cy="559.122" r="7.7553" transform="rotate(43.5385 663.159 559.122)" fill="#C4C4C4"/>
<circle cx="691.269" cy="585.833" r="7.7553" transform="rotate(43.5385 691.269 585.833)" fill="#C4C4C4"/>
<circle cx="689.87" cy="531.013" r="7.7553" transform="rotate(43.5385 689.87 531.013)" fill="#C4C4C4"/>
<circle cx="717.98" cy="557.724" r="7.7553" transform="rotate(43.5385 717.98 557.724)" fill="#C4C4C4"/>
<circle cx="744.691" cy="529.614" r="7.7553" transform="rotate(43.5385 744.691 529.614)" fill="#C4C4C4"/>
<circle cx="522.558" cy="853.446" r="7.7553" transform="rotate(43.5385 522.558 853.446)" fill="#C4C4C4"/>
<circle cx="550.667" cy="880.157" r="7.7553" transform="rotate(43.5385 550.667 880.157)" fill="#C4C4C4"/>
<circle cx="549.268" cy="825.337" r="7.7553" transform="rotate(43.5385 549.268 825.337)" fill="#C4C4C4"/>
<circle cx="577.378" cy="852.048" r="7.7553" transform="rotate(43.5385 577.378 852.048)" fill="#C4C4C4"/>
<circle cx="575.978" cy="797.228" r="7.7553" transform="rotate(43.5385 575.978 797.228)" fill="#C4C4C4"/>
<circle cx="604.088" cy="823.939" r="7.7553" transform="rotate(43.5385 604.088 823.939)" fill="#C4C4C4"/>
<circle cx="602.689" cy="769.119" r="7.7553" transform="rotate(43.5385 602.689 769.119)" fill="#C4C4C4"/>
<circle cx="630.799" cy="795.83" r="7.7553" transform="rotate(43.5385 630.799 795.83)" fill="#C4C4C4"/>
<circle cx="629.4" cy="741.009" r="7.7553" transform="rotate(43.5385 629.4 741.009)" fill="#C4C4C4"/>
<circle cx="10.9641" cy="367.308" r="7.7553" transform="rotate(43.5385 10.9641 367.308)" fill="#C4C4C4"/>
<circle cx="39.0737" cy="394.019" r="7.7553" transform="rotate(43.5385 39.0737 394.019)" fill="#C4C4C4"/>
<circle cx="37.6745" cy="339.199" r="7.7553" transform="rotate(43.5385 37.6745 339.199)" fill="#C4C4C4"/>
<circle cx="65.7841" cy="365.91" r="7.7553" transform="rotate(43.5385 65.7841 365.91)" fill="#C4C4C4"/>
<circle cx="64.3846" cy="311.09" r="7.7553" transform="rotate(43.5385 64.3846 311.09)" fill="#C4C4C4"/>
<circle cx="92.4942" cy="337.801" r="7.7553" transform="rotate(43.5385 92.4942 337.801)" fill="#C4C4C4"/>
<circle cx="91.0954" cy="282.981" r="7.7553" transform="rotate(43.5385 91.0954 282.981)" fill="#C4C4C4"/>
<circle cx="119.205" cy="309.692" r="7.7553" transform="rotate(43.5385 119.205 309.692)" fill="#C4C4C4"/>
<circle cx="117.806" cy="254.871" r="7.7553" transform="rotate(43.5385 117.806 254.871)" fill="#C4C4C4"/>
<circle cx="145.916" cy="281.582" r="7.7553" transform="rotate(43.5385 145.916 281.582)" fill="#C4C4C4"/>
<circle cx="144.517" cy="226.762" r="7.7553" transform="rotate(43.5385 144.517 226.762)" fill="#C4C4C4"/>
<circle cx="171.228" cy="198.652" r="7.7553" transform="rotate(43.5385 171.228 198.652)" fill="#C4C4C4"/>
<circle cx="172.627" cy="253.473" r="7.7553" transform="rotate(43.5385 172.627 253.473)" fill="#C4C4C4"/>
<circle cx="197.939" cy="170.542" r="7.7553" transform="rotate(43.5385 197.939 170.542)" fill="#C4C4C4"/>
<circle cx="226.049" cy="197.253" r="7.7553" transform="rotate(43.5385 226.049 197.253)" fill="#C4C4C4"/>
<circle cx="199.337" cy="225.363" r="7.7553" transform="rotate(43.5385 199.337 225.363)" fill="#C4C4C4"/>
<circle cx="224.65" cy="142.433" r="7.7553" transform="rotate(43.5385 224.65 142.433)" fill="#C4C4C4"/>
</svg>
