<svg width="441" height="92" viewBox="0 0 441 92" fill="none" xmlns="http://www.w3.org/2000/svg">
<path d="M21.7724 89.2487C21.9856 90.0492 22.8069 90.5233 23.6068 90.3077L76.9289 75.9338C77.7287 75.7182 78.2043 74.8945 77.9911 74.094L66.8727 32.349C69.6456 27.4387 69.3833 23.0364 67.7793 19.5099C66.1574 15.944 63.225 13.3904 61.0422 12.0349C50.63 5.56922 38.517 6.05986 28.2437 9.70433C18.0138 13.3334 9.28497 20.2024 5.61135 26.9709C2.64125 32.4431 2.86129 37.1345 4.51351 40.7671C5.98627 44.0051 8.5372 46.2768 10.6572 47.5157L21.7724 89.2487Z" fill="#252525" stroke="#252525" stroke-width="3" stroke-linecap="round" stroke-linejoin="round"/>
<path d="M31.0089 87.1837C31.2221 87.9842 32.0434 88.4584 32.8432 88.2428L86.1653 73.8689C86.9652 73.6533 87.4408 72.8295 87.2276 72.029L76.1092 30.2841C78.882 25.3738 78.6198 20.9715 77.0158 17.4449C75.3939 13.8791 72.4615 11.3254 70.2786 9.96994C59.8664 3.50428 47.7535 3.99492 37.4802 7.63939C27.2503 11.2685 18.5214 18.1375 14.8478 24.9059C11.8777 30.3782 12.0977 35.0696 13.75 38.7021C15.2227 41.9402 17.7737 44.2119 19.8937 45.4507L31.0089 87.1837Z" fill="#FCFCFC" stroke="#252525" stroke-width="3" stroke-linecap="round" stroke-linejoin="round"/>
<path d="M83.9805 52.6547C83.9805 51.2875 84.9375 48.4847 85.3135 47.5619C85.3135 47.5277 85.3477 47.4935 85.3477 47.4594C86.4414 46.0922 88.9365 43.9388 90.6455 42.5717C91.9443 42.059 93.2773 41.7855 94.6787 41.7855C96.1143 41.7855 97.4814 42.059 98.7461 42.6058C100.831 43.973 103.053 45.7504 103.463 46.3998C104.42 47.8353 105.377 50.057 105.377 52.0736V53.2357C105.377 55.1498 104.386 57.474 103.463 58.8754C103.053 59.5248 100.831 61.3363 98.7461 62.7035C97.4473 63.2162 96.0801 63.4896 94.6787 63.4896C93.2773 63.4896 91.9443 63.2162 90.6455 62.7035C88.9365 61.3363 86.4414 59.183 85.3477 57.8158C85.3477 57.7816 85.3135 57.7474 85.3135 57.7133C84.9375 56.7904 83.9805 53.9877 83.9805 52.6547ZM76.4609 52.6547C76.4609 54.9789 77.3496 57.7474 78.2041 60.2084C78.3066 60.4476 78.3408 60.516 78.3408 60.6185C78.3066 60.5844 78.3066 60.5502 78.3066 60.516C78.3066 60.4135 78.2725 60.3793 78.2725 60.2767L78.8877 61.7465C80.8018 64.5834 85.4844 68.2064 86.373 68.9242L87.0908 69.3685C89.5176 70.4965 92.0469 71.0433 94.6787 71.0433C97.2764 71.0433 99.8398 70.6674 102.13 69.4369L102.643 69.1635C103.326 68.7875 104.283 68.0355 105.377 67.2152V69.9496H112.896V14.2025H105.377V38.0599C104.283 37.2396 103.326 36.556 102.643 36.1459L102.13 35.8383C99.9082 34.5052 97.2764 34.266 94.6787 34.266C92.0127 34.266 89.4834 34.8129 87.0908 35.9066L86.373 36.351C85.4844 37.0687 80.8018 40.6918 78.8877 43.5287L78.2725 44.9984C78.2725 44.8959 78.3066 44.8617 78.3066 44.7592C78.3066 44.725 78.3066 44.6908 78.3408 44.6566C78.3408 44.6908 78.3066 44.8275 78.2041 45.0668C77.3496 47.5277 76.4609 50.2963 76.4609 52.6205V52.6547ZM128.448 52.6205C128.448 51.2533 129.474 48.5189 129.747 47.5619C129.781 47.5277 129.781 47.4935 129.781 47.4252C130.875 46.0922 133.37 43.9388 135.079 42.5717C136.378 42.0248 137.745 41.7513 139.146 41.7513C140.548 41.7513 141.915 42.0248 143.214 42.5717C145.299 43.973 147.486 45.7162 147.896 46.3656C148.854 47.8353 149.811 50.1254 149.811 52.0394V53.2015C149.811 55.1156 148.785 57.4056 147.896 58.8412C147.452 59.559 145.299 61.2679 143.214 62.6693C141.915 63.2162 140.548 63.4896 139.146 63.4896C137.745 63.4896 136.378 63.2162 135.079 62.6693C133.37 61.3021 130.875 59.1488 129.781 57.8158C129.781 57.7474 129.781 57.7133 129.747 57.6791C129.474 56.722 128.448 53.9877 128.448 52.6205ZM120.895 52.6547C120.895 54.9789 121.852 57.7133 122.672 60.2084C122.706 60.3793 122.774 60.516 122.809 60.6185C122.809 60.5844 122.74 60.4476 122.706 60.2767L123.321 61.7123C125.235 64.5492 129.85 68.309 130.807 68.89L131.559 69.3344C133.917 70.4623 136.446 71.0092 139.146 71.0092C141.744 71.0092 144.239 70.6332 146.563 69.4027L147.076 69.1293C147.76 68.7533 148.751 68.0013 149.811 67.2152V69.9154H157.33V53.5092C157.33 53.2357 157.364 52.9281 157.364 52.6547V52.6205V52.5863C157.364 52.3129 157.33 52.0052 157.33 51.7318V35.223H149.811V38.0258C148.751 37.2396 147.76 36.4877 147.076 36.1117L146.563 35.8383C144.239 34.6078 141.744 34.2318 139.146 34.2318C136.446 34.2318 133.917 34.7787 131.559 35.9066L130.807 36.351C129.918 37.0687 125.27 40.6576 123.321 43.5287L122.706 44.9642C122.74 44.7933 122.809 44.6566 122.809 44.6224C122.774 44.725 122.706 44.8617 122.672 45.0326C121.852 47.5277 120.895 50.2621 120.895 52.5863V52.6547ZM173.907 21.5853H177.564L179.444 19.7396V16.0824L177.564 14.2025H173.907L172.027 16.0824V19.7396L173.907 21.5853ZM172.198 42.7426V69.9496H179.718V35.223H166.388V42.7426H172.198ZM193.185 21.722V70.0521H200.704V18.3724V14.2025H187.374V21.722H193.185ZM228.629 66.7709V70.223C228.629 70.4965 228.492 71.2484 227.774 73.4017L227.74 73.4359C227.638 73.5385 227.672 73.641 227.569 73.7435C227.296 74.1195 226.988 74.6664 226.749 74.9056C226.1 75.4867 225.211 75.9652 224.938 76.1019H224.903C224.049 76.4779 223.194 76.683 222.271 76.683C221.485 76.683 220.768 76.5121 219.981 76.2386C218.751 75.3842 217.521 74.4271 217.145 74.017L210.685 77.8451C211.778 79.6566 214.513 81.7416 216.119 82.6986L216.632 83.0062C218.307 84.0316 220.323 84.2025 222.271 84.2025C224.356 84.2025 226.271 83.7924 228.048 82.9379C228.355 82.8353 230.201 81.8783 231.808 80.4427C232.799 79.5199 233.448 78.4945 233.961 77.7084L234.269 77.2299L234.542 76.7172C234.645 76.5463 234.781 76.1361 234.781 76.1703C234.781 76.1361 234.815 76.0336 234.85 75.8969C235.499 74.0853 236.148 72.0345 236.148 70.223V35.223H228.629V59.2513H217.452V35.223H209.933V66.7709H228.629ZM251.324 52.0394C251.324 50.1254 252.35 47.8353 253.238 46.3998C253.614 45.7504 255.836 43.9047 257.921 42.5717C259.22 42.0248 260.587 41.7513 261.988 41.7513C263.39 41.7513 264.757 42.0248 266.056 42.5717C267.765 43.9388 270.26 46.0922 271.354 47.4252C271.354 47.4935 271.354 47.5277 271.388 47.5619C271.661 48.5189 272.687 51.2533 272.687 52.6205C272.687 53.9877 271.661 56.722 271.388 57.6791C271.354 57.7133 271.354 57.7474 271.354 57.8158C270.26 59.1488 267.765 61.3021 266.056 62.6693C264.757 63.2162 263.39 63.4896 261.988 63.4896C260.587 63.4896 259.22 63.2162 257.921 62.6693C255.87 61.3363 253.614 59.4906 253.238 58.8754C252.35 57.4056 251.324 55.1498 251.324 53.2015V52.0394ZM251.324 69.9154V67.2152C252.384 68.0013 253.375 68.7533 254.059 69.1293L254.571 69.4027C256.896 70.6332 259.391 71.0092 261.988 71.0092C264.688 71.0092 267.218 70.4623 269.576 69.3344L270.294 68.89C271.217 68.309 275.899 64.515 277.813 61.7123L278.429 60.2767C278.395 60.4476 278.326 60.5844 278.326 60.6185C278.36 60.516 278.429 60.3793 278.463 60.2084C279.283 57.7133 280.206 54.9789 280.206 52.6547V52.5863C280.206 50.2621 279.283 47.5277 278.463 45.0326C278.429 44.8617 278.36 44.725 278.326 44.6224C278.326 44.6566 278.395 44.7933 278.429 44.9642L277.813 43.5287C275.865 40.6918 271.183 37.0687 270.294 36.351L269.576 35.9066C267.218 34.7787 264.688 34.2318 261.988 34.2318C259.391 34.2318 256.896 34.6078 254.571 35.8383L254.059 36.1117C253.375 36.4877 252.384 37.2396 251.324 38.0258V14.2025H243.805V69.9154H251.324ZM287.555 52.6547V70.0179H295.074V52.0394C295.074 50.1254 296.1 47.8353 296.988 46.3998C297.364 45.7845 299.723 43.8363 301.773 42.5033C302.149 42.3324 302.389 42.1273 302.662 41.9564L302.799 42.059C303.141 42.3324 303.482 42.4349 303.858 42.6742C304.713 43.392 305.875 44.3832 306.695 45.2035L313.429 41.4437C311.891 39.4271 308.849 36.932 308.199 36.5219L307.481 36.0775C307.379 36.0433 307.071 35.8383 306.832 35.7015C305.772 35.0521 304.371 34.1293 302.56 34.1293C300.646 34.1293 299.278 35.0863 298.561 35.6332L298.253 35.8724L298.321 35.8383L297.809 36.1117C297.125 36.4877 296.134 37.2396 295.074 38.0258V35.2572H287.555V51.7318C287.555 52.0394 287.521 52.347 287.521 52.6547H287.555ZM325.323 47.9379C325.528 47.2201 325.768 46.7074 325.973 46.3656C327.032 44.6908 328.604 42.9135 329.151 42.64C330.143 42.1273 331.886 41.7172 333.492 41.7172C334.962 41.7172 336.09 42.059 337.56 42.7084C338.277 43.016 340.089 44.7592 341.183 46.8441C341.285 47.0834 341.388 47.4252 341.49 47.9379H325.323ZM317.12 52.6205C317.12 56.3802 318.043 60.2426 319.513 62.7035C320.88 64.9935 324.4 68.1381 325.118 68.7875L325.528 69.1635L326.041 69.4027C328.365 70.4965 330.86 70.975 333.492 70.975C336.192 70.975 341.49 69.6761 343.78 68.5824H343.814C345.626 67.6595 347.232 66.9076 348.702 66.1215L342.481 60.8236L340.567 61.7806C339.2 62.4642 334.962 63.4554 333.492 63.4554C332.125 63.4554 330.86 63.2162 329.664 62.7377C328.263 61.5414 326.417 59.6615 325.973 58.8412C325.562 58.1576 325.152 56.9271 324.913 55.4574H349.591V51.6976C349.591 48.7582 348.6 44.9642 348.019 43.6996C346.412 40.2474 343.438 37.1371 340.772 35.8724C338.277 34.6761 336.056 34.1976 333.492 34.1976C330.997 34.1976 328.229 34.8129 326.041 35.8041C323.307 37.0687 320.538 40.726 319.513 42.5033C318.043 44.9642 317.12 48.7924 317.12 52.5863V52.6205ZM362.784 52.6205C362.784 51.2533 363.81 48.5189 364.083 47.5619C364.117 47.5277 364.117 47.4935 364.117 47.4252C365.211 46.0922 367.706 43.9388 369.415 42.5717C370.714 42.0248 372.081 41.7513 373.482 41.7513C374.884 41.7513 376.251 42.0248 377.55 42.5717C379.635 43.973 381.822 45.7162 382.232 46.3656C383.189 47.8353 384.146 50.1254 384.146 52.0394V53.2015C384.146 55.1156 383.121 57.4056 382.232 58.8412C381.788 59.559 379.635 61.2679 377.55 62.6693C376.251 63.2162 374.884 63.4896 373.482 63.4896C372.081 63.4896 370.714 63.2162 369.415 62.6693C367.706 61.3021 365.211 59.1488 364.117 57.8158C364.117 57.7474 364.117 57.7133 364.083 57.6791C363.81 56.722 362.784 53.9877 362.784 52.6205ZM355.23 52.6547C355.23 54.9789 356.188 57.7133 357.008 60.2084C357.042 60.3793 357.11 60.516 357.145 60.6185C357.145 60.5844 357.076 60.4476 357.042 60.2767L357.657 61.7123C359.571 64.5492 364.186 68.309 365.143 68.89L365.895 69.3344C368.253 70.4623 370.782 71.0092 373.482 71.0092C376.08 71.0092 378.575 70.6332 380.899 69.4027L381.412 69.1293C382.096 68.7533 383.087 68.0013 384.146 67.2152V69.9154H391.666V53.5092C391.666 53.2357 391.7 52.9281 391.7 52.6547V52.6205V52.5863C391.7 52.3129 391.666 52.0052 391.666 51.7318V35.223H384.146V38.0258C383.087 37.2396 382.096 36.4877 381.412 36.1117L380.899 35.8383C378.575 34.6078 376.08 34.2318 373.482 34.2318C370.782 34.2318 368.253 34.7787 365.895 35.9066L365.143 36.351C364.254 37.0687 359.605 40.6576 357.657 43.5287L357.042 44.9642C357.076 44.7933 357.145 44.6566 357.145 44.6224C357.11 44.725 357.042 44.8617 357.008 45.0326C356.188 47.5277 355.23 50.2621 355.23 52.5863V52.6547ZM406.637 52.6547C406.637 51.2875 407.594 48.4847 407.97 47.5619C407.97 47.5277 408.004 47.4935 408.004 47.4594C409.098 46.0922 411.593 43.9388 413.302 42.5717C414.601 42.059 415.934 41.7855 417.335 41.7855C418.771 41.7855 420.138 42.059 421.402 42.6058C423.487 43.973 425.709 45.7504 426.119 46.3998C427.076 47.8353 428.033 50.057 428.033 52.0736V53.2357C428.033 55.1498 427.042 57.474 426.119 58.8754C425.709 59.5248 423.487 61.3363 421.402 62.7035C420.104 63.2162 418.736 63.4896 417.335 63.4896C415.934 63.4896 414.601 63.2162 413.302 62.7035C411.593 61.3363 409.098 59.183 408.004 57.8158C408.004 57.7816 407.97 57.7474 407.97 57.7133C407.594 56.7904 406.637 53.9877 406.637 52.6547ZM399.117 52.6547C399.117 54.9789 400.006 57.7474 400.86 60.2084C400.963 60.4476 400.997 60.516 400.997 60.6185C400.963 60.5844 400.963 60.5502 400.963 60.516C400.963 60.4135 400.929 60.3793 400.929 60.2767L401.544 61.7465C403.458 64.5834 408.141 68.2064 409.029 68.9242L409.747 69.3685C412.174 70.4965 414.703 71.0433 417.335 71.0433C419.933 71.0433 422.496 70.6674 424.786 69.4369L425.299 69.1635C425.982 68.7875 426.939 68.0355 428.033 67.2152V69.9496H435.553V14.2025H428.033V38.0599C426.939 37.2396 425.982 36.556 425.299 36.1459L424.786 35.8383C422.564 34.5052 419.933 34.266 417.335 34.266C414.669 34.266 412.14 34.8129 409.747 35.9066L409.029 36.351C408.141 37.0687 403.458 40.6918 401.544 43.5287L400.929 44.9984C400.929 44.8959 400.963 44.8617 400.963 44.7592C400.963 44.725 400.963 44.6908 400.997 44.6566C400.997 44.6908 400.963 44.8275 400.86 45.0668C400.006 47.5277 399.117 50.2963 399.117 52.6205V52.6547Z" fill="#FCFCFC"/>
<path d="M85.3135 47.5619L88.0918 48.6938L88.3135 48.1496V47.5619H85.3135ZM85.3477 47.4594L83.005 45.5853L82.3477 46.407V47.4594H85.3477ZM90.6455 42.5717L89.544 39.7812L89.124 39.947L88.7714 40.229L90.6455 42.5717ZM98.7461 42.6058L100.391 40.0971L100.175 39.9551L99.9368 39.8523L98.7461 42.6058ZM103.463 46.3998L100.926 48.0018L100.946 48.0331L100.967 48.0639L103.463 46.3998ZM103.463 58.8754L100.957 57.2254L100.942 57.2492L100.926 57.2734L103.463 58.8754ZM98.7461 62.7035L99.8476 65.494L100.134 65.381L100.391 65.2122L98.7461 62.7035ZM90.6455 62.7035L88.7714 65.0461L89.124 65.3282L89.544 65.494L90.6455 62.7035ZM85.3477 57.8158H82.3477V58.8681L83.005 59.6899L85.3477 57.8158ZM85.3135 57.7133H88.3135V57.1256L88.0918 56.5814L85.3135 57.7133ZM78.2041 60.2084L75.3701 61.1924L75.4049 61.2926L75.4467 61.3901L78.2041 60.2084ZM78.3408 60.6185L76.2195 62.7399L81.3408 67.8612V60.6185H78.3408ZM78.2725 60.2767L81.0398 59.1183L75.2725 60.2767H78.2725ZM78.8877 61.7465L76.1204 62.9049L76.2349 63.1785L76.4008 63.4244L78.8877 61.7465ZM86.373 68.9242L84.488 71.258L84.6342 71.3761L84.794 71.475L86.373 68.9242ZM87.0908 69.3685L85.5118 71.9193L85.664 72.0136L85.8264 72.089L87.0908 69.3685ZM102.13 69.4369L100.718 66.7898L100.71 66.7942L102.13 69.4369ZM102.643 69.1635L104.054 71.8105L104.071 71.8014L104.088 71.7921L102.643 69.1635ZM105.377 67.2152H108.377V61.2152L103.577 64.8152L105.377 67.2152ZM105.377 69.9496H102.377V72.9496H105.377V69.9496ZM112.896 69.9496V72.9496H115.896V69.9496H112.896ZM112.896 14.2025H115.896V11.2025H112.896V14.2025ZM105.377 14.2025V11.2025H102.377V14.2025H105.377ZM105.377 38.0599L103.577 40.4599L108.377 44.0599V38.0599H105.377ZM87.0908 35.9066L85.8435 33.1782L85.6721 33.2566L85.5118 33.3558L87.0908 35.9066ZM86.373 36.351L84.794 33.8002L84.6342 33.8991L84.488 34.0171L86.373 36.351ZM78.8877 43.5287L76.4008 41.8508L76.2349 42.0967L76.1204 42.3703L78.8877 43.5287ZM78.2725 44.9984H75.2725L81.0398 46.1568L78.2725 44.9984ZM78.3408 44.6566H81.3408V37.414L76.2195 42.5353L78.3408 44.6566ZM78.2041 45.0668L75.4467 43.885L75.4049 43.9825L75.3701 44.0827L78.2041 45.0668ZM86.9805 52.6547C86.9805 52.6551 86.9805 52.639 86.9831 52.6039C86.9857 52.5694 86.9902 52.523 86.9978 52.4637C87.0133 52.3432 87.0386 52.192 87.0755 52.0105C87.15 51.6452 87.2586 51.2207 87.3872 50.7773C87.6476 49.8798 87.9474 49.0482 88.0918 48.6938L82.5352 46.43C82.3036 46.9984 81.9369 48.0296 81.6247 49.106C81.341 50.0841 80.9805 51.4978 80.9805 52.6547H86.9805ZM88.3135 47.5619C88.3135 47.8078 88.2827 48.0206 88.2456 48.1902C88.2089 48.358 88.1636 48.4942 88.1278 48.5896C88.0922 48.6847 88.0589 48.7578 88.0407 48.7967C88.0311 48.8172 88.0233 48.8332 88.019 48.8418C88.0152 48.8495 88.0121 48.8558 88.0138 48.8523C88.0142 48.8515 88.0195 48.841 88.0254 48.829C88.0317 48.8161 88.0416 48.7959 88.0532 48.7711C88.0755 48.7236 88.1125 48.6419 88.1513 48.5384C88.1903 48.4343 88.2383 48.2897 88.2769 48.1133C88.3158 47.9351 88.3477 47.7138 88.3477 47.4594H82.3477C82.3477 47.2134 82.3784 47.0006 82.4155 46.8311C82.4522 46.6632 82.4975 46.5271 82.5333 46.4316C82.569 46.3366 82.6022 46.2635 82.6205 46.2245C82.6301 46.204 82.6379 46.188 82.6421 46.1794C82.6459 46.1717 82.6491 46.1654 82.6473 46.169C82.6469 46.1697 82.6416 46.1803 82.6357 46.1922C82.6294 46.2051 82.6195 46.2254 82.6079 46.2501C82.5856 46.2977 82.5487 46.3793 82.5098 46.4829C82.4708 46.5869 82.4228 46.7316 82.3842 46.908C82.3453 47.0861 82.3135 47.3074 82.3135 47.5619H88.3135ZM87.6903 49.3334C88.5474 48.2621 90.7882 46.2994 92.5196 44.9143L88.7714 40.229C87.0848 41.5783 84.3355 43.9223 83.005 45.5853L87.6903 49.3334ZM91.747 45.3621C92.722 44.9773 93.6823 44.7855 94.6787 44.7855V38.7855C92.8724 38.7855 91.1667 39.1406 89.544 39.7812L91.747 45.3621ZM94.6787 44.7855C95.7273 44.7855 96.6869 44.9838 97.5554 45.3594L99.9368 39.8523C98.276 39.1341 96.5012 38.7855 94.6787 38.7855V44.7855ZM97.101 45.1146C98.0635 45.7457 99.0623 46.4753 99.8542 47.1112C100.251 47.43 100.571 47.7047 100.796 47.916C101.09 48.1907 101.049 48.1958 100.926 48.0018L105.999 44.7978C105.672 44.279 105.199 43.8184 104.896 43.5346C104.524 43.1872 104.081 42.8104 103.611 42.4327C102.668 41.6758 101.514 40.8332 100.391 40.0971L97.101 45.1146ZM100.967 48.0639C101.734 49.2142 102.377 50.8574 102.377 52.0736H108.377C108.377 49.2566 107.106 46.4564 105.959 44.7357L100.967 48.0639ZM102.377 52.0736V53.2357H108.377V52.0736H102.377ZM102.377 53.2357C102.377 54.3425 101.705 56.0895 100.957 57.2254L105.968 60.5253C107.066 58.8585 108.377 55.957 108.377 53.2357H102.377ZM100.926 57.2734C101.044 57.0875 101.077 57.0986 100.784 57.3762C100.557 57.5912 100.237 57.8703 99.8403 58.1923C99.0491 58.8354 98.0547 59.5694 97.101 60.1948L100.391 65.2122C101.522 64.4704 102.681 63.615 103.625 62.8483C104.096 62.4653 104.538 62.0843 104.908 61.7342C105.212 61.4468 105.677 60.9879 105.999 60.4773L100.926 57.2734ZM97.6446 59.913C96.679 60.2942 95.6846 60.4896 94.6787 60.4896V66.4896C96.4755 66.4896 98.2156 66.1382 99.8476 65.494L97.6446 59.913ZM94.6787 60.4896C93.6823 60.4896 92.722 60.2979 91.747 59.913L89.544 65.494C91.1667 66.1345 92.8724 66.4896 94.6787 66.4896V60.4896ZM92.5196 60.3609C90.7882 58.9758 88.5474 57.0131 87.6903 55.9417L83.005 59.6899C84.3355 61.3529 87.0848 63.6968 88.7714 65.0461L92.5196 60.3609ZM88.3477 57.8158C88.3477 57.5613 88.3158 57.34 88.2769 57.1619C88.2383 56.9855 88.1903 56.8408 88.1513 56.7368C88.1125 56.6332 88.0755 56.5516 88.0532 56.504C88.0416 56.4793 88.0317 56.459 88.0254 56.4461C88.0195 56.4342 88.0142 56.4236 88.0138 56.4229C88.0121 56.4193 88.0152 56.4256 88.019 56.4333C88.0233 56.4419 88.0311 56.4579 88.0407 56.4784C88.0589 56.5174 88.0922 56.5905 88.1278 56.6855C88.1636 56.781 88.2089 56.9171 88.2456 57.085C88.2827 57.2546 88.3135 57.4673 88.3135 57.7133H82.3135C82.3135 57.9677 82.3453 58.1891 82.3842 58.3672C82.4228 58.5436 82.4708 58.6882 82.5098 58.7923C82.5487 58.8958 82.5856 58.9775 82.6079 59.025C82.6195 59.0498 82.6294 59.07 82.6357 59.0829C82.6416 59.0949 82.6469 59.1055 82.6473 59.1062C82.6491 59.1097 82.6459 59.1034 82.6421 59.0957C82.6379 59.0871 82.6301 59.0711 82.6205 59.0506C82.6022 59.0117 82.569 58.9386 82.5333 58.8435C82.4975 58.7481 82.4522 58.6119 82.4155 58.4441C82.3784 58.2745 82.3477 58.0617 82.3477 57.8158H88.3477ZM88.0918 56.5814C87.9472 56.2265 87.647 55.3939 87.3863 54.4987C87.2574 54.0565 87.1487 53.6345 87.0743 53.2731C87.0374 53.0936 87.0123 52.9452 86.9971 52.8284C86.9811 52.7061 86.9805 52.6527 86.9805 52.6547H80.9805C80.9805 53.7992 81.344 55.2096 81.6257 56.1768C81.9374 57.247 82.3038 58.2772 82.5352 58.8451L88.0918 56.5814ZM73.4609 52.6547C73.4609 55.5664 74.5423 58.8084 75.3701 61.1924L81.0381 59.2243C80.1569 56.6865 79.4609 54.3913 79.4609 52.6547H73.4609ZM75.4467 61.3901C75.4819 61.4724 75.491 61.4927 75.5058 61.5279C75.5185 61.5578 75.5049 61.5276 75.4857 61.4737C75.4637 61.4122 75.4223 61.2875 75.3897 61.1209C75.3547 60.9422 75.3408 60.7721 75.3408 60.6185H81.3408C81.3408 60.4137 81.3226 60.1966 81.2781 59.9688C81.2358 59.7531 81.1795 59.577 81.1361 59.4557C81.0955 59.342 81.0542 59.2434 81.0316 59.1901C81.0112 59.1419 80.9775 59.064 80.9615 59.0266L75.4467 61.3901ZM80.4621 58.4972C80.8377 58.8728 81.0966 59.3406 81.2213 59.8397C81.3209 60.238 81.3066 60.5888 81.3066 60.516H75.3066C75.3066 60.5947 75.2526 61.773 76.2195 62.7399L80.4621 58.4972ZM81.3066 60.516C81.3066 60.4189 81.3026 60.322 81.2943 60.2253C81.286 60.1283 81.2742 60.0386 81.2605 59.9566C81.2348 59.8026 81.2016 59.6753 81.2 59.6688C81.1931 59.6411 81.2177 59.7343 81.237 59.8498C81.2474 59.9126 81.2566 59.982 81.2631 60.0571C81.2694 60.1319 81.2725 60.2053 81.2725 60.2767H75.2725C75.2725 60.3738 75.2765 60.4707 75.2848 60.5674C75.2931 60.6644 75.3049 60.7541 75.3186 60.8362C75.3443 60.9901 75.3775 61.1174 75.3791 61.124C75.386 61.1516 75.3614 61.0584 75.3421 60.943C75.3317 60.8802 75.3225 60.8107 75.316 60.7356C75.3097 60.6608 75.3066 60.5874 75.3066 60.516H81.3066ZM75.5051 61.4351L76.1204 62.9049L81.655 60.588L81.0398 59.1183L75.5051 61.4351ZM76.4008 63.4244C77.5853 65.1799 79.4836 67.0069 81.0234 68.3736C82.6121 69.7839 84.0848 70.9323 84.488 71.258L88.2581 66.5904C87.7726 66.1983 86.4596 65.1763 85.0064 63.8864C83.5042 62.553 82.1042 61.1499 81.3746 60.0686L76.4008 63.4244ZM84.794 71.475L85.5118 71.9193L88.6699 66.8177L87.9521 66.3734L84.794 71.475ZM85.8264 72.089C88.6543 73.4034 91.6157 74.0433 94.6787 74.0433V68.0433C92.478 68.0433 90.3808 67.5895 88.3553 66.648L85.8264 72.089ZM94.6787 74.0433C97.5399 74.0433 100.657 73.6342 103.55 72.0796L100.71 66.7942C99.0232 67.7005 97.0129 68.0433 94.6787 68.0433V74.0433ZM103.542 72.0839L104.054 71.8105L101.231 66.5164L100.718 66.7898L103.542 72.0839ZM104.088 71.7921C105.015 71.2823 106.235 70.3214 107.177 69.6152L103.577 64.8152C102.331 65.7496 101.637 66.2927 101.197 66.5348L104.088 71.7921ZM102.377 67.2152V69.9496H108.377V67.2152H102.377ZM105.377 72.9496H112.896V66.9496H105.377V72.9496ZM115.896 69.9496V14.2025H109.896V69.9496H115.896ZM112.896 11.2025H105.377V17.2025H112.896V11.2025ZM102.377 14.2025V38.0599H108.377V14.2025H102.377ZM107.177 35.6599C106.083 34.8393 105.016 34.0714 104.186 33.5734L101.099 38.7184C101.636 39.0407 102.484 39.6399 103.577 40.4599L107.177 35.6599ZM104.186 33.5734L103.673 33.2658L100.586 38.4107L101.099 38.7184L104.186 33.5734ZM103.673 33.2658C100.712 31.4888 97.373 31.266 94.6787 31.266V37.266C97.1798 37.266 99.1046 37.5217 100.586 38.4107L103.673 33.2658ZM94.6787 31.266C91.5882 31.266 88.633 31.903 85.8435 33.1782L88.3381 38.635C90.3338 37.7227 92.4372 37.266 94.6787 37.266V31.266ZM85.5118 33.3558L84.794 33.8002L87.9521 38.9017L88.6699 38.4574L85.5118 33.3558ZM84.488 34.0171C84.0848 34.3428 82.6121 35.4913 81.0234 36.9015C79.4836 38.2683 77.5853 40.0952 76.4008 41.8508L81.3746 45.2066C82.1042 44.1252 83.5042 42.7222 85.0064 41.3888C86.4596 40.0988 87.7726 39.0769 88.2581 38.6848L84.488 34.0171ZM76.1204 42.3703L75.5051 43.84L81.0398 46.1568L81.655 44.6871L76.1204 42.3703ZM81.2725 44.9984C81.2725 45.0698 81.2694 45.1432 81.2631 45.2181C81.2566 45.2931 81.2474 45.3626 81.237 45.4254C81.2177 45.5409 81.1931 45.634 81.2 45.6064C81.2016 45.5998 81.2348 45.4725 81.2605 45.3186C81.2742 45.2366 81.286 45.1468 81.2943 45.0498C81.3026 44.9531 81.3066 44.8562 81.3066 44.7592H75.3066C75.3066 44.6877 75.3097 44.6143 75.316 44.5395C75.3225 44.4644 75.3317 44.395 75.3421 44.3322C75.3614 44.2167 75.386 44.1236 75.3791 44.1512C75.3775 44.1577 75.3443 44.2851 75.3186 44.439C75.3049 44.521 75.2931 44.6108 75.2848 44.7077C75.2765 44.8045 75.2725 44.9014 75.2725 44.9984H81.2725ZM81.3066 44.7592C81.3066 44.6864 81.3209 45.0372 81.2213 45.4355C81.0966 45.9346 80.8377 46.4024 80.4621 46.7779L76.2195 42.5353C75.2526 43.5022 75.3066 44.6804 75.3066 44.7592H81.3066ZM75.3408 44.6566C75.3408 44.4461 75.3639 44.2849 75.3731 44.224C75.3852 44.1443 75.3983 44.0817 75.407 44.0429C75.4246 43.9651 75.4407 43.9118 75.4475 43.89C75.4621 43.8432 75.4658 43.8403 75.4467 43.885L80.9615 46.2485C81.0449 46.054 81.117 45.8631 81.1744 45.6796C81.2025 45.5894 81.2336 45.4806 81.2607 45.36C81.2725 45.3077 81.3408 45.0186 81.3408 44.6566H75.3408ZM75.3701 44.0827C74.5423 46.4668 73.4609 49.7087 73.4609 52.6205H79.4609C79.4609 50.8838 80.1569 48.5886 81.0381 46.0508L75.3701 44.0827ZM73.4609 52.6205V52.6547H79.4609V52.6205H73.4609ZM129.747 47.5619L127.626 45.4406L127.076 45.9903L126.862 46.7377L129.747 47.5619ZM129.781 47.4252L127.462 45.5222L126.781 46.3519V47.4252H129.781ZM135.079 42.5717L133.915 39.8067L133.531 39.9686L133.205 40.229L135.079 42.5717ZM143.214 42.5717L144.887 40.0818L144.646 39.9196L144.378 39.8067L143.214 42.5717ZM147.896 46.3656L145.36 47.9676L145.371 47.9852L145.382 48.0026L147.896 46.3656ZM143.214 62.6693L144.378 65.4342L144.646 65.3214L144.887 65.1592L143.214 62.6693ZM135.079 62.6693L133.205 65.0119L133.531 65.2724L133.915 65.4342L135.079 62.6693ZM129.781 57.8158H126.781V58.889L127.462 59.7187L129.781 57.8158ZM129.747 57.6791L126.862 58.5032L127.076 59.2507L127.626 59.8004L129.747 57.6791ZM122.672 60.2084L125.614 59.62L125.578 59.443L125.522 59.2714L122.672 60.2084ZM122.809 60.6185L119.963 61.5672L125.809 60.6185H122.809ZM122.706 60.2767L125.463 59.095L119.764 60.8651L122.706 60.2767ZM123.321 61.7123L120.564 62.894L120.676 63.1549L120.834 63.3902L123.321 61.7123ZM130.807 68.89L129.25 71.4544L129.265 71.4637L129.28 71.4728L130.807 68.89ZM131.559 69.3344L130.032 71.9171L130.146 71.984L130.264 72.0408L131.559 69.3344ZM146.563 69.4027L147.967 72.0541L147.975 72.0498L146.563 69.4027ZM147.076 69.1293L148.488 71.7763L148.505 71.7672L148.522 71.7579L147.076 69.1293ZM149.811 67.2152H152.811V61.2539L148.023 64.8059L149.811 67.2152ZM149.811 69.9154H146.811V72.9154H149.811V69.9154ZM157.33 69.9154V72.9154H160.33V69.9154H157.33ZM157.33 35.223H160.33V32.223H157.33V35.223ZM149.811 35.223V32.223H146.811V35.223H149.811ZM149.811 38.0258L148.023 40.4351L152.811 43.9871V38.0258H149.811ZM147.076 36.1117L148.522 33.483L148.505 33.4737L148.488 33.4646L147.076 36.1117ZM146.563 35.8383L147.975 33.1912L147.967 33.1869L146.563 35.8383ZM131.559 35.9066L130.264 33.2002L130.146 33.2569L130.032 33.3238L131.559 35.9066ZM130.807 36.351L129.28 33.7682L129.092 33.8796L128.922 34.0171L130.807 36.351ZM123.321 43.5287L120.839 41.8442L120.677 42.0824L120.564 42.3469L123.321 43.5287ZM122.706 44.9642L119.764 44.3759L125.463 46.146L122.706 44.9642ZM122.809 44.6224H125.809L119.963 43.6738L122.809 44.6224ZM122.672 45.0326L125.522 45.9696L125.578 45.798L125.614 45.6209L122.672 45.0326ZM131.448 52.6205C131.448 52.6266 131.448 52.5775 131.465 52.4591C131.48 52.3458 131.506 52.2007 131.545 52.0229C131.623 51.6639 131.736 51.245 131.87 50.7948C132.003 50.3481 132.146 49.906 132.281 49.4947C132.404 49.1165 132.544 48.6941 132.632 48.3861L126.862 46.7377C126.814 46.9082 126.723 47.1865 126.577 47.6328C126.442 48.0461 126.278 48.5526 126.12 49.08C125.844 50.0057 125.448 51.4351 125.448 52.6205H131.448ZM131.868 49.6832C132.317 49.2341 132.602 48.6783 132.719 48.0947C132.764 47.8671 132.775 47.6813 132.778 47.5905C132.782 47.505 132.781 47.4253 132.781 47.4252H126.781C126.781 47.4593 126.781 47.4094 126.783 47.3507C126.786 47.2866 126.794 47.1242 126.835 46.918C126.88 46.6947 126.962 46.421 127.115 46.1321C127.269 45.8429 127.452 45.6145 127.626 45.4406L131.868 49.6832ZM132.1 49.3281C132.969 48.2699 135.227 46.2949 136.953 44.9143L133.205 40.229C131.513 41.5828 128.781 43.9144 127.462 45.5222L132.1 49.3281ZM136.243 45.3366C137.171 44.9459 138.142 44.7513 139.146 44.7513V38.7513C137.348 38.7513 135.585 39.1037 133.915 39.8067L136.243 45.3366ZM139.146 44.7513C140.151 44.7513 141.122 44.9459 142.05 45.3366L144.378 39.8067C142.708 39.1037 140.945 38.7513 139.146 38.7513V44.7513ZM141.54 45.0615C142.517 45.7176 143.514 46.4526 144.301 47.0864C144.695 47.4045 145.011 47.6765 145.234 47.8854C145.524 48.1565 145.482 48.1603 145.36 47.9676L150.433 44.7636C150.106 44.2462 149.637 43.7886 149.336 43.5064C148.968 43.162 148.53 42.7889 148.066 42.4148C147.135 41.6643 145.996 40.8271 144.887 40.0818L141.54 45.0615ZM145.382 48.0026C146.166 49.2053 146.811 50.9229 146.811 52.0394H152.811C152.811 49.3279 151.541 46.4653 150.41 44.7286L145.382 48.0026ZM146.811 52.0394V53.2015H152.811V52.0394H146.811ZM146.811 53.2015C146.811 54.2786 146.134 55.9884 145.346 57.2621L150.447 60.4203C151.436 58.8229 152.811 55.9526 152.811 53.2015H146.811ZM145.346 57.2621C145.45 57.093 145.475 57.1123 145.201 57.3736C144.981 57.5825 144.672 57.8522 144.282 58.1677C143.506 58.7963 142.52 59.5213 141.54 60.1795L144.887 65.1592C145.993 64.4159 147.126 63.5858 148.059 62.8301C148.524 62.4535 148.966 62.0737 149.341 61.7166C149.66 61.4117 150.12 60.9482 150.447 60.4203L145.346 57.2621ZM142.05 59.9044C141.122 60.2951 140.151 60.4896 139.146 60.4896V66.4896C140.945 66.4896 142.708 66.1373 144.378 65.4342L142.05 59.9044ZM139.146 60.4896C138.142 60.4896 137.171 60.2951 136.243 59.9044L133.915 65.4342C135.585 66.1373 137.348 66.4896 139.146 66.4896V60.4896ZM136.953 60.3267C135.227 58.9461 132.969 56.9711 132.1 55.9128L127.462 59.7187C128.781 61.3265 131.513 63.6581 133.205 65.0119L136.953 60.3267ZM132.781 57.8158C132.781 57.8157 132.782 57.7359 132.778 57.6505C132.775 57.5597 132.764 57.3738 132.719 57.1463C132.602 56.5627 132.317 56.0068 131.868 55.5578L127.626 59.8004C127.452 59.6265 127.269 59.3981 127.115 59.1089C126.962 58.8199 126.88 58.5463 126.835 58.323C126.794 58.1168 126.786 57.9544 126.783 57.8903C126.781 57.8316 126.781 57.7817 126.781 57.8158H132.781ZM132.632 56.8549C132.544 56.5469 132.404 56.1245 132.281 55.7463C132.146 55.335 132.003 54.8929 131.87 54.4462C131.736 53.996 131.623 53.5771 131.545 53.218C131.506 53.0403 131.48 52.8952 131.465 52.7819C131.448 52.6634 131.448 52.6144 131.448 52.6205H125.448C125.448 53.8059 125.844 55.2353 126.12 56.161C126.278 56.6884 126.442 57.1948 126.577 57.6081C126.723 58.0545 126.814 58.3328 126.862 58.5032L132.632 56.8549ZM117.895 52.6547C117.895 55.5767 119.07 58.858 119.822 61.1453L125.522 59.2714C124.633 56.5685 123.895 54.3811 123.895 52.6547H117.895ZM119.73 60.7967C119.792 61.1049 119.878 61.3502 119.931 61.4925C119.955 61.5555 119.982 61.6238 119.985 61.6322C119.997 61.6612 119.981 61.6239 119.963 61.5672L125.655 59.6698C125.635 59.6112 125.617 59.5612 125.603 59.5251C125.59 59.4892 125.578 59.4577 125.57 59.4383C125.566 59.4284 125.562 59.4182 125.559 59.4117C125.556 59.4042 125.554 59.3992 125.553 59.3947C125.549 59.3858 125.549 59.384 125.549 59.3857C125.551 59.3892 125.56 59.4146 125.572 59.4535C125.584 59.4931 125.6 59.5497 125.614 59.62L119.73 60.7967ZM125.809 60.6185C125.809 60.3844 125.781 60.1982 125.763 60.0958C125.744 59.9843 125.722 59.894 125.706 59.8363C125.677 59.7254 125.647 59.6374 125.636 59.6037C125.622 59.5638 125.609 59.5282 125.605 59.5164C125.598 59.4969 125.597 59.495 125.595 59.4899C125.59 59.4754 125.622 59.5596 125.648 59.6884L119.764 60.8651C119.795 61.0194 119.831 61.1531 119.863 61.2595C119.895 61.3657 119.925 61.4532 119.945 61.5079C119.954 61.5328 119.963 61.5586 119.965 61.5645C119.97 61.578 119.966 61.5654 119.959 61.5458C119.955 61.5344 119.948 61.5137 119.94 61.4869C119.931 61.4609 119.919 61.4189 119.905 61.3658C119.891 61.3154 119.871 61.2317 119.852 61.126C119.843 61.0716 119.832 61.0027 119.824 60.9223C119.816 60.843 119.809 60.7396 119.809 60.6185H125.809ZM119.949 61.4585L120.564 62.894L126.079 60.5305L125.463 59.095L119.949 61.4585ZM120.834 63.3902C122.004 65.1238 123.862 66.9725 125.411 68.3726C126.939 69.7541 128.511 71.0056 129.25 71.4544L132.364 66.3257C132.364 66.3257 132.275 66.2689 132.074 66.1198C131.89 65.9836 131.654 65.8023 131.379 65.5813C130.827 65.1396 130.146 64.565 129.435 63.9216C127.959 62.5873 126.553 61.1377 125.808 60.0344L120.834 63.3902ZM129.28 71.4728L130.032 71.9171L133.085 66.7516L132.333 66.3072L129.28 71.4728ZM130.264 72.0408C133.052 73.374 136.027 74.0092 139.146 74.0092V68.0092C136.866 68.0092 134.782 67.5506 132.853 66.6279L130.264 72.0408ZM139.146 74.0092C142.026 74.0092 145.058 73.594 147.967 72.0541L145.16 66.7513C143.42 67.6723 141.462 68.0092 139.146 68.0092V74.0092ZM147.975 72.0498L148.488 71.7763L145.664 66.4822L145.152 66.7557L147.975 72.0498ZM148.522 71.7579C149.436 71.2554 150.653 70.3258 151.598 69.6245L148.023 64.8059C146.849 65.6769 146.084 66.2512 145.63 66.5006L148.522 71.7579ZM146.811 67.2152V69.9154H152.811V67.2152H146.811ZM149.811 72.9154H157.33V66.9154H149.811V72.9154ZM160.33 69.9154V53.5092H154.33V69.9154H160.33ZM160.33 53.5092C160.33 53.4766 160.332 53.4221 160.342 53.2581C160.349 53.1316 160.364 52.8956 160.364 52.6547H154.364C154.364 52.6872 154.362 52.7417 154.352 52.9057C154.345 53.0322 154.33 53.2683 154.33 53.5092H160.33ZM160.364 52.6547V52.6205H154.364V52.6547H160.364ZM160.364 52.6205V52.5863H154.364V52.6205H160.364ZM160.364 52.5863C160.364 52.3454 160.349 52.1094 160.342 51.9829C160.332 51.8188 160.33 51.7644 160.33 51.7318H154.33C154.33 51.9727 154.345 52.2087 154.352 52.3352C154.362 52.4993 154.364 52.5538 154.364 52.5863H160.364ZM160.33 51.7318V35.223H154.33V51.7318H160.33ZM157.33 32.223H149.811V38.223H157.33V32.223ZM146.811 35.223V38.0258H152.811V35.223H146.811ZM151.598 35.6165C150.653 34.9152 149.436 33.9856 148.522 33.483L145.63 38.7403C146.084 38.9898 146.849 39.564 148.023 40.4351L151.598 35.6165ZM148.488 33.4646L147.975 33.1912L145.152 38.4853L145.664 38.7588L148.488 33.4646ZM147.967 33.1869C145.058 31.6469 142.026 31.2318 139.146 31.2318V37.2318C141.462 37.2318 143.42 37.5686 145.16 38.4896L147.967 33.1869ZM139.146 31.2318C136.027 31.2318 133.052 31.867 130.264 33.2002L132.853 38.613C134.782 37.6904 136.866 37.2318 139.146 37.2318V31.2318ZM130.032 33.3238L129.28 33.7682L132.333 38.9337L133.085 38.4894L130.032 33.3238ZM128.922 34.0171C128.521 34.3408 127.055 35.4823 125.47 36.8884C123.931 38.254 122.038 40.0774 120.839 41.8442L125.804 45.2132C126.553 44.1089 127.958 42.7023 129.452 41.3763C130.901 40.0907 132.204 39.0789 132.692 38.6848L128.922 34.0171ZM120.564 42.3469L119.949 43.7825L125.463 46.146L126.079 44.7104L120.564 42.3469ZM125.648 45.5526C125.622 45.6814 125.59 45.7656 125.595 45.7511C125.597 45.746 125.598 45.744 125.605 45.7246C125.609 45.7128 125.622 45.6771 125.636 45.6373C125.647 45.6036 125.677 45.5156 125.706 45.4047C125.722 45.347 125.744 45.2566 125.763 45.1451C125.781 45.0428 125.809 44.8566 125.809 44.6224H119.809C119.809 44.5013 119.816 44.398 119.824 44.3187C119.832 44.2383 119.843 44.1693 119.852 44.1149C119.871 44.0093 119.891 43.9255 119.905 43.8751C119.919 43.8221 119.931 43.78 119.94 43.7541C119.948 43.7273 119.955 43.7066 119.959 43.6952C119.966 43.6756 119.97 43.663 119.965 43.6765C119.963 43.6824 119.954 43.7082 119.945 43.7331C119.925 43.7877 119.895 43.8753 119.863 43.9815C119.831 44.0878 119.795 44.2215 119.764 44.3759L125.648 45.5526ZM119.963 43.6738C119.981 43.6171 119.997 43.5797 119.985 43.6088C119.982 43.6172 119.955 43.6854 119.931 43.7485C119.878 43.8908 119.792 44.1361 119.73 44.4442L125.614 45.6209C125.6 45.6912 125.584 45.7478 125.572 45.7875C125.56 45.8264 125.551 45.8518 125.549 45.8553C125.549 45.8569 125.549 45.8551 125.553 45.8463C125.554 45.8418 125.556 45.8367 125.559 45.8293C125.562 45.8227 125.566 45.8126 125.57 45.8027C125.578 45.7832 125.59 45.7517 125.603 45.7159C125.617 45.6798 125.635 45.6298 125.655 45.5711L119.963 43.6738ZM119.822 44.0956C119.07 46.3829 117.895 49.6643 117.895 52.5863H123.895C123.895 50.8599 124.633 48.6725 125.522 45.9696L119.822 44.0956ZM117.895 52.5863V52.6547H123.895V52.5863H117.895ZM173.907 21.5853L171.805 23.726L172.681 24.5853H173.907V21.5853ZM177.564 21.5853V24.5853H178.791L179.666 23.726L177.564 21.5853ZM179.444 19.7396L181.546 21.8803L182.444 20.9984V19.7396H179.444ZM179.444 16.0824H182.444V14.8398L181.566 13.9611L179.444 16.0824ZM177.564 14.2025L179.686 12.0812L178.807 11.2025H177.564V14.2025ZM173.907 14.2025V11.2025H172.665L171.786 12.0812L173.907 14.2025ZM172.027 16.0824L169.906 13.9611L169.027 14.8398V16.0824H172.027ZM172.027 19.7396H169.027V20.9984L169.926 21.8803L172.027 19.7396ZM172.198 42.7426H175.198V39.7426H172.198V42.7426ZM172.198 69.9496H169.198V72.9496H172.198V69.9496ZM179.718 69.9496V72.9496H182.718V69.9496H179.718ZM179.718 35.223H182.718V32.223H179.718V35.223ZM166.388 35.223V32.223H163.388V35.223H166.388ZM166.388 42.7426H163.388V45.7426H166.388V42.7426ZM173.907 24.5853H177.564V18.5853H173.907V24.5853ZM179.666 23.726L181.546 21.8803L177.343 17.5989L175.463 19.4446L179.666 23.726ZM182.444 19.7396V16.0824H176.444V19.7396H182.444ZM181.566 13.9611L179.686 12.0812L175.443 16.3238L177.323 18.2037L181.566 13.9611ZM177.564 11.2025H173.907V17.2025H177.564V11.2025ZM171.786 12.0812L169.906 13.9611L174.149 18.2037L176.029 16.3238L171.786 12.0812ZM169.027 16.0824V19.7396H175.027V16.0824H169.027ZM169.926 21.8803L171.805 23.726L176.009 19.4446L174.129 17.5989L169.926 21.8803ZM169.198 42.7426V69.9496H175.198V42.7426H169.198ZM172.198 72.9496H179.718V66.9496H172.198V72.9496ZM182.718 69.9496V35.223H176.718V69.9496H182.718ZM179.718 32.223H166.388V38.223H179.718V32.223ZM163.388 35.223V42.7426H169.388V35.223H163.388ZM166.388 45.7426H172.198V39.7426H166.388V45.7426ZM193.185 21.722H196.185V18.722H193.185V21.722ZM193.185 70.0521H190.185V73.0521H193.185V70.0521ZM200.704 70.0521V73.0521H203.704V70.0521H200.704ZM200.704 14.2025H203.704V11.2025H200.704V14.2025ZM187.374 14.2025V11.2025H184.374V14.2025H187.374ZM187.374 21.722H184.374V24.722H187.374V21.722ZM190.185 21.722V70.0521H196.185V21.722H190.185ZM193.185 73.0521H200.704V67.0521H193.185V73.0521ZM203.704 70.0521V18.3724H197.704V70.0521H203.704ZM203.704 18.3724V14.2025H197.704V18.3724H203.704ZM200.704 11.2025H187.374V17.2025H200.704V11.2025ZM184.374 14.2025V21.722H190.374V14.2025H184.374ZM187.374 24.722H193.185V18.722H187.374V24.722ZM228.629 66.7709H231.629V63.7709H228.629V66.7709ZM227.774 73.4017L229.896 75.5231L230.397 75.0223L230.62 74.3504L227.774 73.4017ZM227.569 73.7435L225.448 71.6222L225.282 71.7887L225.143 71.979L227.569 73.7435ZM226.749 74.9056L228.749 77.1414L228.811 77.0858L228.87 77.027L226.749 74.9056ZM224.938 76.1019V79.1019H225.646L226.279 78.7852L224.938 76.1019ZM224.903 76.1019V73.1019H224.273L223.695 73.356L224.903 76.1019ZM219.981 76.2386L218.27 78.7028L218.608 78.9371L218.996 79.0721L219.981 76.2386ZM217.145 74.017L219.356 71.9898L217.71 70.1945L215.615 71.4361L217.145 74.017ZM210.685 77.8451L209.155 75.2642L206.553 76.8063L208.116 79.3957L210.685 77.8451ZM216.119 82.6986L217.663 80.1261L217.655 80.1213L216.119 82.6986ZM216.632 83.0062L218.198 80.4477L218.187 80.4407L218.175 80.4337L216.632 83.0062ZM228.048 82.9379L227.099 80.0918L226.919 80.1519L226.748 80.2341L228.048 82.9379ZM231.808 80.4427L233.807 82.6797L233.829 82.6593L233.852 82.6384L231.808 80.4427ZM233.961 77.7084L236.474 79.3472L236.479 79.3389L236.484 79.3306L233.961 77.7084ZM234.269 77.2299L236.792 78.8521L236.858 78.7494L236.916 78.6416L234.269 77.2299ZM234.542 76.7172L231.97 75.1737L231.931 75.2386L231.895 75.3054L234.542 76.7172ZM234.85 75.8969L232.026 74.8845L231.975 75.0247L231.939 75.1692L234.85 75.8969ZM236.148 35.223H239.148V32.223H236.148V35.223ZM228.629 35.223V32.223H225.629V35.223H228.629ZM228.629 59.2513V62.2513H231.629V59.2513H228.629ZM217.452 59.2513H214.452V62.2513H217.452V59.2513ZM217.452 35.223H220.452V32.223H217.452V35.223ZM209.933 35.223V32.223H206.933V35.223H209.933ZM209.933 66.7709H206.933V69.7709H209.933V66.7709ZM225.629 66.7709V70.223H231.629V66.7709H225.629ZM225.629 70.223C225.629 69.9679 225.676 69.9228 225.562 70.3739C225.463 70.7643 225.275 71.4126 224.928 72.4531L230.62 74.3504C230.991 73.2376 231.23 72.4332 231.38 71.841C231.514 71.3093 231.629 70.7515 231.629 70.223H225.629ZM225.653 71.2804L225.619 71.3146L229.862 75.5572L229.896 75.5231L225.653 71.2804ZM225.619 71.3146C225.486 71.447 225.366 71.5894 225.26 71.7403C225.153 71.891 225.068 72.0371 225.001 72.1712C224.935 72.303 224.889 72.4173 224.859 72.4979C224.832 72.5712 224.81 72.6365 224.809 72.641C224.802 72.6621 224.815 72.6225 224.832 72.5748C224.853 72.5199 224.889 72.4312 224.942 72.325C224.996 72.2165 225.065 72.0961 225.154 71.971C225.243 71.8457 225.341 71.729 225.448 71.6222L229.691 75.8649C229.823 75.7324 229.943 75.59 230.05 75.4391C230.157 75.2884 230.241 75.1423 230.308 75.0083C230.374 74.8764 230.42 74.7621 230.45 74.6815C230.478 74.6082 230.499 74.543 230.501 74.5384C230.508 74.5173 230.495 74.557 230.477 74.6046C230.457 74.6596 230.421 74.7483 230.368 74.8545C230.314 74.9629 230.244 75.0834 230.156 75.2084C230.067 75.3337 229.968 75.4504 229.862 75.5572L225.619 71.3146ZM225.143 71.979C225.033 72.1301 224.932 72.281 224.854 72.4003C224.814 72.4615 224.774 72.5227 224.739 72.5756C224.703 72.6309 224.672 72.6783 224.643 72.7233C224.581 72.8173 224.544 72.8698 224.523 72.8988C224.493 72.9398 224.532 72.8803 224.628 72.7843L228.87 77.027C229.086 76.8113 229.253 76.5938 229.357 76.4532C229.469 76.3006 229.571 76.1481 229.65 76.0284C229.846 75.7315 229.912 75.6226 229.996 75.508L225.143 71.979ZM224.749 72.6699C224.605 72.7987 224.381 72.9595 224.121 73.121C223.871 73.276 223.662 73.3857 223.596 73.4186L226.279 78.7852C226.618 78.616 227.796 77.9947 228.749 77.1414L224.749 72.6699ZM224.938 73.1019H224.903V79.1019H224.938V73.1019ZM223.695 73.356C223.165 73.5892 222.721 73.683 222.271 73.683V79.683C223.668 79.683 224.933 79.3666 226.112 78.8479L223.695 73.356ZM222.271 73.683C221.946 73.683 221.581 73.6189 220.967 73.4052L218.996 79.0721C219.954 79.4053 221.025 79.683 222.271 79.683V73.683ZM221.693 73.7745C221.119 73.3764 220.55 72.9568 220.09 72.5974C219.86 72.4175 219.669 72.2624 219.526 72.1397C219.363 71.9998 219.326 71.9567 219.356 71.9898L214.933 76.0441C215.311 76.4567 215.901 76.9384 216.395 77.325C216.952 77.7602 217.613 78.2465 218.27 78.7028L221.693 73.7745ZM215.615 71.4361L209.155 75.2642L212.214 80.426L218.674 76.5978L215.615 71.4361ZM208.116 79.3957C208.915 80.7192 210.166 81.9436 211.267 82.8788C212.41 83.8496 213.631 84.7084 214.584 85.2759L217.655 80.1213C217.001 79.7318 216.051 79.0696 215.152 78.3058C214.211 77.5064 213.547 76.7825 213.253 76.2945L208.116 79.3957ZM214.576 85.2711L215.088 85.5787L218.175 80.4337L217.663 80.1261L214.576 85.2711ZM215.065 85.5648C217.498 87.0542 220.248 87.2025 222.271 87.2025V81.2025C220.399 81.2025 219.115 81.009 218.198 80.4477L215.065 85.5648ZM222.271 87.2025C224.766 87.2025 227.13 86.7079 229.348 85.6416L226.748 80.2341C225.411 80.8768 223.947 81.2025 222.271 81.2025V87.2025ZM228.997 85.7839C229.51 85.6128 230.306 85.1804 231.014 84.7446C231.82 84.2484 232.836 83.5469 233.807 82.6797L229.809 78.2058C229.173 78.7741 228.463 79.269 227.868 79.6357C227.574 79.8167 227.324 79.9565 227.146 80.0497C226.898 80.1797 226.92 80.1517 227.099 80.0918L228.997 85.7839ZM233.852 82.6384C235.153 81.427 235.989 80.0906 236.474 79.3472L231.448 76.0696C230.908 76.8984 230.445 77.6128 229.763 78.2471L233.852 82.6384ZM236.484 79.3306L236.792 78.8521L231.745 75.6076L231.437 76.0861L236.484 79.3306ZM236.916 78.6416L237.189 78.1289L231.895 75.3054L231.621 75.8181L236.916 78.6416ZM237.114 78.2607C237.317 77.9227 237.464 77.5351 237.492 77.4638C237.507 77.4255 237.521 77.3901 237.531 77.3656C237.536 77.3524 237.539 77.3431 237.542 77.3351C237.545 77.327 237.547 77.3242 237.547 77.3244C237.546 77.3247 237.546 77.3269 237.544 77.3306C237.543 77.3341 237.54 77.3406 237.536 77.3492C237.532 77.3585 237.513 77.4049 237.484 77.4659C237.47 77.4953 237.44 77.5585 237.396 77.6368C237.377 77.6696 237.252 77.9001 237.033 78.149C236.951 78.2424 236.63 78.6081 236.079 78.8727C235.773 79.0197 235.271 79.1958 234.634 79.1647C233.946 79.1311 233.324 78.8647 232.845 78.4603C232.044 77.7833 231.875 76.9309 231.843 76.7765C231.785 76.493 231.781 76.2651 231.781 76.1703H237.781C237.781 76.0744 237.778 75.8457 237.719 75.5615C237.687 75.4065 237.518 74.5537 236.717 73.8765C236.238 73.4719 235.616 73.2055 234.927 73.1718C234.291 73.1408 233.788 73.3168 233.482 73.464C232.93 73.7287 232.609 74.0949 232.526 74.1889C232.306 74.4389 232.18 74.6713 232.16 74.7068C232.114 74.7879 232.082 74.8545 232.066 74.888C232.013 74.999 231.973 75.102 231.97 75.1102C231.957 75.1434 231.943 75.1797 231.935 75.2009C231.925 75.2271 231.916 75.2483 231.908 75.2699C231.842 75.4378 231.869 75.3407 231.97 75.1737L237.114 78.2607ZM237.781 76.1703C237.781 76.2884 237.774 76.386 237.768 76.4533C237.761 76.5226 237.753 76.5803 237.746 76.6222C237.733 76.7031 237.72 76.7645 237.713 76.7932C237.701 76.8467 237.691 76.8818 237.697 76.8614C237.699 76.8554 237.733 76.7341 237.76 76.6245L231.939 75.1692C231.932 75.1963 231.932 75.1946 231.908 75.2827C231.901 75.3092 231.88 75.3849 231.861 75.4716C231.851 75.5168 231.834 75.5929 231.819 75.6864C231.807 75.7652 231.781 75.9436 231.781 76.1703H237.781ZM237.674 76.9092C238.315 75.1208 239.148 72.6181 239.148 70.223H233.148C233.148 71.451 232.683 73.0499 232.026 74.8845L237.674 76.9092ZM239.148 70.223V35.223H233.148V70.223H239.148ZM236.148 32.223H228.629V38.223H236.148V32.223ZM225.629 35.223V59.2513H231.629V35.223H225.629ZM228.629 56.2513H217.452V62.2513H228.629V56.2513ZM220.452 59.2513V35.223H214.452V59.2513H220.452ZM217.452 32.223H209.933V38.223H217.452V32.223ZM206.933 35.223V66.7709H212.933V35.223H206.933ZM209.933 69.7709H228.629V63.7709H209.933V69.7709ZM253.238 46.3998L255.789 47.9788L255.812 47.9412L255.835 47.9029L253.238 46.3998ZM257.921 42.5717L256.757 39.8067L256.521 39.9061L256.305 40.0441L257.921 42.5717ZM266.056 42.5717L267.93 40.229L267.604 39.9686L267.22 39.8067L266.056 42.5717ZM271.354 47.4252H274.354V46.3519L273.673 45.5222L271.354 47.4252ZM271.388 47.5619L274.272 46.7377L274.059 45.9903L273.509 45.4406L271.388 47.5619ZM271.388 57.6791L273.509 59.8004L274.059 59.2507L274.272 58.5032L271.388 57.6791ZM271.354 57.8158L273.673 59.7187L274.354 58.889V57.8158H271.354ZM266.056 62.6693L267.22 65.4342L267.604 65.2724L267.93 65.0119L266.056 62.6693ZM257.921 62.6693L256.286 65.1846L256.51 65.3304L256.757 65.4342L257.921 62.6693ZM253.238 58.8754L250.671 60.4276L250.675 60.4337L250.678 60.4397L253.238 58.8754ZM251.324 69.9154V72.9154H254.324V69.9154H251.324ZM251.324 67.2152L253.112 64.8059L248.324 61.2539V67.2152H251.324ZM254.059 69.1293L252.613 71.7579L252.63 71.7672L252.647 71.7763L254.059 69.1293ZM254.571 69.4027L253.16 72.0498L253.168 72.0541L254.571 69.4027ZM269.576 69.3344L270.871 72.0408L271.017 71.9707L271.155 71.8851L269.576 69.3344ZM270.294 68.89L271.873 71.4408L271.883 71.4348L271.892 71.4287L270.294 68.89ZM277.813 61.7123L280.291 63.4042L280.456 63.1627L280.571 62.894L277.813 61.7123ZM278.429 60.2767L281.37 60.8651L275.671 59.095L278.429 60.2767ZM278.326 60.6185H275.326L281.172 61.5672L278.326 60.6185ZM278.463 60.2084L275.613 59.2714L275.557 59.443L275.521 59.62L278.463 60.2084ZM278.463 45.0326L275.521 45.6209L275.557 45.798L275.613 45.9696L278.463 45.0326ZM278.326 44.6224L281.172 43.6738L275.326 44.6224H278.326ZM278.429 44.9642L275.671 46.146L281.37 44.3759L278.429 44.9642ZM277.813 43.5287L280.571 42.3469L280.454 42.0746L280.286 41.8304L277.813 43.5287ZM270.294 36.351L272.179 34.0171L272.033 33.8991L271.873 33.8002L270.294 36.351ZM269.576 35.9066L271.155 33.3558L271.017 33.2703L270.871 33.2002L269.576 35.9066ZM254.571 35.8383L253.168 33.1869L253.16 33.1912L254.571 35.8383ZM254.059 36.1117L252.647 33.4646L252.63 33.4737L252.613 33.483L254.059 36.1117ZM251.324 38.0258H248.324V43.9871L253.112 40.4351L251.324 38.0258ZM251.324 14.2025H254.324V11.2025H251.324V14.2025ZM243.805 14.2025V11.2025H240.805V14.2025H243.805ZM243.805 69.9154H240.805V72.9154H243.805V69.9154ZM254.324 52.0394C254.324 50.9623 255.001 49.2526 255.789 47.9788L250.687 44.8207C249.699 46.418 248.324 49.2884 248.324 52.0394H254.324ZM255.835 47.9029C255.7 48.1358 255.633 48.1509 255.925 47.8675C256.142 47.657 256.454 47.3801 256.843 47.0598C257.623 46.4196 258.603 45.6962 259.537 45.0992L256.305 40.0441C255.154 40.7801 253.981 41.6461 253.034 42.4243C252.561 42.8133 252.116 43.2029 251.746 43.5627C251.45 43.8497 250.965 44.339 250.642 44.8967L255.835 47.9029ZM259.085 45.3366C260.013 44.9459 260.984 44.7513 261.988 44.7513V38.7513C260.19 38.7513 258.427 39.1037 256.757 39.8067L259.085 45.3366ZM261.988 44.7513C262.992 44.7513 263.964 44.9459 264.891 45.3366L267.22 39.8067C265.55 39.1037 263.787 38.7513 261.988 38.7513V44.7513ZM264.182 44.9143C265.907 46.2949 268.166 48.2699 269.034 49.3281L273.673 45.5222C272.354 43.9144 269.622 41.5828 267.93 40.229L264.182 44.9143ZM268.354 47.4252C268.354 47.4253 268.353 47.505 268.356 47.5905C268.36 47.6813 268.371 47.8671 268.416 48.0947C268.533 48.6783 268.817 49.2341 269.266 49.6832L273.509 45.4406C273.683 45.6145 273.866 45.8429 274.019 46.1321C274.172 46.421 274.255 46.6947 274.3 46.918C274.341 47.1242 274.349 47.2866 274.352 47.3507C274.354 47.4094 274.354 47.4593 274.354 47.4252H268.354ZM268.503 48.3861C268.591 48.6941 268.731 49.1165 268.854 49.4947C268.988 49.906 269.132 50.3481 269.265 50.7948C269.399 51.245 269.512 51.6639 269.59 52.0229C269.629 52.2007 269.654 52.3458 269.67 52.4591C269.686 52.5775 269.687 52.6266 269.687 52.6205H275.687C275.687 51.4351 275.291 50.0057 275.015 49.08C274.857 48.5526 274.693 48.0461 274.558 47.6328C274.412 47.1865 274.321 46.9082 274.272 46.7377L268.503 48.3861ZM269.687 52.6205C269.687 52.6144 269.686 52.6634 269.67 52.7819C269.654 52.8952 269.629 53.0403 269.59 53.218C269.512 53.5771 269.399 53.996 269.265 54.4462C269.132 54.8929 268.988 55.335 268.854 55.7463C268.731 56.1245 268.591 56.5469 268.503 56.8549L274.272 58.5032C274.321 58.3328 274.412 58.0545 274.558 57.6081C274.693 57.1948 274.857 56.6884 275.015 56.161C275.291 55.2353 275.687 53.8059 275.687 52.6205H269.687ZM269.266 55.5578C268.817 56.0068 268.533 56.5627 268.416 57.1463C268.371 57.3738 268.36 57.5597 268.356 57.6505C268.353 57.7359 268.354 57.8157 268.354 57.8158H274.354C274.354 57.7817 274.354 57.8316 274.352 57.8903C274.349 57.9544 274.341 58.1168 274.3 58.323C274.255 58.5463 274.172 58.8199 274.019 59.1089C273.866 59.3981 273.683 59.6265 273.509 59.8004L269.266 55.5578ZM269.034 55.9128C268.166 56.9711 265.907 58.9461 264.182 60.3267L267.93 65.0119C269.622 63.6581 272.354 61.3265 273.673 59.7187L269.034 55.9128ZM264.891 59.9044C263.964 60.2951 262.992 60.4896 261.988 60.4896V66.4896C263.787 66.4896 265.55 66.1373 267.22 65.4342L264.891 59.9044ZM261.988 60.4896C260.984 60.4896 260.013 60.2951 259.085 59.9044L256.757 65.4342C258.427 66.1373 260.19 66.4896 261.988 66.4896V60.4896ZM259.556 60.154C258.627 59.5502 257.636 58.8191 256.844 58.1752C256.447 57.853 256.127 57.5739 255.902 57.3609C255.597 57.0729 255.66 57.0856 255.798 57.311L250.678 60.4397C251.004 60.9727 251.49 61.4468 251.779 61.7197C252.146 62.0674 252.588 62.4484 253.059 62.8312C254.002 63.5971 255.164 64.4554 256.286 65.1846L259.556 60.154ZM255.805 57.3231C254.995 55.9828 254.324 54.3094 254.324 53.2015H248.324C248.324 55.9902 249.704 58.8284 250.671 60.4276L255.805 57.3231ZM254.324 53.2015V52.0394H248.324V53.2015H254.324ZM254.324 69.9154V67.2152H248.324V69.9154H254.324ZM249.537 69.6245C250.482 70.3258 251.699 71.2554 252.613 71.7579L255.504 66.5006C255.051 66.2512 254.286 65.6769 253.112 64.8059L249.537 69.6245ZM252.647 71.7763L253.16 72.0498L255.983 66.7557L255.47 66.4822L252.647 71.7763ZM253.168 72.0541C256.076 73.594 259.109 74.0092 261.988 74.0092V68.0092C259.673 68.0092 257.715 67.6723 255.975 66.7513L253.168 72.0541ZM261.988 74.0092C265.108 74.0092 268.083 73.374 270.871 72.0408L268.282 66.6279C266.353 67.5506 264.269 68.0092 261.988 68.0092V74.0092ZM271.155 71.8851L271.873 71.4408L268.715 66.3392L267.997 66.7836L271.155 71.8851ZM271.892 71.4287C272.582 70.9946 274.141 69.7563 275.688 68.3651C277.243 66.9666 279.12 65.1188 280.291 63.4042L275.336 60.0204C274.593 61.1085 273.171 62.559 271.676 63.9035C270.956 64.5509 270.267 65.1314 269.71 65.5792C269.431 65.8031 269.192 65.9882 269.005 66.1284C268.912 66.1985 268.836 66.2535 268.778 66.2944C268.716 66.3381 268.691 66.3539 268.696 66.3513L271.892 71.4287ZM280.571 62.894L281.186 61.4585L275.671 59.095L275.056 60.5305L280.571 62.894ZM275.487 59.6884C275.513 59.5596 275.545 59.4754 275.539 59.4899C275.538 59.495 275.537 59.4969 275.53 59.5164C275.525 59.5282 275.513 59.5638 275.499 59.6037C275.487 59.6374 275.458 59.7254 275.428 59.8363C275.413 59.894 275.391 59.9843 275.371 60.0958C275.354 60.1982 275.326 60.3844 275.326 60.6185H281.326C281.326 60.7396 281.319 60.843 281.311 60.9223C281.302 61.0027 281.292 61.0716 281.282 61.126C281.264 61.2317 281.243 61.3154 281.23 61.3658C281.216 61.4189 281.203 61.4609 281.195 61.4869C281.187 61.5137 281.18 61.5344 281.176 61.5458C281.169 61.5654 281.165 61.578 281.169 61.5645C281.172 61.5586 281.181 61.5328 281.19 61.5079C281.209 61.4532 281.24 61.3657 281.272 61.2595C281.304 61.1531 281.34 61.0194 281.37 60.8651L275.487 59.6884ZM281.172 61.5672C281.153 61.6239 281.138 61.6612 281.149 61.6322C281.153 61.6238 281.18 61.5555 281.204 61.4925C281.257 61.3502 281.343 61.1049 281.405 60.7967L275.521 59.62C275.535 59.5497 275.551 59.4931 275.563 59.4535C275.575 59.4146 275.584 59.3892 275.586 59.3857C275.586 59.384 275.586 59.3858 275.582 59.3947C275.58 59.3992 275.578 59.4042 275.575 59.4117C275.573 59.4182 275.569 59.4284 275.565 59.4383C275.557 59.4577 275.545 59.4892 275.531 59.5251C275.518 59.5612 275.5 59.6112 275.48 59.6698L281.172 61.5672ZM281.313 61.1453C282.077 58.8196 283.206 55.567 283.206 52.6547H277.206C277.206 54.3908 276.489 56.6069 275.613 59.2714L281.313 61.1453ZM283.206 52.6547V52.5863H277.206V52.6547H283.206ZM283.206 52.5863C283.206 49.674 282.077 46.4213 281.313 44.0956L275.613 45.9696C276.489 48.6341 277.206 50.8502 277.206 52.5863H283.206ZM281.405 44.4442C281.343 44.1361 281.257 43.8908 281.204 43.7485C281.18 43.6854 281.153 43.6172 281.149 43.6088C281.138 43.5797 281.153 43.6171 281.172 43.6738L275.48 45.5711C275.5 45.6298 275.518 45.6798 275.531 45.7159C275.545 45.7517 275.557 45.7832 275.565 45.8027C275.569 45.8126 275.573 45.8227 275.575 45.8293C275.578 45.8367 275.58 45.8418 275.582 45.8463C275.586 45.8551 275.586 45.8569 275.586 45.8553C275.584 45.8518 275.575 45.8264 275.563 45.7875C275.551 45.7478 275.535 45.6912 275.521 45.6209L281.405 44.4442ZM275.326 44.6224C275.326 44.8566 275.354 45.0428 275.371 45.1451C275.391 45.2566 275.413 45.347 275.428 45.4047C275.458 45.5156 275.487 45.6036 275.499 45.6373C275.513 45.6771 275.525 45.7128 275.53 45.7246C275.537 45.744 275.538 45.746 275.539 45.7511C275.545 45.7656 275.513 45.6814 275.487 45.5526L281.37 44.3759C281.34 44.2215 281.304 44.0878 281.272 43.9815C281.24 43.8753 281.209 43.7877 281.19 43.7331C281.181 43.7082 281.172 43.6824 281.169 43.6765C281.165 43.663 281.169 43.6756 281.176 43.6952C281.18 43.7066 281.187 43.7273 281.195 43.7541C281.203 43.78 281.216 43.8221 281.23 43.8751C281.243 43.9255 281.264 44.0093 281.282 44.1149C281.292 44.1693 281.302 44.2383 281.311 44.3187C281.319 44.398 281.326 44.5013 281.326 44.6224H275.326ZM281.186 43.7825L280.571 42.3469L275.056 44.7104L275.671 46.146L281.186 43.7825ZM280.286 41.8304C279.089 40.0863 277.189 38.2659 275.645 36.8988C274.053 35.4902 272.582 34.3426 272.179 34.0171L268.409 38.6848C268.895 39.0771 270.209 40.0999 271.668 41.3915C273.174 42.7246 274.59 44.1341 275.34 45.227L280.286 41.8304ZM271.873 33.8002L271.155 33.3558L267.997 38.4574L268.715 38.9017L271.873 33.8002ZM270.871 33.2002C268.083 31.867 265.108 31.2318 261.988 31.2318V37.2318C264.269 37.2318 266.353 37.6904 268.282 38.613L270.871 33.2002ZM261.988 31.2318C259.109 31.2318 256.076 31.6469 253.168 33.1869L255.975 38.4896C257.715 37.5686 259.673 37.2318 261.988 37.2318V31.2318ZM253.16 33.1912L252.647 33.4646L255.47 38.7588L255.983 38.4853L253.16 33.1912ZM252.613 33.483C251.699 33.9856 250.482 34.9152 249.537 35.6165L253.112 40.4351C254.286 39.564 255.051 38.9898 255.504 38.7403L252.613 33.483ZM254.324 38.0258V14.2025H248.324V38.0258H254.324ZM251.324 11.2025H243.805V17.2025H251.324V11.2025ZM240.805 14.2025V69.9154H246.805V14.2025H240.805ZM243.805 72.9154H251.324V66.9154H243.805V72.9154ZM287.555 52.6547H290.555V49.6547H287.555V52.6547ZM287.555 70.0179H284.555V73.0179H287.555V70.0179ZM295.074 70.0179V73.0179H298.074V70.0179H295.074ZM296.988 46.3998L299.539 47.9788L299.544 47.9715L299.548 47.9641L296.988 46.3998ZM301.773 42.5033L300.532 39.7722L300.327 39.8653L300.138 39.988L301.773 42.5033ZM302.662 41.9564L304.462 39.5564L302.816 38.3222L301.072 39.4124L302.662 41.9564ZM302.799 42.059L304.673 39.7164L304.636 39.6871L304.599 39.659L302.799 42.059ZM303.858 42.6742L305.788 40.3771L305.636 40.2496L305.469 40.1432L303.858 42.6742ZM306.695 45.2035L304.574 47.3248L306.178 48.9285L308.158 47.8228L306.695 45.2035ZM313.429 41.4437L314.891 44.0631L317.913 42.3759L315.814 39.6244L313.429 41.4437ZM308.199 36.5219L309.801 33.9854L309.79 33.9782L309.778 33.9711L308.199 36.5219ZM307.481 36.0775L309.061 33.5267L308.763 33.3423L308.43 33.2315L307.481 36.0775ZM306.832 35.7015L305.264 38.2593L305.304 38.2834L305.344 38.3063L306.832 35.7015ZM298.561 35.6332L296.742 33.2469L296.731 33.2559L296.719 33.2651L298.561 35.6332ZM298.253 35.8724L296.411 33.5044L299.595 38.5557L298.253 35.8724ZM298.321 35.8383L299.733 38.4853L296.98 33.155L298.321 35.8383ZM297.809 36.1117L296.397 33.4646L296.38 33.4737L296.363 33.483L297.809 36.1117ZM295.074 38.0258H292.074V43.9871L296.862 40.4351L295.074 38.0258ZM295.074 35.2572H298.074V32.2572H295.074V35.2572ZM287.555 35.2572V32.2572H284.555V35.2572H287.555ZM287.521 52.6547H284.521V55.6547H287.521V52.6547ZM284.555 52.6547V70.0179H290.555V52.6547H284.555ZM287.555 73.0179H295.074V67.0179H287.555V73.0179ZM298.074 70.0179V52.0394H292.074V70.0179H298.074ZM298.074 52.0394C298.074 50.9623 298.751 49.2526 299.539 47.9788L294.437 44.8207C293.449 46.418 292.074 49.2884 292.074 52.0394H298.074ZM299.548 47.9641C299.409 48.1919 299.348 48.2013 299.67 47.8964C299.907 47.6715 300.243 47.378 300.653 47.0426C301.473 46.3709 302.487 45.6172 303.408 45.0186L300.138 39.988C299.009 40.7224 297.818 41.6093 296.853 42.3988C296.37 42.794 295.917 43.1862 295.543 43.5413C295.252 43.8164 294.756 44.3001 294.428 44.8354L299.548 47.9641ZM303.015 45.2344C303.403 45.058 303.704 44.87 303.92 44.726C304.232 44.5184 304.141 44.5701 304.252 44.5004L301.072 39.4124C300.946 39.4915 300.835 39.5671 300.76 39.6184C300.671 39.6797 300.638 39.7029 300.592 39.7337C300.526 39.7777 300.52 39.7777 300.532 39.7722L303.015 45.2344ZM300.862 44.3564L300.999 44.459L304.599 39.659L304.462 39.5564L300.862 44.3564ZM300.925 44.4016C301.337 44.7315 301.725 44.9354 301.948 45.0495C302.214 45.1855 302.213 45.1829 302.248 45.2052L305.469 40.1432C305.283 40.025 305.115 39.932 304.98 39.8612C304.876 39.8061 304.714 39.7251 304.683 39.7093C304.556 39.644 304.602 39.6599 304.673 39.7164L300.925 44.4016ZM301.929 44.9713C302.793 45.6973 303.859 46.6097 304.574 47.3248L308.817 43.0822C307.891 42.1567 306.633 41.0866 305.788 40.3771L301.929 44.9713ZM308.158 47.8228L314.891 44.0631L311.966 38.8244L305.233 42.5842L308.158 47.8228ZM315.814 39.6244C314.873 38.3905 313.562 37.114 312.484 36.1468C311.437 35.2084 310.355 34.3351 309.801 33.9854L306.597 39.0583C306.575 39.0441 306.617 39.0702 306.746 39.1671C306.86 39.2533 307.011 39.3703 307.19 39.5153C307.55 39.8052 307.999 40.1847 308.478 40.6139C309.467 41.501 310.446 42.4804 311.043 43.2631L315.814 39.6244ZM309.778 33.9711L309.061 33.5267L305.902 38.6283L306.62 39.0726L309.778 33.9711ZM308.43 33.2315C308.525 33.2631 308.599 33.2934 308.644 33.3128C308.692 33.3332 308.729 33.3508 308.752 33.3624C308.798 33.3847 308.827 33.4007 308.83 33.4025C308.836 33.4058 308.833 33.4046 308.82 33.3966C308.807 33.3889 308.789 33.3783 308.765 33.3636C308.741 33.3488 308.714 33.3327 308.682 33.3131C308.652 33.2944 308.616 33.2723 308.579 33.2501C308.508 33.2069 308.416 33.1516 308.32 33.0968L305.344 38.3063C305.417 38.3484 305.48 38.3885 305.651 38.4923C305.716 38.5318 305.812 38.5895 305.911 38.6446C305.961 38.6727 306.033 38.7113 306.115 38.7519C306.183 38.785 306.336 38.858 306.533 38.9236L308.43 33.2315ZM308.4 33.1437C307.482 32.5816 305.359 31.1293 302.56 31.1293V37.1293C303.383 37.1293 304.062 37.5227 305.264 38.2593L308.4 33.1437ZM302.56 31.1293C299.617 31.1293 297.578 32.6099 296.742 33.2469L300.379 38.0195C300.978 37.5627 301.674 37.1293 302.56 37.1293V31.1293ZM296.719 33.2651L296.411 33.5044L300.095 38.2405L300.402 38.0012L296.719 33.2651ZM299.595 38.5557L299.663 38.5215L296.98 33.155L296.911 33.1892L299.595 38.5557ZM296.91 33.1912L296.397 33.4646L299.22 38.7588L299.733 38.4853L296.91 33.1912ZM296.363 33.483C295.449 33.9856 294.232 34.9152 293.287 35.6165L296.862 40.4351C298.036 39.564 298.801 38.9898 299.254 38.7403L296.363 33.483ZM298.074 38.0258V35.2572H292.074V38.0258H298.074ZM295.074 32.2572H287.555V38.2572H295.074V32.2572ZM284.555 35.2572V51.7318H290.555V35.2572H284.555ZM284.555 51.7318C284.555 51.7884 284.552 51.859 284.542 52.0268C284.534 52.1667 284.521 52.4037 284.521 52.6547H290.521C290.521 52.598 290.524 52.5274 290.533 52.3596C290.541 52.2198 290.555 51.9828 290.555 51.7318H284.555ZM287.521 55.6547H287.555V49.6547H287.521V55.6547ZM325.323 47.9379L322.439 47.1137L321.346 50.9379H325.323V47.9379ZM325.973 46.3656L323.437 44.7617L323.418 44.7917L323.4 44.8221L325.973 46.3656ZM329.151 42.64L330.493 45.3233L330.511 45.3141L330.53 45.3047L329.151 42.64ZM337.56 42.7084L336.347 45.4524L336.362 45.4592L336.378 45.4658L337.56 42.7084ZM341.183 46.8441L343.94 45.6624L343.894 45.5544L343.839 45.4505L341.183 46.8441ZM341.49 47.9379V50.9379H345.15L344.432 47.3495L341.49 47.9379ZM319.513 62.7035L322.089 61.1657L322.088 61.1653L319.513 62.7035ZM325.118 68.7875L327.145 66.576L327.138 66.5694L327.131 66.5629L325.118 68.7875ZM325.528 69.1635L323.501 71.3749L323.841 71.6868L324.26 71.882L325.528 69.1635ZM326.041 69.4027L327.318 66.6882L327.31 66.6842L326.041 69.4027ZM343.78 68.5824V65.5824H343.101L342.487 65.8753L343.78 68.5824ZM343.814 68.5824V71.5824H344.535L345.176 71.2555L343.814 68.5824ZM348.702 66.1215L350.117 68.7668L353.998 66.691L350.647 63.8375L348.702 66.1215ZM342.481 60.8236L344.427 58.5396L342.915 57.2526L341.14 58.1403L342.481 60.8236ZM329.664 62.7377L327.716 65.0194L328.092 65.3398L328.55 65.5231L329.664 62.7377ZM325.973 58.8412L328.611 57.4123L328.579 57.3543L328.545 57.2977L325.973 58.8412ZM324.913 55.4574V52.4574H321.385L321.952 55.9394L324.913 55.4574ZM349.591 55.4574V58.4574H352.591V55.4574H349.591ZM348.019 43.6996L350.745 42.4471L350.742 42.4405L350.738 42.4339L348.019 43.6996ZM340.772 35.8724L339.475 38.5776L339.487 38.5829L340.772 35.8724ZM326.041 35.8041L324.803 33.0715L324.792 33.0763L324.782 33.0812L326.041 35.8041ZM319.513 42.5033L322.088 44.0415L322.1 44.0221L322.111 44.0025L319.513 42.5033ZM328.208 48.762C328.348 48.271 328.488 48.004 328.545 47.9091L323.4 44.8221C323.047 45.4108 322.709 46.1692 322.439 47.1137L328.208 48.762ZM328.508 47.9695C328.947 47.2755 329.513 46.531 330.025 45.9378C330.28 45.6422 330.496 45.4148 330.651 45.266C330.729 45.1913 330.77 45.1569 330.777 45.1511C330.808 45.1266 330.701 45.2192 330.493 45.3233L327.81 39.9567C327.226 40.2484 326.74 40.7033 326.495 40.9379C326.168 41.2517 325.822 41.6245 325.483 42.0168C324.808 42.7993 324.058 43.7809 323.437 44.7617L328.508 47.9695ZM330.53 45.3047C331.015 45.0537 332.266 44.7172 333.492 44.7172V38.7172C331.505 38.7172 329.27 39.2009 327.773 39.9754L330.53 45.3047ZM333.492 44.7172C334.386 44.7172 335.082 44.8933 336.347 45.4524L338.772 39.9643C337.098 39.2247 335.538 38.7172 333.492 38.7172V44.7172ZM336.378 45.4658C336.152 45.3692 336.133 45.3123 336.357 45.4983C336.528 45.6406 336.762 45.8588 337.027 46.1462C337.565 46.7285 338.125 47.4731 338.526 48.2378L343.839 45.4505C343.147 44.1302 342.253 42.9608 341.433 42.0733C341.019 41.6258 340.597 41.2203 340.192 40.884C339.84 40.5915 339.326 40.2013 338.741 39.9509L336.378 45.4658ZM338.425 48.0259C338.416 48.0052 338.427 48.0271 338.452 48.1126C338.476 48.1977 338.509 48.3303 338.548 48.5262L344.432 47.3495C344.309 46.7331 344.157 46.1677 343.94 45.6624L338.425 48.0259ZM341.49 44.9379H325.323V50.9379H341.49V44.9379ZM314.12 52.6205C314.12 56.7639 315.118 61.1966 316.937 64.2417L322.088 61.1653C320.967 59.2885 320.12 55.9966 320.12 52.6205H314.12ZM316.937 64.2413C317.821 65.723 319.27 67.3014 320.426 68.4702C321.633 69.691 322.751 70.6917 323.105 71.0121L327.131 66.5629C326.767 66.2339 325.766 65.3376 324.692 64.2513C323.566 63.1129 322.571 61.974 322.089 61.1657L316.937 64.2413ZM323.091 70.9989L323.501 71.3749L327.555 66.952L327.145 66.576L323.091 70.9989ZM324.26 71.882L324.772 72.1213L327.31 66.6842L326.797 66.4449L324.26 71.882ZM324.764 72.1172C327.547 73.4268 330.489 73.975 333.492 73.975V67.975C331.231 67.975 329.184 67.5661 327.318 66.6883L324.764 72.1172ZM333.492 73.975C335.194 73.975 337.463 73.5861 339.481 73.1081C341.507 72.6284 343.644 71.9721 345.073 71.2895L342.487 65.8753C341.626 66.2865 339.97 66.8265 338.099 67.2696C336.22 67.7145 334.49 67.975 333.492 67.975V73.975ZM343.78 71.5824H343.814V65.5824H343.78V71.5824ZM345.176 71.2555C346.844 70.406 348.636 69.5588 350.117 68.7668L347.287 63.4761C345.828 64.2564 344.408 64.9131 342.453 65.9093L345.176 71.2555ZM350.647 63.8375L344.427 58.5396L340.536 63.1076L346.757 68.4054L350.647 63.8375ZM341.14 58.1403L339.226 59.0974L341.909 64.4639L343.823 63.5069L341.14 58.1403ZM339.226 59.0974C338.888 59.2664 337.796 59.6208 336.38 59.9544C334.962 60.2886 333.841 60.4554 333.492 60.4554V66.4554C334.613 66.4554 336.346 66.1267 337.756 65.7944C339.169 65.4615 340.88 64.9785 341.909 64.4639L339.226 59.0974ZM333.492 60.4554C332.488 60.4554 331.603 60.2823 330.778 59.9522L328.55 65.5231C330.117 66.1501 331.762 66.4554 333.492 66.4554V60.4554ZM331.612 60.456C330.993 59.9276 330.254 59.228 329.625 58.5724C329.312 58.2457 329.047 57.9516 328.849 57.7124C328.621 57.4377 328.577 57.3499 328.611 57.4123L323.335 60.27C323.777 61.0857 324.63 62.0317 325.294 62.7244C326.05 63.513 326.934 64.3514 327.716 65.0194L331.612 60.456ZM328.545 57.2977C328.5 57.2231 328.379 56.98 328.237 56.5336C328.102 56.1087 327.972 55.5778 327.874 54.9754L321.952 55.9394C322.221 57.5945 322.715 59.243 323.4 60.3847L328.545 57.2977ZM324.913 58.4574H349.591V52.4574H324.913V58.4574ZM352.591 55.4574V51.6976H346.591V55.4574H352.591ZM352.591 51.6976C352.591 49.9356 352.3 48.0233 351.954 46.4333C351.616 44.8798 351.169 43.3701 350.745 42.4471L345.293 44.9521C345.45 45.2938 345.788 46.3133 346.091 47.7078C346.386 49.0658 346.591 50.5202 346.591 51.6976H352.591ZM350.738 42.4339C348.893 38.4691 345.467 34.7791 342.058 33.1619L339.487 38.5829C341.41 39.4951 343.931 42.0258 345.299 44.9653L350.738 42.4339ZM342.069 33.1673C339.167 31.7757 336.502 31.1976 333.492 31.1976V37.1976C335.61 37.1976 337.388 37.5766 339.475 38.5776L342.069 33.1673ZM333.492 31.1976C330.565 31.1976 327.374 31.9063 324.803 33.0715L327.279 38.5366C329.083 37.7194 331.43 37.1976 333.492 37.1976V31.1976ZM324.782 33.0812C322.863 33.9688 321.161 35.557 319.904 36.9574C318.609 38.3997 317.536 39.9266 316.914 41.0041L322.111 44.0025C322.515 43.3027 323.339 42.1122 324.368 40.9655C325.436 39.7767 326.485 38.904 327.3 38.527L324.782 33.0812ZM316.937 40.9651C315.119 44.0085 314.12 48.4062 314.12 52.5863H320.12C320.12 49.1786 320.966 45.92 322.088 44.0415L316.937 40.9651ZM314.12 52.5863V52.6205H320.12V52.5863H314.12ZM364.083 47.5619L361.962 45.4406L361.412 45.9903L361.198 46.7377L364.083 47.5619ZM364.117 47.4252L361.798 45.5222L361.117 46.3519V47.4252H364.117ZM369.415 42.5717L368.251 39.8067L367.867 39.9686L367.541 40.229L369.415 42.5717ZM377.55 42.5717L379.223 40.0818L378.982 39.9196L378.714 39.8067L377.55 42.5717ZM382.232 46.3656L379.696 47.9676L379.707 47.9852L379.718 48.0026L382.232 46.3656ZM377.55 62.6693L378.714 65.4342L378.982 65.3214L379.223 65.1592L377.55 62.6693ZM369.415 62.6693L367.541 65.0119L367.867 65.2724L368.251 65.4342L369.415 62.6693ZM364.117 57.8158H361.117V58.889L361.798 59.7187L364.117 57.8158ZM364.083 57.6791L361.198 58.5032L361.412 59.2507L361.962 59.8004L364.083 57.6791ZM357.008 60.2084L359.95 59.62L359.914 59.443L359.858 59.2714L357.008 60.2084ZM357.145 60.6185L354.298 61.5672L360.145 60.6185H357.145ZM357.042 60.2767L359.799 59.095L354.1 60.8651L357.042 60.2767ZM357.657 61.7123L354.9 62.894L355.012 63.1549L355.17 63.3902L357.657 61.7123ZM365.143 68.89L363.586 71.4544L363.601 71.4637L363.616 71.4728L365.143 68.89ZM365.895 69.3344L364.368 71.9171L364.482 71.984L364.6 72.0408L365.895 69.3344ZM380.899 69.4027L382.303 72.0541L382.311 72.0498L380.899 69.4027ZM381.412 69.1293L382.824 71.7763L382.841 71.7672L382.858 71.7579L381.412 69.1293ZM384.146 67.2152H387.146V61.2539L382.359 64.8059L384.146 67.2152ZM384.146 69.9154H381.146V72.9154H384.146V69.9154ZM391.666 69.9154V72.9154H394.666V69.9154H391.666ZM391.666 35.223H394.666V32.223H391.666V35.223ZM384.146 35.223V32.223H381.146V35.223H384.146ZM384.146 38.0258L382.359 40.4351L387.146 43.9871V38.0258H384.146ZM381.412 36.1117L382.858 33.483L382.841 33.4737L382.824 33.4646L381.412 36.1117ZM380.899 35.8383L382.311 33.1912L382.303 33.1869L380.899 35.8383ZM365.895 35.9066L364.6 33.2002L364.482 33.2569L364.368 33.3238L365.895 35.9066ZM365.143 36.351L363.616 33.7682L363.428 33.8796L363.258 34.0171L365.143 36.351ZM357.657 43.5287L355.175 41.8442L355.013 42.0824L354.9 42.3469L357.657 43.5287ZM357.042 44.9642L354.1 44.3759L359.799 46.146L357.042 44.9642ZM357.145 44.6224H360.145L354.298 43.6738L357.145 44.6224ZM357.008 45.0326L359.858 45.9696L359.914 45.798L359.95 45.6209L357.008 45.0326ZM365.784 52.6205C365.784 52.6266 365.784 52.5775 365.801 52.4591C365.816 52.3458 365.842 52.2007 365.881 52.0229C365.958 51.6639 366.072 51.245 366.206 50.7948C366.339 50.3481 366.482 49.906 366.617 49.4947C366.74 49.1165 366.88 48.6941 366.968 48.3861L361.198 46.7377C361.15 46.9082 361.059 47.1865 360.913 47.6328C360.778 48.0461 360.613 48.5526 360.456 49.08C360.18 50.0057 359.784 51.4351 359.784 52.6205H365.784ZM366.204 49.6832C366.653 49.2341 366.938 48.6783 367.055 48.0947C367.1 47.8671 367.111 47.6813 367.114 47.5905C367.118 47.505 367.117 47.4253 367.117 47.4252H361.117C361.117 47.4593 361.117 47.4094 361.119 47.3507C361.122 47.2866 361.13 47.1242 361.171 46.918C361.216 46.6947 361.298 46.421 361.451 46.1321C361.604 45.8429 361.788 45.6145 361.962 45.4406L366.204 49.6832ZM366.436 49.3281C367.305 48.2699 369.563 46.2949 371.289 44.9143L367.541 40.229C365.849 41.5828 363.117 43.9144 361.798 45.5222L366.436 49.3281ZM370.579 45.3366C371.507 44.9459 372.478 44.7513 373.482 44.7513V38.7513C371.684 38.7513 369.921 39.1037 368.251 39.8067L370.579 45.3366ZM373.482 44.7513C374.487 44.7513 375.458 44.9459 376.386 45.3366L378.714 39.8067C377.044 39.1037 375.281 38.7513 373.482 38.7513V44.7513ZM375.876 45.0615C376.852 45.7176 377.85 46.4526 378.637 47.0864C379.031 47.4045 379.347 47.6765 379.57 47.8854C379.859 48.1565 379.818 48.1603 379.696 47.9676L384.769 44.7636C384.442 44.2462 383.973 43.7886 383.672 43.5064C383.304 43.162 382.866 42.7889 382.402 42.4148C381.471 41.6643 380.332 40.8271 379.223 40.0818L375.876 45.0615ZM379.718 48.0026C380.502 49.2053 381.146 50.9229 381.146 52.0394H387.146C387.146 49.3279 385.877 46.4653 384.746 44.7286L379.718 48.0026ZM381.146 52.0394V53.2015H387.146V52.0394H381.146ZM381.146 53.2015C381.146 54.2786 380.47 55.9884 379.682 57.2621L384.783 60.4203C385.772 58.8229 387.146 55.9526 387.146 53.2015H381.146ZM379.682 57.2621C379.786 57.093 379.811 57.1123 379.537 57.3736C379.317 57.5825 379.008 57.8522 378.618 58.1677C377.842 58.7963 376.855 59.5213 375.876 60.1795L379.223 65.1592C380.329 64.4159 381.462 63.5858 382.395 62.8301C382.86 62.4535 383.302 62.0737 383.676 61.7166C383.996 61.4117 384.456 60.9482 384.783 60.4203L379.682 57.2621ZM376.386 59.9044C375.458 60.2951 374.487 60.4896 373.482 60.4896V66.4896C375.281 66.4896 377.044 66.1373 378.714 65.4342L376.386 59.9044ZM373.482 60.4896C372.478 60.4896 371.507 60.2951 370.579 59.9044L368.251 65.4342C369.921 66.1373 371.684 66.4896 373.482 66.4896V60.4896ZM371.289 60.3267C369.563 58.9461 367.305 56.9711 366.436 55.9128L361.798 59.7187C363.117 61.3265 365.849 63.6581 367.541 65.0119L371.289 60.3267ZM367.117 57.8158C367.117 57.8157 367.118 57.7359 367.114 57.6505C367.111 57.5597 367.1 57.3738 367.055 57.1463C366.938 56.5627 366.653 56.0068 366.204 55.5578L361.962 59.8004C361.788 59.6265 361.604 59.3981 361.451 59.1089C361.298 58.8199 361.216 58.5463 361.171 58.323C361.13 58.1168 361.122 57.9544 361.119 57.8903C361.117 57.8316 361.117 57.7817 361.117 57.8158H367.117ZM366.968 56.8549C366.88 56.5469 366.74 56.1245 366.617 55.7463C366.482 55.335 366.339 54.8929 366.206 54.4462C366.072 53.996 365.958 53.5771 365.881 53.218C365.842 53.0403 365.816 52.8952 365.801 52.7819C365.784 52.6634 365.784 52.6144 365.784 52.6205H359.784C359.784 53.8059 360.18 55.2353 360.456 56.161C360.613 56.6884 360.778 57.1948 360.913 57.6081C361.059 58.0545 361.15 58.3328 361.198 58.5032L366.968 56.8549ZM352.23 52.6547C352.23 55.5767 353.406 58.858 354.158 61.1453L359.858 59.2714C358.969 56.5685 358.23 54.3811 358.23 52.6547H352.23ZM354.066 60.7967C354.128 61.1049 354.214 61.3502 354.267 61.4925C354.291 61.5555 354.318 61.6238 354.321 61.6322C354.333 61.6612 354.317 61.6239 354.298 61.5672L359.991 59.6698C359.971 59.6112 359.953 59.5612 359.939 59.5251C359.926 59.4892 359.913 59.4577 359.906 59.4383C359.902 59.4284 359.898 59.4182 359.895 59.4117C359.892 59.4042 359.89 59.3992 359.889 59.3947C359.885 59.3858 359.885 59.384 359.885 59.3857C359.886 59.3892 359.896 59.4146 359.908 59.4535C359.92 59.4931 359.935 59.5497 359.95 59.62L354.066 60.7967ZM360.145 60.6185C360.145 60.3844 360.117 60.1982 360.099 60.0958C360.08 59.9843 360.058 59.894 360.042 59.8363C360.013 59.7254 359.983 59.6374 359.972 59.6037C359.958 59.5638 359.945 59.5282 359.941 59.5164C359.934 59.4969 359.933 59.495 359.931 59.4899C359.926 59.4754 359.958 59.5596 359.984 59.6884L354.1 60.8651C354.131 61.0194 354.167 61.1531 354.199 61.2595C354.231 61.3657 354.261 61.4532 354.281 61.5079C354.29 61.5328 354.299 61.5586 354.301 61.5645C354.306 61.578 354.302 61.5654 354.295 61.5458C354.291 61.5344 354.284 61.5137 354.276 61.4869C354.267 61.4609 354.255 61.4189 354.241 61.3658C354.227 61.3154 354.207 61.2317 354.188 61.126C354.179 61.0716 354.168 61.0027 354.16 60.9223C354.152 60.843 354.145 60.7396 354.145 60.6185H360.145ZM354.285 61.4585L354.9 62.894L360.415 60.5305L359.799 59.095L354.285 61.4585ZM355.17 63.3902C356.34 65.1238 358.198 66.9725 359.747 68.3726C361.275 69.7541 362.847 71.0056 363.586 71.4544L366.7 66.3257C366.7 66.3257 366.611 66.2689 366.41 66.1198C366.225 65.9836 365.99 65.8023 365.715 65.5813C365.163 65.1396 364.482 64.565 363.771 63.9216C362.295 62.5873 360.889 61.1377 360.144 60.0344L355.17 63.3902ZM363.616 71.4728L364.368 71.9171L367.421 66.7516L366.669 66.3072L363.616 71.4728ZM364.6 72.0408C367.388 73.374 370.363 74.0092 373.482 74.0092V68.0092C371.202 68.0092 369.118 67.5506 367.189 66.6279L364.6 72.0408ZM373.482 74.0092C376.362 74.0092 379.394 73.594 382.303 72.0541L379.496 66.7513C377.756 67.6723 375.798 68.0092 373.482 68.0092V74.0092ZM382.311 72.0498L382.824 71.7763L380 66.4822L379.488 66.7557L382.311 72.0498ZM382.858 71.7579C383.772 71.2554 384.989 70.3258 385.934 69.6245L382.359 64.8059C381.185 65.6769 380.42 66.2512 379.966 66.5006L382.858 71.7579ZM381.146 67.2152V69.9154H387.146V67.2152H381.146ZM384.146 72.9154H391.666V66.9154H384.146V72.9154ZM394.666 69.9154V53.5092H388.666V69.9154H394.666ZM394.666 53.5092C394.666 53.4766 394.668 53.4221 394.678 53.2581C394.685 53.1316 394.7 52.8956 394.7 52.6547H388.7C388.7 52.6872 388.698 52.7417 388.688 52.9057C388.681 53.0322 388.666 53.2683 388.666 53.5092H394.666ZM394.7 52.6547V52.6205H388.7V52.6547H394.7ZM394.7 52.6205V52.5863H388.7V52.6205H394.7ZM394.7 52.5863C394.7 52.3454 394.685 52.1094 394.678 51.9829C394.668 51.8188 394.666 51.7644 394.666 51.7318H388.666C388.666 51.9727 388.681 52.2087 388.688 52.3352C388.698 52.4993 388.7 52.5538 388.7 52.5863H394.7ZM394.666 51.7318V35.223H388.666V51.7318H394.666ZM391.666 32.223H384.146V38.223H391.666V32.223ZM381.146 35.223V38.0258H387.146V35.223H381.146ZM385.934 35.6165C384.989 34.9152 383.772 33.9856 382.858 33.483L379.966 38.7403C380.42 38.9898 381.185 39.564 382.359 40.4351L385.934 35.6165ZM382.824 33.4646L382.311 33.1912L379.488 38.4853L380 38.7588L382.824 33.4646ZM382.303 33.1869C379.394 31.6469 376.362 31.2318 373.482 31.2318V37.2318C375.798 37.2318 377.756 37.5686 379.496 38.4896L382.303 33.1869ZM373.482 31.2318C370.363 31.2318 367.388 31.867 364.6 33.2002L367.189 38.613C369.118 37.6904 371.202 37.2318 373.482 37.2318V31.2318ZM364.368 33.3238L363.616 33.7682L366.669 38.9337L367.421 38.4894L364.368 33.3238ZM363.258 34.0171C362.857 34.3408 361.391 35.4823 359.806 36.8884C358.267 38.254 356.374 40.0774 355.175 41.8442L360.14 45.2132C360.889 44.1089 362.294 42.7023 363.788 41.3763C365.237 40.0907 366.54 39.0789 367.028 38.6848L363.258 34.0171ZM354.9 42.3469L354.285 43.7825L359.799 46.146L360.415 44.7104L354.9 42.3469ZM359.984 45.5526C359.958 45.6814 359.926 45.7656 359.931 45.7511C359.933 45.746 359.934 45.744 359.941 45.7246C359.945 45.7128 359.958 45.6771 359.972 45.6373C359.983 45.6036 360.013 45.5156 360.042 45.4047C360.058 45.347 360.08 45.2566 360.099 45.1451C360.117 45.0428 360.145 44.8566 360.145 44.6224H354.145C354.145 44.5013 354.152 44.398 354.16 44.3187C354.168 44.2383 354.179 44.1693 354.188 44.1149C354.207 44.0093 354.227 43.9255 354.241 43.8751C354.255 43.8221 354.267 43.78 354.276 43.7541C354.284 43.7273 354.291 43.7066 354.295 43.6952C354.302 43.6756 354.306 43.663 354.301 43.6765C354.299 43.6824 354.29 43.7082 354.281 43.7331C354.261 43.7877 354.231 43.8753 354.199 43.9815C354.167 44.0878 354.131 44.2215 354.1 44.3759L359.984 45.5526ZM354.298 43.6738C354.317 43.6171 354.333 43.5797 354.321 43.6088C354.318 43.6172 354.291 43.6854 354.267 43.7485C354.214 43.8908 354.128 44.1361 354.066 44.4442L359.95 45.6209C359.935 45.6912 359.92 45.7478 359.908 45.7875C359.896 45.8264 359.886 45.8518 359.885 45.8553C359.885 45.8569 359.885 45.8551 359.889 45.8463C359.89 45.8418 359.892 45.8367 359.895 45.8293C359.898 45.8227 359.902 45.8126 359.906 45.8027C359.913 45.7832 359.926 45.7517 359.939 45.7159C359.953 45.6798 359.971 45.6298 359.991 45.5711L354.298 43.6738ZM354.158 44.0956C353.406 46.3829 352.23 49.6643 352.23 52.5863H358.23C358.23 50.8599 358.969 48.6725 359.858 45.9696L354.158 44.0956ZM352.23 52.5863V52.6547H358.23V52.5863H352.23ZM407.97 47.5619L410.748 48.6938L410.97 48.1496V47.5619H407.97ZM408.004 47.4594L405.661 45.5853L405.004 46.407V47.4594H408.004ZM413.302 42.5717L412.2 39.7812L411.78 39.947L411.428 40.229L413.302 42.5717ZM421.402 42.6058L423.047 40.0971L422.831 39.9551L422.593 39.8523L421.402 42.6058ZM426.119 46.3998L423.583 48.0018L423.602 48.0331L423.623 48.0639L426.119 46.3998ZM426.119 58.8754L423.614 57.2254L423.598 57.2492L423.583 57.2734L426.119 58.8754ZM421.402 62.7035L422.504 65.494L422.79 65.381L423.047 65.2122L421.402 62.7035ZM413.302 62.7035L411.428 65.0461L411.78 65.3282L412.2 65.494L413.302 62.7035ZM408.004 57.8158H405.004V58.8681L405.661 59.6899L408.004 57.8158ZM407.97 57.7133H410.97V57.1256L410.748 56.5814L407.97 57.7133ZM400.86 60.2084L398.026 61.1924L398.061 61.2926L398.103 61.3901L400.86 60.2084ZM400.997 60.6185L398.876 62.7399L403.997 67.8612V60.6185H400.997ZM400.929 60.2767L403.696 59.1183L397.929 60.2767H400.929ZM401.544 61.7465L398.777 62.9049L398.891 63.1785L399.057 63.4244L401.544 61.7465ZM409.029 68.9242L407.144 71.258L407.29 71.3761L407.45 71.475L409.029 68.9242ZM409.747 69.3685L408.168 71.9193L408.32 72.0136L408.483 72.089L409.747 69.3685ZM424.786 69.4369L423.374 66.7898L423.366 66.7942L424.786 69.4369ZM425.299 69.1635L426.711 71.8105L426.728 71.8014L426.745 71.7921L425.299 69.1635ZM428.033 67.2152H431.033V61.2152L426.233 64.8152L428.033 67.2152ZM428.033 69.9496H425.033V72.9496H428.033V69.9496ZM435.553 69.9496V72.9496H438.553V69.9496H435.553ZM435.553 14.2025H438.553V11.2025H435.553V14.2025ZM428.033 14.2025V11.2025H425.033V14.2025H428.033ZM428.033 38.0599L426.233 40.4599L431.033 44.0599V38.0599H428.033ZM409.747 35.9066L408.5 33.1782L408.328 33.2566L408.168 33.3558L409.747 35.9066ZM409.029 36.351L407.45 33.8002L407.29 33.8991L407.144 34.0171L409.029 36.351ZM401.544 43.5287L399.057 41.8508L398.891 42.0967L398.777 42.3703L401.544 43.5287ZM400.929 44.9984H397.929L403.696 46.1568L400.929 44.9984ZM400.997 44.6566H403.997V37.414L398.876 42.5353L400.997 44.6566ZM400.86 45.0668L398.103 43.885L398.061 43.9825L398.026 44.0827L400.86 45.0668ZM409.637 52.6547C409.637 52.6551 409.637 52.639 409.639 52.6039C409.642 52.5694 409.646 52.523 409.654 52.4637C409.67 52.3432 409.695 52.192 409.732 52.0105C409.806 51.6452 409.915 51.2207 410.043 50.7773C410.304 49.8798 410.604 49.0482 410.748 48.6938L405.191 46.43C404.96 46.9984 404.593 48.0296 404.281 49.106C403.997 50.0841 403.637 51.4978 403.637 52.6547H409.637ZM410.97 47.5619C410.97 47.8078 410.939 48.0206 410.902 48.1902C410.865 48.358 410.82 48.4942 410.784 48.5896C410.748 48.6847 410.715 48.7578 410.697 48.7967C410.687 48.8172 410.68 48.8332 410.675 48.8418C410.671 48.8495 410.668 48.8558 410.67 48.8523C410.67 48.8515 410.676 48.841 410.682 48.829C410.688 48.8161 410.698 48.7959 410.709 48.7711C410.732 48.7236 410.769 48.6419 410.808 48.5384C410.847 48.4343 410.895 48.2897 410.933 48.1133C410.972 47.9351 411.004 47.7138 411.004 47.4594H405.004C405.004 47.2134 405.035 47.0006 405.072 46.8311C405.108 46.6632 405.154 46.5271 405.19 46.4316C405.225 46.3366 405.258 46.2635 405.277 46.2245C405.286 46.204 405.294 46.188 405.298 46.1794C405.302 46.1717 405.305 46.1654 405.304 46.169C405.303 46.1697 405.298 46.1803 405.292 46.1922C405.286 46.2051 405.276 46.2254 405.264 46.2501C405.242 46.2977 405.205 46.3793 405.166 46.4829C405.127 46.5869 405.079 46.7316 405.04 46.908C405.002 47.0861 404.97 47.3074 404.97 47.5619H410.97ZM410.347 49.3334C411.204 48.2621 413.444 46.2994 415.176 44.9143L411.428 40.229C409.741 41.5783 406.992 43.9223 405.661 45.5853L410.347 49.3334ZM414.403 45.3621C415.378 44.9773 416.339 44.7855 417.335 44.7855V38.7855C415.529 38.7855 413.823 39.1406 412.2 39.7812L414.403 45.3621ZM417.335 44.7855C418.384 44.7855 419.343 44.9838 420.212 45.3594L422.593 39.8523C420.932 39.1341 419.157 38.7855 417.335 38.7855V44.7855ZM419.757 45.1146C420.72 45.7457 421.719 46.4753 422.51 47.1112C422.907 47.43 423.227 47.7047 423.453 47.916C423.746 48.1907 423.705 48.1958 423.583 48.0018L428.656 44.7978C428.328 44.279 427.855 43.8184 427.552 43.5346C427.181 43.1872 426.737 42.8104 426.267 42.4327C425.324 41.6758 424.17 40.8332 423.047 40.0971L419.757 45.1146ZM423.623 48.0639C424.39 49.2142 425.033 50.8574 425.033 52.0736H431.033C431.033 49.2566 429.762 46.4564 428.615 44.7357L423.623 48.0639ZM425.033 52.0736V53.2357H431.033V52.0736H425.033ZM425.033 53.2357C425.033 54.3425 424.362 56.0895 423.614 57.2254L428.625 60.5253C429.722 58.8585 431.033 55.957 431.033 53.2357H425.033ZM423.583 57.2734C423.7 57.0875 423.734 57.0986 423.44 57.3762C423.213 57.5912 422.893 57.8703 422.497 58.1923C421.705 58.8354 420.711 59.5694 419.757 60.1948L423.047 65.2122C424.179 64.4704 425.338 63.615 426.281 62.8483C426.752 62.4653 427.194 62.0843 427.564 61.7342C427.868 61.4468 428.333 60.9879 428.656 60.4773L423.583 57.2734ZM420.301 59.913C419.335 60.2942 418.341 60.4896 417.335 60.4896V66.4896C419.132 66.4896 420.872 66.1382 422.504 65.494L420.301 59.913ZM417.335 60.4896C416.339 60.4896 415.378 60.2979 414.403 59.913L412.2 65.494C413.823 66.1345 415.529 66.4896 417.335 66.4896V60.4896ZM415.176 60.3609C413.444 58.9758 411.204 57.0131 410.347 55.9417L405.661 59.6899C406.992 61.3529 409.741 63.6968 411.428 65.0461L415.176 60.3609ZM411.004 57.8158C411.004 57.5613 410.972 57.34 410.933 57.1619C410.895 56.9855 410.847 56.8408 410.808 56.7368C410.769 56.6332 410.732 56.5516 410.709 56.504C410.698 56.4793 410.688 56.459 410.682 56.4461C410.676 56.4342 410.67 56.4236 410.67 56.4229C410.668 56.4193 410.671 56.4256 410.675 56.4333C410.68 56.4419 410.687 56.4579 410.697 56.4784C410.715 56.5174 410.748 56.5905 410.784 56.6855C410.82 56.781 410.865 56.9171 410.902 57.085C410.939 57.2546 410.97 57.4673 410.97 57.7133H404.97C404.97 57.9677 405.002 58.1891 405.04 58.3672C405.079 58.5436 405.127 58.6882 405.166 58.7923C405.205 58.8958 405.242 58.9775 405.264 59.025C405.276 59.0498 405.286 59.07 405.292 59.0829C405.298 59.0949 405.303 59.1055 405.304 59.1062C405.305 59.1097 405.302 59.1034 405.298 59.0957C405.294 59.0871 405.286 59.0711 405.277 59.0506C405.258 59.0117 405.225 58.9386 405.19 58.8435C405.154 58.7481 405.108 58.6119 405.072 58.4441C405.035 58.2745 405.004 58.0617 405.004 57.8158H411.004ZM410.748 56.5814C410.603 56.2265 410.303 55.3939 410.043 54.4987C409.914 54.0565 409.805 53.6345 409.731 53.2731C409.694 53.0936 409.669 52.9452 409.653 52.8284C409.637 52.7061 409.637 52.6527 409.637 52.6547H403.637C403.637 53.7992 404 55.2096 404.282 56.1768C404.594 57.247 404.96 58.2772 405.191 58.8451L410.748 56.5814ZM396.117 52.6547C396.117 55.5664 397.199 58.8084 398.026 61.1924L403.694 59.2243C402.813 56.6865 402.117 54.3913 402.117 52.6547H396.117ZM398.103 61.3901C398.138 61.4724 398.147 61.4927 398.162 61.5279C398.175 61.5578 398.161 61.5276 398.142 61.4737C398.12 61.4122 398.079 61.2875 398.046 61.1209C398.011 60.9422 397.997 60.7721 397.997 60.6185H403.997C403.997 60.4137 403.979 60.1966 403.934 59.9688C403.892 59.7531 403.836 59.577 403.792 59.4557C403.752 59.342 403.71 59.2434 403.688 59.1901C403.667 59.1419 403.634 59.064 403.618 59.0266L398.103 61.3901ZM403.118 58.4972C403.494 58.8728 403.753 59.3406 403.878 59.8397C403.977 60.238 403.963 60.5888 403.963 60.516H397.963C397.963 60.5947 397.909 61.773 398.876 62.7399L403.118 58.4972ZM403.963 60.516C403.963 60.4189 403.959 60.322 403.951 60.2253C403.942 60.1283 403.93 60.0386 403.917 59.9566C403.891 59.8026 403.858 59.6753 403.856 59.6688C403.849 59.6411 403.874 59.7343 403.893 59.8498C403.904 59.9126 403.913 59.982 403.919 60.0571C403.926 60.1319 403.929 60.2053 403.929 60.2767H397.929C397.929 60.3738 397.933 60.4707 397.941 60.5674C397.949 60.6644 397.961 60.7541 397.975 60.8362C398.001 60.9901 398.034 61.1174 398.035 61.124C398.042 61.1516 398.018 61.0584 397.998 60.943C397.988 60.8802 397.979 60.8107 397.972 60.7356C397.966 60.6608 397.963 60.5874 397.963 60.516H403.963ZM398.161 61.4351L398.777 62.9049L404.311 60.588L403.696 59.1183L398.161 61.4351ZM399.057 63.4244C400.242 65.1799 402.14 67.0069 403.68 68.3736C405.268 69.7839 406.741 70.9323 407.144 71.258L410.914 66.5904C410.429 66.1983 409.116 65.1763 407.663 63.8864C406.16 62.553 404.76 61.1499 404.031 60.0686L399.057 63.4244ZM407.45 71.475L408.168 71.9193L411.326 66.8177L410.608 66.3734L407.45 71.475ZM408.483 72.089C411.311 73.4034 414.272 74.0433 417.335 74.0433V68.0433C415.134 68.0433 413.037 67.5895 411.012 66.648L408.483 72.089ZM417.335 74.0433C420.196 74.0433 423.313 73.6342 426.206 72.0796L423.366 66.7942C421.679 67.7005 419.669 68.0433 417.335 68.0433V74.0433ZM426.198 72.0839L426.711 71.8105L423.887 66.5164L423.374 66.7898L426.198 72.0839ZM426.745 71.7921C427.672 71.2823 428.892 70.3214 429.833 69.6152L426.233 64.8152C424.987 65.7496 424.293 66.2927 423.853 66.5348L426.745 71.7921ZM425.033 67.2152V69.9496H431.033V67.2152H425.033ZM428.033 72.9496H435.553V66.9496H428.033V72.9496ZM438.553 69.9496V14.2025H432.553V69.9496H438.553ZM435.553 11.2025H428.033V17.2025H435.553V11.2025ZM425.033 14.2025V38.0599H431.033V14.2025H425.033ZM429.833 35.6599C428.739 34.8393 427.672 34.0714 426.842 33.5734L423.755 38.7184C424.293 39.0407 425.14 39.6399 426.233 40.4599L429.833 35.6599ZM426.842 33.5734L426.33 33.2658L423.243 38.4107L423.755 38.7184L426.842 33.5734ZM426.33 33.2658C423.368 31.4888 420.029 31.266 417.335 31.266V37.266C419.836 37.266 421.761 37.5217 423.243 38.4107L426.33 33.2658ZM417.335 31.266C414.244 31.266 411.289 31.903 408.5 33.1782L410.994 38.635C412.99 37.7227 415.093 37.266 417.335 37.266V31.266ZM408.168 33.3558L407.45 33.8002L410.608 38.9017L411.326 38.4574L408.168 33.3558ZM407.144 34.0171C406.741 34.3428 405.268 35.4913 403.68 36.9015C402.14 38.2683 400.242 40.0952 399.057 41.8508L404.031 45.2066C404.76 44.1252 406.16 42.7222 407.663 41.3888C409.116 40.0988 410.429 39.0769 410.914 38.6848L407.144 34.0171ZM398.777 42.3703L398.161 43.84L403.696 46.1568L404.311 44.6871L398.777 42.3703ZM403.929 44.9984C403.929 45.0698 403.926 45.1432 403.919 45.2181C403.913 45.2931 403.904 45.3626 403.893 45.4254C403.874 45.5409 403.849 45.634 403.856 45.6064C403.858 45.5998 403.891 45.4725 403.917 45.3186C403.93 45.2366 403.942 45.1468 403.951 45.0498C403.959 44.9531 403.963 44.8562 403.963 44.7592H397.963C397.963 44.6877 397.966 44.6143 397.972 44.5395C397.979 44.4644 397.988 44.395 397.998 44.3322C398.018 44.2167 398.042 44.1236 398.035 44.1512C398.034 44.1577 398.001 44.2851 397.975 44.439C397.961 44.521 397.949 44.6108 397.941 44.7077C397.933 44.8045 397.929 44.9014 397.929 44.9984H403.929ZM403.963 44.7592C403.963 44.6864 403.977 45.0372 403.878 45.4355C403.753 45.9346 403.494 46.4024 403.118 46.7779L398.876 42.5353C397.909 43.5022 397.963 44.6804 397.963 44.7592H403.963ZM397.997 44.6566C397.997 44.4461 398.02 44.2849 398.029 44.224C398.041 44.1443 398.055 44.0817 398.063 44.0429C398.081 43.9651 398.097 43.9118 398.104 43.89C398.118 43.8432 398.122 43.8403 398.103 43.885L403.618 46.2485C403.701 46.054 403.773 45.8631 403.831 45.6796C403.859 45.5894 403.89 45.4806 403.917 45.36C403.929 45.3077 403.997 45.0186 403.997 44.6566H397.997ZM398.026 44.0827C397.199 46.4668 396.117 49.7087 396.117 52.6205H402.117C402.117 50.8838 402.813 48.5886 403.694 46.0508L398.026 44.0827ZM396.117 52.6205V52.6547H402.117V52.6205H396.117Z" fill="#333333"/>
<path d="M172 15.9858V19.9574L174 21.4468H177.5L179.5 19.9574V15.9858L177.5 14H174L172 15.9858Z" fill="#56CCF2" stroke="#56CCF2"/>
</svg>
