<svg width="101" height="87" viewBox="0 0 101 87" fill="none" xmlns="http://www.w3.org/2000/svg">
<path d="M23.0843 70.3744C18.1002 63.0197 19.7098 56.5421 22.4492 53.2994C26.2844 48.7597 33.1896 45.7033 46.4673 27.8051C63.0645 5.43234 69.417 5.25283 75.205 8.88793C81.6761 12.952 93.6414 29.6383 83.7734 49.2888C75.879 65.0091 52.2906 72.5038 40.0057 75.7206C37.427 76.0466 28.0685 77.7292 23.0843 70.3744Z" fill="#252525" stroke="black"/>
<path d="M17.7881 68.3664C12.804 61.0116 14.4135 54.5341 17.153 51.2914C20.9881 46.7516 27.8933 43.6953 41.1711 25.797C57.7682 3.42429 64.1208 3.24478 69.9088 6.87987C76.3799 10.944 88.3452 27.6302 78.4771 47.2807C70.5827 63.0011 46.9943 70.4957 34.7094 73.7125C32.1307 74.0386 22.7722 75.7211 17.7881 68.3664Z" fill="#FCFCFC" stroke="black"/>
<path d="M19.9586 66.1766C15.3868 59.4389 17.4749 54.2236 20.0113 51.237C23.5622 47.0557 29.939 44.2266 42.2397 27.7476C57.6156 7.14883 62.8905 6.2251 68.2155 9.54445C74.169 13.2556 85.1475 28.5398 75.985 46.6169C68.655 61.0785 46.8812 68.0373 35.5435 71.0312C33.1647 71.3389 24.5303 72.9144 19.9586 66.1766Z" fill="#FCFCFC" stroke="black" stroke-width="0.5"/>
<path d="M22.4763 56.9325C22.4763 52.0452 29.1598 48.1083 32.5016 46.7507C38.9178 45.1216 38.0155 49.8052 39.5193 52.8597C41.5244 56.9324 51.5496 61.8196 43.5294 65.0778C35.5092 68.336 27.489 67.4537 25.4839 66.0961C24.4814 65.0779 22.4763 61.8198 22.4763 56.9325Z" fill="#252525" stroke="#252525"/>
<path d="M40.6369 40.2074C38.8967 37.5444 41.6363 35.4543 44.8835 32.2768C51.466 26.7088 59.9442 13.5858 62.9563 14.2038C66.6448 14.9604 73.7616 23.647 65.9685 31.2728C58.1754 38.8987 49.9789 42.2838 47.2572 43.0067C45.7755 43.1832 42.3771 42.8704 40.6369 40.2074Z" fill="#252525" stroke="#252525"/>
<path d="M62.235 49.358C60.8059 47.7255 62.5404 41.0657 63.6105 39.328C65.951 36.3179 69.7389 34.4463 71.4304 34.9281C73.5016 35.5179 77.6379 36.2125 75.0696 40.3832C72.5014 44.5539 66.8252 48.1709 65.7706 49.1515C64.4633 50.367 63.6642 50.9905 62.235 49.358Z" fill="#252525" stroke="#252525"/>
<path d="M57.0135 45.5033C58.2015 48.3055 56.7709 54.8063 55.8851 56.1002C53.9468 58.024 50.8058 57.6997 49.4015 56.0452C47.682 54.0194 44.8002 51.8916 46.9261 48.7863C49.0519 45.6811 53.1724 44.6434 54.0464 44.2071C55.1296 43.6664 55.8254 42.7012 57.0135 45.5033Z" fill="#252525" stroke="#252525"/>
</svg>
