<svg width="80" height="80" viewBox="0 0 80 80" fill="none" xmlns="http://www.w3.org/2000/svg">
<mask id="mask0" mask-type="alpha" maskUnits="userSpaceOnUse" x="0" y="0" width="80" height="80">
<rect width="80" height="80" fill="#C4C4C4"/>
</mask>
<g mask="url(#mask0)">
<path d="M12.6511 67.3744C7.667 60.0197 9.27657 53.5421 12.016 50.2994C15.8512 45.7597 22.7564 42.7033 36.0341 24.8051C52.6312 2.43234 58.9838 2.25283 64.7718 5.88793C71.2429 9.95204 83.2082 26.6383 73.3402 46.2888C65.4457 62.0091 41.8574 69.5038 29.5724 72.7206C26.9937 73.0466 17.6352 74.7292 12.6511 67.3744Z" fill="#252525" stroke="#252525"/>
<path d="M7.35485 65.3664C2.37074 58.0116 3.98031 51.5341 6.71974 48.2914C10.5549 43.7516 17.4601 40.6953 30.7378 22.797C47.335 0.424285 53.6876 0.244777 59.4755 3.87987C65.9466 7.94398 77.9119 24.6302 68.0439 44.2807C60.1495 60.0011 36.5611 67.4957 24.2762 70.7125C21.6975 71.0386 12.339 72.7211 7.35485 65.3664Z" fill="#FCFCFC" stroke="#252525"/>
<path d="M9.52533 63.1766C4.95359 56.4389 7.04167 51.2236 9.57806 48.237C13.129 44.0557 19.5058 41.2266 31.8065 24.7476C47.1823 4.14883 52.4573 3.2251 57.7823 6.54445C63.7358 10.2556 74.7143 25.5398 65.5518 43.6169C58.2218 58.0785 36.4479 65.0373 25.1102 68.0312C22.7315 68.3389 14.0971 69.9144 9.52533 63.1766Z" fill="#FCFCFC" stroke="#252525" stroke-width="0.5"/>
<path d="M12.0431 53.9325C12.0431 49.0452 18.7266 45.1083 22.0684 43.7507C28.4846 42.1216 27.5823 46.8052 29.0861 49.8597C31.0911 53.9324 41.1164 58.8196 33.0962 62.0778C25.076 65.336 17.0557 64.4537 15.0507 63.0961C14.0481 62.0779 12.0431 58.8198 12.0431 53.9325Z" fill="#252525" stroke="#252525"/>
<path d="M30.2037 37.2074C28.4635 34.5444 31.2031 32.4543 34.4502 29.2768C41.0327 23.7088 49.511 10.5858 52.5231 11.2038C56.2115 11.9604 63.3283 20.647 55.5353 28.2728C47.7422 35.8987 39.5456 39.2838 36.8239 40.0067C35.3423 40.1832 31.9438 39.8704 30.2037 37.2074Z" fill="#252525" stroke="#252525"/>
<path d="M51.8018 46.358C50.3727 44.7255 52.1072 38.0657 53.1773 36.328C55.5177 33.3179 59.3057 31.4463 60.9971 31.9281C63.0683 32.5179 67.2047 33.2125 64.6364 37.3832C62.0681 41.5539 56.392 45.1709 55.3373 46.1515C54.0301 47.367 53.2309 47.9905 51.8018 46.358Z" fill="#252525" stroke="#252525"/>
<path d="M46.5802 42.5033C47.7683 45.3055 46.3376 51.8063 45.4519 53.1002C43.5136 55.024 40.3726 54.6997 38.9683 53.0452C37.2487 51.0194 34.367 48.8916 36.4928 45.7863C38.6187 42.6811 42.7392 41.6434 43.6132 41.2071C44.6964 40.6664 45.3921 39.7012 46.5802 42.5033Z" fill="#252525" stroke="#252525"/>
</g>
</svg>
