<svg width="63" height="55" viewBox="0 0 63 55" fill="none" xmlns="http://www.w3.org/2000/svg">
<path d="M14.4657 44.1467C11.3659 39.5725 12.367 35.5438 14.0707 33.5271C16.456 30.7036 20.7506 28.8028 29.0085 17.6712C39.3309 3.75665 43.2819 3.64501 46.8816 5.90582C50.9063 8.43345 58.348 18.8113 52.2106 31.0327C47.3008 40.8098 32.6303 45.471 24.9898 47.4717C23.386 47.6745 17.5656 48.7209 14.4657 44.1467Z" fill="#252525" stroke="black"/>
<path d="M11.1717 42.8978C8.07191 38.3236 9.07296 34.2949 10.7767 32.2782C13.162 29.4547 17.4566 27.5539 25.7145 16.4223C36.0369 2.50775 39.9879 2.39611 43.5876 4.65692C47.6123 7.18455 55.054 17.5624 48.9166 29.7838C44.0068 39.5609 29.3362 44.2221 21.6958 46.2228C20.092 46.4256 14.2715 47.472 11.1717 42.8978Z" fill="#FCFCFC" stroke="black"/>
<path d="M12.5217 41.5359C9.67831 37.3455 10.977 34.1019 12.5544 32.2443C14.7629 29.6438 18.7289 27.8843 26.3792 17.6354C35.942 4.82419 39.2227 4.24969 42.5346 6.31413C46.2373 8.62221 53.0652 18.1281 47.3667 29.3709C42.8079 38.3652 29.2659 42.6932 22.2145 44.5551C20.7351 44.7466 15.365 45.7264 12.5217 41.5359Z" fill="#FCFCFC" stroke="black" stroke-width="0.5"/>
<path d="M14.0875 35.7866C14.0875 32.7471 18.2443 30.2985 20.3226 29.4542C24.3131 28.441 23.7519 31.3539 24.6872 33.2536C25.9342 35.7866 32.1694 38.8261 27.1813 40.8525C22.1932 42.8789 17.2051 42.3302 15.958 41.4858C15.3345 40.8526 14.0875 38.8262 14.0875 35.7866Z" fill="#252525" stroke="#252525"/>
<path d="M25.3823 25.3846C24.3 23.7284 26.0039 22.4285 28.0234 20.4523C32.1173 16.9893 37.3902 8.82758 39.2636 9.21198C41.5576 9.68253 45.9838 15.085 41.137 19.8279C36.2901 24.5707 31.1924 26.676 29.4997 27.1256C28.5782 27.2354 26.4646 27.0409 25.3823 25.3846Z" fill="#252525" stroke="#252525"/>
<path d="M38.8151 31.0758C37.9263 30.0604 39.005 25.9185 39.6706 24.8377C41.1262 22.9656 43.482 21.8016 44.534 22.1012C45.8222 22.468 48.3947 22.9001 46.7974 25.494C45.2001 28.0879 41.6699 30.3375 41.014 30.9473C40.2009 31.7033 39.7039 32.0911 38.8151 31.0758Z" fill="#252525" stroke="#252525"/>
<path d="M35.5675 28.6784C36.3064 30.4211 35.4166 34.4643 34.8658 35.269C33.6603 36.4655 31.7067 36.2638 30.8334 35.2348C29.7639 33.9749 27.9716 32.6515 29.2938 30.7202C30.6159 28.7889 33.1787 28.1435 33.7222 27.8722C34.3959 27.5359 34.8286 26.9356 35.5675 28.6784Z" fill="#252525" stroke="#252525"/>
</svg>
