<svg width="80" height="80" viewBox="0 0 80 80" fill="none" xmlns="http://www.w3.org/2000/svg">
<mask id="mask0" mask-type="alpha" maskUnits="userSpaceOnUse" x="0" y="0" width="80" height="80">
<rect width="80" height="80" fill="#C4C4C4"/>
</mask>
<g mask="url(#mask0)">
<path d="M22.1021 32.8882V75.5C22.1021 77.1568 23.4452 78.5 25.1021 78.5H53.8979C55.5548 78.5 56.8979 77.1568 56.8979 75.5V32.7881C56.8979 32.3387 56.797 31.8951 56.6025 31.4899L50.8669 19.5406C50.6724 19.1355 50.5714 18.6918 50.5714 18.2424V12.0714V6.79932V4C50.5714 2.34315 49.2283 1 47.5714 1H30.9014C29.2445 1 27.9014 2.34315 27.9014 4V5.68093C27.9014 6.39702 28.1858 7.08378 28.6922 7.59013C29.1985 8.09648 29.483 8.78324 29.483 9.49933V18.1424C29.483 18.6556 29.3513 19.1603 29.1005 19.6082L22.4845 31.4224C22.2337 31.8703 22.1021 32.375 22.1021 32.8882Z" fill="#252525" stroke="#252525" stroke-width="2" stroke-linejoin="round"/>
<path d="M32.3656 57.9325C31.6612 62.6285 37.3551 63.9982 40.2901 64.096C43.5774 64.096 46.1602 62.922 47.0406 62.335C47.7255 60.3783 48.6842 55.878 47.0406 53.53C45.397 51.182 39.8988 51.3776 37.3551 51.769C35.9854 51.8668 33.07 53.2365 32.3656 57.9325Z" fill="#FCFCFC" stroke="#252525"/>
<path d="M37.0019 58.5738C35.8279 57.3998 37.2954 55.1496 38.1759 54.1713C39.3499 53.9365 39.252 56.6171 39.0563 57.9868C38.8607 58.6717 38.1759 59.7478 37.0019 58.5738Z" stroke="#252525"/>
<path d="M41.4043 58.5738C40.2303 57.3998 40.8173 55.4432 41.6978 54.4648C42.8719 54.23 43.361 56.6172 43.1653 57.9868C42.9697 58.6717 42.5783 59.7478 41.4043 58.5738Z" stroke="#252525"/>
<path d="M34.0668 59.7478C34.3603 60.0413 39.6433 63.8569 46.6873 59.7478" stroke="#252525"/>
<path d="M37.8823 41.5507C33.7733 42.4313 34.0668 52.7038 34.0668 52.9973C39.9368 49.9449 45.122 51.7255 46.9809 52.9973C48.3897 46.6577 46.3939 43.3118 45.2199 42.4313C44.1437 41.8442 41.1695 40.8463 37.8823 41.5507Z" fill="#FCFCFC" stroke="black"/>
<ellipse cx="39.0563" cy="48.3013" rx="0.880504" ry="1.46751" fill="#252525"/>
<ellipse cx="43.1653" cy="48.3013" rx="0.880504" ry="1.46751" fill="#252525"/>
<path d="M33.4797 37.1482C32.3057 39.7311 34.7516 41.9421 36.1213 42.7248L33.7732 46.2468C29.312 42.7248 30.349 38.9093 31.4252 37.4418C32.5992 36.2677 34.6537 34.5654 33.4797 37.1482Z" fill="#FCFCFC" stroke="black"/>
<path d="M48.286 37.635C49.3879 40.2463 47.0923 42.4817 45.8068 43.2729L48.0106 46.8338C52.1977 43.273 51.2244 39.4154 50.2143 37.9317C49.1124 36.7448 47.1842 35.0237 48.286 37.635Z" fill="#FCFCFC" stroke="black"/>
<path d="M28.4903 49.7688C27.7859 48.36 33.2842 44.2901 36.1213 42.4313C35.73 44.0944 34.7125 47.773 33.7733 49.1818C32.5993 50.9428 29.3708 51.5298 28.4903 49.7688Z" fill="#FCFCFC" stroke="black"/>
<path d="M52.2121 49.3899C52.8033 48.1102 48.1883 44.4133 45.8068 42.7248C46.1353 44.2355 46.9894 47.577 47.7777 48.8567C48.7631 50.4564 51.473 50.9896 52.2121 49.3899Z" fill="#FCFCFC" stroke="black"/>
<rect x="29.483" y="2.05441" width="20.034" height="5.27211" rx="1" fill="#FCFCFC"/>
</g>
</svg>
