<svg width="53" height="45" viewBox="0 0 53 45" fill="none" xmlns="http://www.w3.org/2000/svg">
<g filter="url(#filter0_d)">
<path d="M5.63392 9.02756L1.4088 30.0276C0.163181 36.2187 4.89719 42 11.2123 42H35.5625C40.325 42 44.4267 38.6414 45.3661 33.9724L49.5912 12.9724C50.8368 6.78134 46.1028 1 39.7877 1L15.4375 1C10.675 1 6.57328 4.35863 5.63392 9.02756Z" fill="#FCFCFC"/>
<path d="M5.63392 9.02756L1.4088 30.0276C0.163181 36.2187 4.89719 42 11.2123 42H35.5625C40.325 42 44.4267 38.6414 45.3661 33.9724L49.5912 12.9724C50.8368 6.78134 46.1028 1 39.7877 1L15.4375 1C10.675 1 6.57328 4.35863 5.63392 9.02756Z" stroke="#333333" stroke-width="2"/>
</g>
<defs>
<filter id="filter0_d" x="0.208572" y="0" width="52.5829" height="45" filterUnits="userSpaceOnUse" color-interpolation-filters="sRGB">
<feFlood flood-opacity="0" result="BackgroundImageFix"/>
<feColorMatrix in="SourceAlpha" type="matrix" values="0 0 0 0 0 0 0 0 0 0 0 0 0 0 0 0 0 0 127 0"/>
<feOffset dx="2" dy="2"/>
<feColorMatrix type="matrix" values="0 0 0 0 0.2 0 0 0 0 0.2 0 0 0 0 0.2 0 0 0 1 0"/>
<feBlend mode="normal" in2="BackgroundImageFix" result="effect1_dropShadow"/>
<feBlend mode="normal" in="SourceGraphic" in2="effect1_dropShadow" result="shape"/>
</filter>
</defs>
</svg>
