<svg width="30" height="30" viewBox="0 0 30 30" fill="none" xmlns="http://www.w3.org/2000/svg">
<circle cx="15" cy="15" r="14" fill="#E35C5C" stroke="black" stroke-width="2"/>
<mask id="path-2-outside-1" maskUnits="userSpaceOnUse" x="7.89404" y="7.89435" width="14" height="14" fill="black">
<rect fill="white" x="7.89404" y="7.89435" width="14" height="14"/>
<path fill-rule="evenodd" clip-rule="evenodd" d="M20.6673 9.99145L19.5702 8.89435L14.7809 13.6837L10.0065 8.90932L8.90944 10.0064L13.6838 14.7808L8.89404 19.5705L9.99115 20.6676L14.7809 15.8779L19.5856 20.6826L20.6827 19.5855L15.878 14.7808L20.6673 9.99145Z"/>
</mask>
<path fill-rule="evenodd" clip-rule="evenodd" d="M20.6673 9.99145L19.5702 8.89435L14.7809 13.6837L10.0065 8.90932L8.90944 10.0064L13.6838 14.7808L8.89404 19.5705L9.99115 20.6676L14.7809 15.8779L19.5856 20.6826L20.6827 19.5855L15.878 14.7808L20.6673 9.99145Z" fill="#FCFCFC"/>
<path d="M19.5702 8.89435L19.9238 8.54079C19.83 8.44703 19.7028 8.39435 19.5702 8.39435C19.4376 8.39435 19.3104 8.44703 19.2167 8.54079L19.5702 8.89435ZM20.6673 9.99145L21.0209 10.345C21.2161 10.1497 21.2161 9.83316 21.0209 9.6379L20.6673 9.99145ZM14.7809 13.6837L14.4273 14.0372C14.5211 14.131 14.6483 14.1837 14.7809 14.1837C14.9135 14.1837 15.0407 14.131 15.1344 14.0372L14.7809 13.6837ZM10.0065 8.90932L10.3601 8.55577C10.2663 8.462 10.1392 8.40932 10.0065 8.40932C9.87393 8.40932 9.74676 8.462 9.65299 8.55577L10.0065 8.90932ZM8.90944 10.0064L8.55589 9.65287C8.46212 9.74664 8.40944 9.87382 8.40944 10.0064C8.40944 10.139 8.46212 10.2662 8.55589 10.36L8.90944 10.0064ZM13.6838 14.7808L14.0373 15.1343C14.1311 15.0406 14.1838 14.9134 14.1838 14.7808C14.1838 14.6482 14.1311 14.521 14.0373 14.4272L13.6838 14.7808ZM8.89404 19.5705L8.54049 19.217C8.44672 19.3107 8.39404 19.4379 8.39404 19.5705C8.39404 19.7031 8.44672 19.8303 8.54049 19.9241L8.89404 19.5705ZM9.99115 20.6676L9.63759 21.0212C9.83286 21.2164 10.1494 21.2164 10.3447 21.0212L9.99115 20.6676ZM14.7809 15.8779L15.1344 15.5243C14.9392 15.3291 14.6226 15.3291 14.4273 15.5243L14.7809 15.8779ZM19.5856 20.6826L19.232 21.0361C19.4273 21.2314 19.7439 21.2314 19.9392 21.0361L19.5856 20.6826ZM20.6827 19.5855L21.0363 19.939C21.2315 19.7438 21.2315 19.4272 21.0363 19.2319L20.6827 19.5855ZM15.878 14.7808L15.5244 14.4272C15.3292 14.6225 15.3292 14.9391 15.5244 15.1343L15.878 14.7808ZM19.2167 9.2479L20.3138 10.345L21.0209 9.6379L19.9238 8.54079L19.2167 9.2479ZM15.1344 14.0372L19.9238 9.2479L19.2167 8.54079L14.4273 13.3301L15.1344 14.0372ZM9.65299 9.26288L14.4273 14.0372L15.1344 13.3301L10.3601 8.55577L9.65299 9.26288ZM9.26299 10.36L10.3601 9.26288L9.65299 8.55577L8.55589 9.65287L9.26299 10.36ZM14.0373 14.4272L9.26299 9.65287L8.55589 10.36L13.3302 15.1343L14.0373 14.4272ZM9.2476 19.9241L14.0373 15.1343L13.3302 14.4272L8.54049 19.217L9.2476 19.9241ZM10.3447 20.3141L9.2476 19.217L8.54049 19.9241L9.63759 21.0212L10.3447 20.3141ZM14.4273 15.5243L9.63759 20.3141L10.3447 21.0212L15.1344 16.2314L14.4273 15.5243ZM19.9392 20.329L15.1344 15.5243L14.4273 16.2314L19.232 21.0361L19.9392 20.329ZM20.3291 19.2319L19.232 20.329L19.9392 21.0361L21.0363 19.939L20.3291 19.2319ZM15.5244 15.1343L20.3291 19.939L21.0363 19.2319L16.2315 14.4272L15.5244 15.1343ZM20.3138 9.6379L15.5244 14.4272L16.2315 15.1343L21.0209 10.345L20.3138 9.6379Z" fill="#FCFCFC" mask="url(#path-2-outside-1)"/>
</svg>
