<svg width="76" height="63" viewBox="0 0 76 63" fill="none" xmlns="http://www.w3.org/2000/svg">
<path d="M14.6367 9.77247C10.7478 10.84 7.30258 17.6723 5.71828 21.8214C5.45813 22.5027 5.62098 23.2661 6.11202 23.8053L7.38398 25.202C7.76298 25.6182 8.2998 25.8553 8.86267 25.8553H64.9655C65.1444 25.8553 65.3225 25.8313 65.4949 25.784L69.0906 24.7969C69.9592 24.5585 70.5612 23.769 70.5612 22.8683V21.766C70.5612 21.5691 70.5321 21.3734 70.4749 21.185L69.2895 17.2801C69.2497 17.1489 69.1965 17.0223 69.1308 16.902L65.4489 10.1638C65.308 9.90609 65.1122 9.68253 64.8752 9.50904L61.4687 7.01541C61.3173 6.90457 61.151 6.81558 60.9748 6.75108L57.5115 5.48347C57.3353 5.41897 57.169 5.32998 57.0176 5.21914L53.7788 2.84826C53.436 2.59734 53.0222 2.46208 52.5974 2.46208H42.7804C42.6597 2.46208 42.5392 2.45114 42.4204 2.42941L35.1456 1.09807C34.7947 1.03386 34.4331 1.06465 34.0981 1.18725L26.8862 3.82692C26.7099 3.89142 26.5436 3.98041 26.3922 4.09126L22.6259 6.84831C21.7382 7.33567 18.8976 8.60281 14.6367 9.77247Z" fill="#FCFCFC" stroke="black" stroke-width="1.5"/>
<mask id="path-2-inside-1" fill="white">
<path fill-rule="evenodd" clip-rule="evenodd" d="M72.7155 36.9527C74.3424 33.025 75.2869 28.8536 75.5133 24.6181C75.5722 23.5151 74.6712 22.619 73.5666 22.619H38.111L2.65541 22.619C1.55084 22.619 0.64984 23.5151 0.708792 24.6181C0.93517 28.8536 1.87966 33.025 3.50655 36.9527C5.38887 41.497 8.14783 45.6261 11.6259 49.1041C14.3612 51.8395 17.4992 54.13 20.9252 55.8992C21.6116 56.2537 22.0587 56.9529 22.0587 57.7254V60.75C22.0587 61.8546 22.9541 62.75 24.0587 62.75H52.1635C53.2681 62.75 54.1635 61.8546 54.1635 60.75V57.7253C54.1635 56.9528 54.6106 56.2536 55.297 55.8991C58.7229 54.13 61.8608 51.8394 64.5961 49.1041C68.0742 45.6261 70.8332 41.497 72.7155 36.9527Z"/>
</mask>
<path fill-rule="evenodd" clip-rule="evenodd" d="M72.7155 36.9527C74.3424 33.025 75.2869 28.8536 75.5133 24.6181C75.5722 23.5151 74.6712 22.619 73.5666 22.619H38.111L2.65541 22.619C1.55084 22.619 0.64984 23.5151 0.708792 24.6181C0.93517 28.8536 1.87966 33.025 3.50655 36.9527C5.38887 41.497 8.14783 45.6261 11.6259 49.1041C14.3612 51.8395 17.4992 54.13 20.9252 55.8992C21.6116 56.2537 22.0587 56.9529 22.0587 57.7254V60.75C22.0587 61.8546 22.9541 62.75 24.0587 62.75H52.1635C53.2681 62.75 54.1635 61.8546 54.1635 60.75V57.7253C54.1635 56.9528 54.6106 56.2536 55.297 55.8991C58.7229 54.13 61.8608 51.8394 64.5961 49.1041C68.0742 45.6261 70.8332 41.497 72.7155 36.9527Z" fill="black"/>
<path d="M72.7155 36.9527L70.8677 36.1873L70.8677 36.1873L72.7155 36.9527ZM38.111 22.619L38.111 24.619H38.111V22.619ZM3.50655 36.9527L5.35431 36.1873L5.35431 36.1873L3.50655 36.9527ZM11.6259 49.1041L13.0401 47.6899L13.0401 47.6899L11.6259 49.1041ZM64.5961 49.1041L66.0104 50.5184L66.0104 50.5184L64.5961 49.1041ZM55.297 55.8991L54.3793 54.1221L55.297 55.8991ZM20.9252 55.8992L21.8429 54.1222L20.9252 55.8992ZM75.5133 24.6181L73.5161 24.5114L75.5133 24.6181ZM73.5161 24.5114C73.3018 28.5207 72.4078 32.4694 70.8677 36.1873L74.5633 37.718C76.277 33.5807 77.2719 29.1866 77.5104 24.7248L73.5161 24.5114ZM38.111 24.619H73.5666V20.619H38.111V24.619ZM2.65541 24.619L38.111 24.619L38.111 20.619L2.65541 20.619L2.65541 24.619ZM5.35431 36.1873C3.81429 32.4694 2.92023 28.5207 2.70594 24.5114L-1.28836 24.7248C-1.04989 29.1865 -0.0549705 33.5807 1.65879 37.718L5.35431 36.1873ZM13.0401 47.6899C9.74776 44.3976 7.13612 40.489 5.35431 36.1873L1.65879 37.718C3.64162 42.505 6.5479 46.8546 10.2117 50.5184L13.0401 47.6899ZM21.8429 54.1222C18.5998 52.4475 15.6294 50.2792 13.0401 47.6899L10.2117 50.5184C13.0931 53.3998 16.3986 55.8126 20.0075 57.6763L21.8429 54.1222ZM24.0587 60.75V57.7254H20.0587V60.75H24.0587ZM52.1635 60.75H24.0587V64.75H52.1635V60.75ZM52.1635 57.7253V60.75H56.1635V57.7253H52.1635ZM63.1819 47.6899C60.5927 50.2792 57.6223 52.4474 54.3793 54.1221L56.2147 57.6762C59.8235 55.8125 63.129 53.3997 66.0104 50.5184L63.1819 47.6899ZM70.8677 36.1873C69.0859 40.489 66.4743 44.3976 63.1819 47.6899L66.0104 50.5184C69.6741 46.8546 72.5804 42.505 74.5633 37.718L70.8677 36.1873ZM56.1635 57.7253C56.1635 57.7253 56.1635 57.7254 56.1635 57.7255C56.1635 57.7257 56.1635 57.7259 56.1634 57.7261C56.1634 57.7264 56.1633 57.7265 56.1635 57.7261C56.1637 57.7254 56.1648 57.722 56.1682 57.7165C56.1755 57.7048 56.1903 57.6887 56.2147 57.6762L54.3793 54.1221C53.0623 54.8022 52.1635 56.1671 52.1635 57.7253H56.1635ZM20.0587 60.75C20.0587 62.9592 21.8496 64.75 24.0587 64.75V60.75L24.0587 60.75H20.0587ZM20.0075 57.6763C20.0319 57.6888 20.0467 57.7049 20.054 57.7166C20.0574 57.7221 20.0585 57.7254 20.0588 57.7262C20.0589 57.7266 20.0588 57.7265 20.0588 57.7261C20.0587 57.726 20.0587 57.7258 20.0587 57.7256C20.0587 57.7255 20.0587 57.7254 20.0587 57.7254H24.0587C24.0587 56.1671 23.1599 54.8023 21.8429 54.1222L20.0075 57.6763ZM52.1635 64.75C54.3726 64.75 56.1635 62.9592 56.1635 60.75H52.1635L52.1635 60.75V64.75ZM2.65541 20.619C0.476333 20.619 -1.41228 22.4063 -1.28836 24.7248L2.70594 24.5114C2.70666 24.5247 2.70422 24.5462 2.69558 24.5683C2.68771 24.5885 2.678 24.6009 2.67166 24.6074C2.65985 24.6194 2.65091 24.619 2.65541 24.619L2.65541 20.619ZM77.5104 24.7248C77.6343 22.4063 75.7457 20.619 73.5666 20.619V24.619C73.5711 24.619 73.5622 24.6194 73.5504 24.6074C73.544 24.6009 73.5343 24.5885 73.5265 24.5683C73.5178 24.5462 73.5154 24.5247 73.5161 24.5114L77.5104 24.7248Z" fill="#202020" mask="url(#path-2-inside-1)"/>
<path d="M32.7604 14.5928L33.6522 15.4846L35.4358 17.2682" stroke="black" stroke-width="2" stroke-linecap="round" stroke-linejoin="round"/>
<path d="M20.7134 14.5928L19.9056 15.5071L18.2901 17.3359" stroke="black" stroke-width="2" stroke-linecap="round" stroke-linejoin="round"/>
<path d="M48.8127 9.24194L47.9209 10.1337L46.1373 11.9173" stroke="black" stroke-width="2" stroke-linecap="round" stroke-linejoin="round"/>
<path d="M57.887 14.5928L58.1427 15.5472L58.6542 17.4562" stroke="black" stroke-width="2" stroke-linecap="round" stroke-linejoin="round"/>
<rect x="1.65552" y="23.619" width="72.9112" height="8.7016" rx="1" fill="#FCFCFC" stroke="black" stroke-width="2"/>
<rect x="24.7341" y="57.3992" width="26.754" height="2.6754" rx="1.3377" fill="#FCFCFC"/>
</svg>
