<svg width="129" height="38" viewBox="0 0 129 38" fill="none" xmlns="http://www.w3.org/2000/svg">
<g filter="url(#filter0_d)">
<path d="M17.1753 5.91516L8.90799 19.9152C4.97145 26.5814 9.77699 35 17.5187 35H103.214C106.752 35 110.026 33.131 111.825 30.0848L120.092 16.0848C124.029 9.41865 119.223 1 111.481 1H25.786C22.2485 1 18.9741 2.86905 17.1753 5.91516Z" fill="#FCFCFC"/>
<path d="M17.1753 5.91516L8.90799 19.9152C4.97145 26.5814 9.77699 35 17.5187 35H103.214C106.752 35 110.026 33.131 111.825 30.0848L120.092 16.0848C124.029 9.41865 119.223 1 111.481 1H25.786C22.2485 1 18.9741 2.86905 17.1753 5.91516Z" stroke="#333333" stroke-width="2"/>
</g>
<circle cx="90.912" cy="18.912" r="4.82713" transform="rotate(15 90.912 18.912)" fill="#6FE35C"/>
<path d="M32.2383 21.8848C32.1114 22.6953 32.502 23.4375 32.5801 23.5645L32.5899 23.584C32.7461 23.9062 32.9805 24.082 33.0977 24.1895C33.4004 24.4922 33.6641 24.6582 33.7129 24.6875L33.7715 24.7168C34.377 25.0195 34.9922 25.1953 35.6563 25.1953C36.3106 25.1953 36.9258 25.0391 37.502 24.7363C37.8047 24.5801 38.8301 23.9941 39.1426 23.0859C39.1817 22.959 39.2793 22.7148 39.3282 22.4121C39.3867 22.0898 39.377 21.7871 39.3477 21.5918V21.5527L39.2891 21.2891C39.2989 21.3574 39.2696 21.25 39.2696 21.2598L39.2598 21.2207C39.1719 20.8691 39.0059 20.5078 38.791 20.2051C38.5762 19.9023 38.0196 19.3555 37.6387 19.2285L37.6192 19.2188C37.6094 19.2188 36.8282 18.9551 36.1055 18.7402L35.6367 18.6035C35.4121 18.5352 35.1289 18.457 35.041 18.418C35.0508 18.4277 35.0606 18.4375 35.0606 18.4375L34.9336 18.3691L34.9629 18.3887C34.9727 18.3984 34.9727 18.3984 34.9825 18.3984C34.9532 18.3691 34.8164 18.291 34.7676 18.0664C34.6602 17.627 34.8164 17.2949 34.8457 17.2168C34.9141 17.1387 34.9141 17.1191 34.9532 17.0898C35.0117 17.0117 35.0899 16.9727 35.1387 16.9434C35.5977 16.7188 36.0957 16.7188 36.5547 16.9434C36.584 16.9531 36.7012 17.0605 36.7696 17.1777L37.0137 17.0508L38.6543 16.1426C38.293 15.4688 37.6973 15.1074 37.5899 15.0586L37.5606 15.0488C37.0332 14.7656 36.4571 14.6191 35.8418 14.6191C35.2266 14.6191 34.6602 14.7852 34.0938 15.0684L34.0352 15.0977C33.9864 15.127 33.7129 15.293 33.4688 15.5273C33.2832 15.6934 33.1856 15.8301 33.0293 16.0645L33.0098 16.0938C32.9512 16.1816 32.6387 16.7578 32.5801 17.6074C32.5703 17.666 32.5703 17.7246 32.5703 17.7832C32.5703 18.0176 32.6094 18.2715 32.668 18.5352C32.9414 19.6777 33.7617 20.1855 34.0352 20.3223C34.3086 20.459 34.6211 20.5566 35.0606 20.6738C35.2071 20.7129 35.3438 20.752 35.4903 20.8008C36.0078 20.957 36.545 21.1328 36.7891 21.2109C36.877 21.2793 36.9942 21.3965 37.043 21.4453C37.0723 21.4844 37.1016 21.5918 37.209 21.8555C37.209 21.9336 37.2188 22.0312 37.209 22.0801C37.1992 22.1582 37.1602 22.2461 37.1504 22.2754L37.1114 22.373C37.0332 22.4805 36.75 22.7148 36.5157 22.832C35.9688 23.1152 35.3731 23.1055 34.8262 22.8418C34.7871 22.8125 34.6992 22.7539 34.5918 22.6465C34.543 22.5977 34.4746 22.5391 34.4356 22.4707C34.4063 22.4219 34.3575 22.2852 34.3575 22.2168L32.2383 21.8848ZM43.0293 17.0703V21.5039C43.0293 22.373 43.4492 23.1445 43.5762 23.3496C43.8399 23.7695 44.3965 24.2578 44.875 24.5215L45.0313 24.6094C45.4512 24.8438 45.92 24.9023 46.3985 24.9023H47.5313V22.7539H46.3985C46.2617 22.7539 46.125 22.7246 45.9785 22.6758C45.7539 22.5195 45.5098 22.3242 45.4024 22.2168C45.295 22.0117 45.1778 21.7285 45.1778 21.5039V17.0703H48.5957V14.9219H45.1778V8.91602H43.0293V14.9219H41.3692V17.0703H43.0293ZM52.209 19.8926C52.209 19.502 52.502 18.7207 52.5801 18.4473C52.5899 18.4375 52.5899 18.4277 52.5899 18.4082C52.9024 18.0273 53.6153 17.4121 54.1035 17.0215C54.4746 16.8652 54.8653 16.7871 55.2657 16.7871C55.666 16.7871 56.0567 16.8652 56.4278 17.0215C57.0235 17.4219 57.6485 17.9199 57.7657 18.1055C58.0391 18.5254 58.3125 19.1797 58.3125 19.7266V20.0586C58.3125 20.6055 58.0196 21.2598 57.7657 21.6699C57.6387 21.875 57.0235 22.3633 56.4278 22.7637C56.0567 22.9199 55.666 22.998 55.2657 22.998C54.8653 22.998 54.4746 22.9199 54.1035 22.7637C53.6153 22.373 52.9024 21.7578 52.5899 21.377C52.5899 21.3574 52.5899 21.3477 52.5801 21.3379C52.502 21.0645 52.209 20.2832 52.209 19.8926ZM50.0508 19.9023C50.0508 20.5664 50.3242 21.3477 50.5586 22.0605C50.5684 22.1094 50.5879 22.1484 50.5977 22.1777C50.5977 22.168 50.5782 22.1289 50.5684 22.0801L50.7442 22.4902C51.291 23.3008 52.6094 24.375 52.8828 24.541L53.0977 24.668C53.7715 24.9902 54.4942 25.1465 55.2657 25.1465C56.0078 25.1465 56.7207 25.0391 57.3848 24.6875L57.5313 24.6094C57.7266 24.502 58.0098 24.2871 58.3125 24.0625V24.834H60.461V20.1465C60.461 20.0684 60.4707 19.9805 60.4707 19.9023V19.8926V19.8828C60.4707 19.8047 60.461 19.7168 60.461 19.6387V14.9219H58.3125V15.7227C58.0098 15.498 57.7266 15.2832 57.5313 15.1758L57.3848 15.0977C56.7207 14.7461 56.0078 14.6387 55.2657 14.6387C54.4942 14.6387 53.7715 14.7949 53.0977 15.1172L52.8828 15.2441C52.6289 15.4492 51.3008 16.4746 50.7442 17.2949L50.5684 17.7051C50.5782 17.6562 50.5977 17.6172 50.5977 17.6074C50.5879 17.6367 50.5684 17.6758 50.5586 17.7246C50.3242 18.4375 50.0508 19.2188 50.0508 19.8828V19.9023ZM63.1172 19.9023V24.8633H65.2657V19.7266C65.2657 19.1797 65.5586 18.5254 65.8125 18.1152C65.92 17.9395 66.5938 17.3828 67.1797 17.002C67.2871 16.9531 67.3555 16.8945 67.4336 16.8457L67.4727 16.875C67.5703 16.9531 67.668 16.9824 67.7754 17.0508C68.0196 17.2559 68.3516 17.5391 68.586 17.7734L70.5098 16.6992C70.0703 16.123 69.2012 15.4102 69.0157 15.293L68.8106 15.166C68.7813 15.1562 68.6934 15.0977 68.625 15.0586C68.3223 14.873 67.9219 14.6094 67.4043 14.6094C66.8575 14.6094 66.4668 14.8828 66.2617 15.0391L66.1739 15.1074L66.1934 15.0977L66.0469 15.1758C65.8516 15.2832 65.5684 15.498 65.2657 15.7227V14.9316H63.1172V19.6387C63.1172 19.7266 63.1075 19.8145 63.1075 19.9023H63.1172ZM73.459 17.0703V21.5039C73.459 22.373 73.8789 23.1445 74.0059 23.3496C74.2696 23.7695 74.8262 24.2578 75.3047 24.5215L75.461 24.6094C75.8809 24.8438 76.3496 24.9023 76.8282 24.9023H77.961V22.7539H76.8282C76.6914 22.7539 76.5547 22.7246 76.4082 22.6758C76.1836 22.5195 75.9395 22.3242 75.8321 22.2168C75.7246 22.0117 75.6075 21.7285 75.6075 21.5039V17.0703H79.0254V14.9219H75.6075V8.91602H73.459V14.9219H71.7989V17.0703H73.459Z" fill="black"/>
<defs>
<filter id="filter0_d" x="6.50195" y="0" width="117.996" height="38" filterUnits="userSpaceOnUse" color-interpolation-filters="sRGB">
<feFlood flood-opacity="0" result="BackgroundImageFix"/>
<feColorMatrix in="SourceAlpha" type="matrix" values="0 0 0 0 0 0 0 0 0 0 0 0 0 0 0 0 0 0 127 0"/>
<feOffset dx="2" dy="2"/>
<feColorMatrix type="matrix" values="0 0 0 0 0.2 0 0 0 0 0.2 0 0 0 0 0.2 0 0 0 1 0"/>
<feBlend mode="normal" in2="BackgroundImageFix" result="effect1_dropShadow"/>
<feBlend mode="normal" in="SourceGraphic" in2="effect1_dropShadow" result="shape"/>
</filter>
</defs>
</svg>
