<svg width="73" height="53" viewBox="0 0 73 53" fill="none" xmlns="http://www.w3.org/2000/svg">
<path d="M32.6476 1.49812C19.6788 5.48852 7.2632 31.9235 1.93709 46.544C1.51882 47.6922 2.24539 48.9217 3.45031 49.1253C29.3367 53.5009 56.7064 51.1999 69.5435 49.1431C70.807 48.9407 71.5296 47.6138 71.0114 46.4438C63.0458 28.4592 45.7191 -2.52388 32.6476 1.49812Z" fill="#FCFCFC" stroke="black" stroke-width="2"/>
<path d="M24.1338 28.3099C24.2419 28.2371 24.4678 28.0881 24.4678 28.2587C24.4678 28.3781 24.3372 28.3401 24.2476 28.3401C24.1885 28.3401 24.1562 28.3318 24.1396 28.3233C24.1335 28.3202 24.1296 28.3171 24.1272 28.3143C24.12 28.3059 24.1271 28.3009 24.1338 28.3099Z" fill="#FCFCFC"/>
<path d="M24.0877 28.3401C24.1495 28.304 24.4678 28.0562 24.4678 28.2587C24.4678 28.3781 24.3372 28.3401 24.2476 28.3401C24.0655 28.3401 24.1374 28.2614 24.142 28.3401C24.1485 28.4497 24.153 28.503 24.0334 28.503" stroke="black" stroke-linecap="round" stroke-linejoin="round"/>
<path d="M40.3649 20.1251C40.2934 20.009 40.2446 19.8838 40.2787 19.7864C40.3293 19.6418 40.4947 19.7379 40.5321 19.8407C40.55 19.8901 40.5504 19.9532 40.5469 20.0162C40.5439 20.0702 40.5381 20.1242 40.5381 20.1694C40.5381 20.2489 40.4854 20.2569 40.4382 20.2318C40.3996 20.2113 40.3647 20.1688 40.3649 20.1251Z" fill="#FCFCFC"/>
<path d="M40.5924 20.4138C40.4815 20.2959 40.2095 19.984 40.2787 19.7864C40.3293 19.6418 40.4947 19.7379 40.5321 19.8407C40.5654 19.9324 40.5381 20.0713 40.5381 20.1694C40.5381 20.3479 40.2723 20.1658 40.3993 20.0578C40.4801 19.9892 41.0119 19.9803 41.0689 20.088C41.0984 20.1436 41.1836 20.4413 41.1836 20.4952C41.1836 20.6776 40.6889 20.4681 40.5924 20.4681" stroke="black" stroke-linecap="round" stroke-linejoin="round"/>
<path d="M46.5772 35.3918C46.4738 34.7533 45.8508 35.8619 46.5772 35.3918Z" fill="#FCFCFC"/>
<path d="M46.6844 35.3178C45.7198 36.0193 46.5911 34.507 46.5911 35.5977" stroke="black" stroke-linecap="round" stroke-linejoin="round"/>
<path d="M34.3478 35.3002C33.8788 34.9231 33.9734 34.6409 34.5046 34.9445C34.7175 35.0662 34.5489 35.2057 34.3478 35.3002Z" fill="#FCFCFC"/>
<path d="M34.3699 35.3177C33.876 34.9319 33.9652 34.6363 34.5046 34.9445C34.8674 35.1518 34.1225 35.411 33.9967 35.411" stroke="black" stroke-linecap="round" stroke-linejoin="round"/>
<path d="M31.5712 11.2487C31.7248 11.4625 31.9077 11.6219 31.5712 11.6219C31.5271 11.6219 31.2084 11.6593 31.2084 11.5752C31.2084 11.4992 31.3829 11.5357 31.4261 11.5234C31.496 11.5034 31.4884 11.3834 31.5712 11.342" stroke="black" stroke-linecap="round" stroke-linejoin="round"/>
<path d="M17.2043 40.9152C17.1513 40.6123 17.0708 40.4488 17.3909 40.4488C17.5785 40.4488 17.8329 40.4967 17.8573 40.7286C17.8929 41.0671 17.7092 41.0277 17.4842 40.9152" stroke="black" stroke-linecap="round" stroke-linejoin="round"/>
<path d="M59.8384 39.4228C59.7432 39.49 58.855 39.9731 58.8122 39.6094C58.8004 39.5091 58.7659 39.0829 58.864 39.0549C59.3472 38.9168 59.4652 39.2128 59.4652 39.6094" stroke="black" stroke-linecap="round" stroke-linejoin="round"/>
<path d="M40.5273 45.0509C40.2437 45.2572 39.9601 45.3282 40.031 44.8671C40.0746 44.5842 40.5823 44.6292 40.7939 44.6373C40.9225 44.6423 41.0325 44.8398 40.9226 44.9498C40.8808 44.9915 40.6767 45.0176 40.6101 45.0509" stroke="black" stroke-linecap="round" stroke-linejoin="round"/>
</svg>
