<svg width="80" height="80" viewBox="0 0 80 80" fill="none" xmlns="http://www.w3.org/2000/svg">
<mask id="mask0" mask-type="alpha" maskUnits="userSpaceOnUse" x="0" y="0" width="80" height="80">
<rect width="80" height="80" fill="#C4C4C4"/>
</mask>
<g mask="url(#mask0)">
<path d="M62.9661 68.3937C63.1832 64.7758 64.8864 55.6372 69.9624 48.0265C70.1164 44.592 71.391 36.7012 75.2569 32.6134C75.0328 30.2799 75.4375 24.9212 78.8496 22.1546C79.4001 15.7619 68.9338 7.28694 67.8238 10.9821C67.7963 11.0737 67.7748 11.1719 67.7595 11.2772C66.7344 15.9515 64.4314 24.8538 62.9074 25.2942C62.6034 28.0617 61.3654 36.9498 56.2893 44.5605C55.2697 48.7233 51.8038 57.1743 48.654 63.4774L62.9661 68.3937Z" fill="#252525"/>
<path d="M69.9624 48.0265C64.8864 55.6372 63.1832 64.7758 62.9661 68.3937L48.654 63.4774C51.8038 57.1743 55.2697 48.7233 56.2893 44.5605M69.9624 48.0265C70.1164 44.592 71.391 36.7012 75.2569 32.6134M69.9624 48.0265L56.2893 44.5605M75.2569 32.6134C75.0328 30.2799 75.4375 24.9212 78.8496 22.1546M75.2569 32.6134L62.9074 25.2942M78.8496 22.1546C75.7877 21.5131 69.3093 18.7543 67.8907 12.8514C67.6978 12.0488 67.6883 11.4331 67.8238 10.9821M78.8496 22.1546C79.4001 15.7619 68.9338 7.28694 67.8238 10.9821M67.8238 10.9821C66.8336 15.5654 64.4641 24.8443 62.9074 25.2942M62.9074 25.2942C62.6034 28.0617 61.3654 36.9498 56.2893 44.5605" stroke="#FCFCFC" stroke-width="2"/>
<path d="M47.9653 70.9889C48.3165 67.3815 48.0631 58.0891 44.2395 49.7783C44.6243 46.362 44.5992 38.3689 41.42 33.727C42.0062 31.4572 42.4443 26.1012 39.5068 22.8351C39.9626 16.4349 51.6252 9.70064 52.1439 13.524C52.1567 13.6186 52.1626 13.7191 52.1612 13.8255C52.4429 18.6025 53.3256 27.7554 54.762 28.4287C54.6296 31.2097 54.4627 40.182 58.2863 48.4928C58.6426 52.7638 60.7445 61.6528 62.87 68.3708L47.9653 70.9889Z" fill="#252525"/>
<path d="M44.2395 49.7783C48.0631 58.0891 48.3165 67.3815 47.9653 70.9889L62.87 68.3708C60.7445 61.6528 58.6426 52.7638 58.2863 48.4928M44.2395 49.7783C44.6243 46.362 44.5992 38.3689 41.42 33.727M44.2395 49.7783L58.2863 48.4928M41.42 33.727C42.0062 31.4572 42.4443 26.1012 39.5068 22.8351M41.42 33.727L54.762 28.4287M39.5068 22.8351C42.6313 22.6802 49.4614 20.9683 51.7855 15.3597C52.1015 14.5972 52.2072 13.9905 52.1439 13.524M39.5068 22.8351C39.9626 16.4349 51.6252 9.70064 52.1439 13.524M52.1439 13.524C52.4052 18.2056 53.2948 27.7409 54.762 28.4287M54.762 28.4287C54.6296 31.2097 54.4627 40.182 58.2863 48.4928" stroke="#FCFCFC" stroke-width="2"/>
<path d="M0 71.1331L64.1331 71.1331" stroke="#252525" stroke-width="3"/>
<path d="M2.10272 69.0304C11.7572 44.9879 37.0487 12.073 60.979 69.0304L2.10272 69.0304Z" fill="#FCFCFC" stroke="#252525" stroke-width="2"/>
<path d="M24.6204 55.7073H27.2241V58.523H24.6204V55.7073Z" fill="#252525"/>
<path d="M14.2054 58.523H16.8091V61.3387H14.2054V58.523Z" fill="#252525"/>
<path d="M31.4429 45.5137H34.0467V48.3294H31.4429V45.5137Z" fill="#252525"/>
<path d="M35.8924 57.2755H38.4962V60.0912H35.8924V57.2755Z" fill="#252525"/>
<path d="M46.3074 61.4991H48.9111V64.3148H46.3074V61.4991Z" fill="#252525"/>
</g>
</svg>
