<svg width="80" height="80" viewBox="0 0 80 80" fill="none" xmlns="http://www.w3.org/2000/svg">
<mask id="mask0" mask-type="alpha" maskUnits="userSpaceOnUse" x="0" y="0" width="80" height="80">
<rect width="80" height="80" fill="#C4C4C4"/>
</mask>
<g mask="url(#mask0)">
<path d="M40.1974 20.2186C27.8356 30.2244 36.5292 49.7187 44.1433 58.0569C45.0391 59.0991 49.1663 61.5225 54.0036 60.5219L59.0089 58.9911C59.6807 58.9911 62.8501 60.0216 65 60.5219C67.1499 61.0222 70.6541 57.7403 71.7738 56.4896C76.3104 50.1555 79.945 39.6632 79.164 31.4751C78.5571 25.1119 74.2084 20.1402 72.4457 19.5933C69.5953 18.7089 64.8315 21.0524 63.0399 22.7201C62.592 21.8863 61.0244 19.8434 58.3371 18.3425C55.6497 16.8416 52.2905 20.6355 50.9469 22.7201C45.5722 17.7172 41.5411 18.9679 40.1974 20.2186Z" fill="#252525" stroke="#252525"/>
<path d="M12.1285 35.779C8.14876 34.0894 0.359805 29.9499 1.04205 26.9087C1.72429 23.8674 8.71729 31.5551 12.1285 35.779C10.7072 32.8222 8.20562 26.4018 9.5701 24.3742C10.9346 22.3467 11.8442 31.1326 12.1285 35.779C12.6971 30.7102 14.1753 20.8261 15.5397 21.8398C16.9042 22.8536 13.8341 31.555 12.1285 35.779C14.1184 31.1326 18.2687 22.3467 18.951 24.3742C19.6332 26.4018 14.6869 32.8222 12.1285 35.779Z" fill="#252525"/>
<path d="M12.1285 35.779C8.14875 34.0894 0.359805 29.9499 1.04205 26.9087C1.72429 23.8674 8.71729 31.5551 12.1285 35.779ZM12.1285 35.779C12.697 30.7102 14.1753 20.8261 15.5397 21.8398C16.9042 22.8536 13.8341 31.555 12.1285 35.779ZM12.1285 35.779C11.8442 31.1326 10.9346 22.3467 9.57011 24.3742C8.20562 26.4018 10.7072 32.8222 12.1285 35.779ZM12.1285 35.779C14.1184 31.1326 18.2687 22.3467 18.951 24.3742C19.6332 26.4018 14.6869 32.8222 12.1285 35.779Z" stroke="#252525"/>
<path d="M9.4823 40.8209C3.87767 50.4288 40.8542 64.9272 64.2068 73.2675C34.5823 33.2344 28.1644 29.1446 24.4947 29.8118C21.8259 29.4782 15.0869 31.213 9.4823 40.8209Z" fill="#FCFCFC" stroke="#252525" stroke-width="2" stroke-linejoin="round"/>
<path d="M17.0132 50.7915C20.0157 48.7898 26.2208 44.5863 27.0215 43.7857" stroke="#252525" stroke-width="2"/>
<path d="M30.0238 59.7989C31.0246 59.1317 33.4266 57.3969 35.0279 55.7956M41.0329 64.803C42.0337 64.4694 44.4357 63.2017 46.037 60.7997" stroke="#252525" stroke-width="2"/>
</g>
</svg>
